VotoSerifGX-CondensedBoldDisplay.ufo
<glyph name="at" format="2">
  <advance width="664"/>
  <unicode hex="0040"/>
  <outline>
    <contour>
      <point x="317" y="-142" type="curve" smooth="yes"/>
      <point x="394" y="-142"/>
      <point x="463" y="-111"/>
      <point x="528" y="-43" type="curve"/>
      <point x="526" y="-34" type="line"/>
      <point x="457" y="-102"/>
      <point x="390" y="-131"/>
      <point x="322" y="-131" type="curve" smooth="yes"/>
      <point x="183" y="-131"/>
      <point x="108" y="-20"/>
      <point x="108" y="203" type="curve" smooth="yes"/>
      <point x="108" y="495"/>
      <point x="230" y="704"/>
      <point x="404" y="704" type="curve" smooth="yes"/>
      <point x="520" y="704"/>
      <point x="579" y="612"/>
      <point x="579" y="403" type="curve" smooth="yes"/>
      <point x="579" y="241"/>
      <point x="543" y="87"/>
      <point x="478" y="87" type="curve" smooth="yes"/>
      <point x="464" y="87"/>
      <point x="450" y="95"/>
      <point x="450" y="149" type="curve" smooth="yes"/>
      <point x="450" y="196"/>
      <point x="459" y="253"/>
      <point x="462" y="271" type="curve" smooth="yes"/>
      <point x="498" y="520" type="line"/>
      <point x="489" y="520" type="line"/>
      <point x="428" y="484" type="line"/>
      <point x="417" y="510"/>
      <point x="402" y="529"/>
      <point x="364" y="529" type="curve" smooth="yes"/>
      <point x="248" y="529"/>
      <point x="190" y="353"/>
      <point x="190" y="234" type="curve" smooth="yes"/>
      <point x="190" y="131"/>
      <point x="234" y="77"/>
      <point x="283" y="77" type="curve" smooth="yes"/>
      <point x="331" y="77"/>
      <point x="368" y="119"/>
      <point x="392" y="218" type="curve"/>
      <point x="393" y="218" type="line"/>
      <point x="393" y="116"/>
      <point x="443" y="77"/>
      <point x="481" y="77" type="curve" smooth="yes"/>
      <point x="561" y="77"/>
      <point x="637" y="203"/>
      <point x="637" y="385" type="curve" smooth="yes"/>
      <point x="637" y="575"/>
      <point x="552" y="714"/>
      <point x="392" y="714" type="curve" smooth="yes"/>
      <point x="192" y="714"/>
      <point x="38" y="500"/>
      <point x="38" y="223" type="curve" smooth="yes"/>
      <point x="38" y="-24"/>
      <point x="161" y="-142"/>
    </contour>
    <contour>
      <point x="305" y="95" type="curve" smooth="yes"/>
      <point x="281" y="95"/>
      <point x="269" y="134"/>
      <point x="269" y="204" type="curve" smooth="yes"/>
      <point x="269" y="318"/>
      <point x="305" y="518"/>
      <point x="378" y="518" type="curve" smooth="yes"/>
      <point x="399" y="518"/>
      <point x="415" y="495"/>
      <point x="422" y="479" type="curve"/>
      <point x="389" y="251" type="line" smooth="yes"/>
      <point x="375" y="152"/>
      <point x="333" y="95"/>
    </contour>
  </outline>
</glyph>
<glyph name="S" format="2">
  <advance width="437"/>
  <unicode hex="0053"/>
  <anchor x="218" y="0" name="bottom"/>
  <anchor x="218" y="714" name="top"/>
  <anchor x="417" y="714" name="topright"/>
  <outline>
    <contour>
      <point x="206" y="-10" type="curve" smooth="yes"/>
      <point x="334" y="-10"/>
      <point x="417" y="72"/>
      <point x="417" y="219" type="curve" smooth="yes"/>
      <point x="417" y="277"/>
      <point x="415" y="357"/>
      <point x="275" y="423" type="curve" smooth="yes"/>
      <point x="164" y="476"/>
      <point x="128" y="526"/>
      <point x="128" y="603" type="curve" smooth="yes"/>
      <point x="128" y="691"/>
      <point x="185" y="715"/>
      <point x="216" y="715" type="curve" smooth="yes"/>
      <point x="268" y="715"/>
      <point x="290" y="658"/>
      <point x="290" y="526" type="curve"/>
      <point x="369" y="526"/>
      <point x="395" y="556"/>
      <point x="395" y="598" type="curve" smooth="yes"/>
      <point x="395" y="662"/>
      <point x="345" y="724"/>
      <point x="228" y="724" type="curve" smooth="yes"/>
      <point x="118" y="724"/>
      <point x="33" y="649"/>
      <point x="33" y="515" type="curve" smooth="yes"/>
      <point x="33" y="463"/>
      <point x="26" y="380"/>
      <point x="172" y="308" type="curve" smooth="yes"/>
      <point x="240" y="272"/>
      <point x="319" y="231"/>
      <point x="319" y="118" type="curve" smooth="yes"/>
      <point x="319" y="42"/>
      <point x="287" y="1"/>
      <point x="228" y="1" type="curve" smooth="yes"/>
      <point x="148" y="1"/>
      <point x="114" y="72"/>
      <point x="114" y="221" type="curve"/>
      <point x="65" y="221"/>
      <point x="17" y="196"/>
      <point x="17" y="132" type="curve" smooth="yes"/>
      <point x="17" y="65"/>
      <point x="49" y="-10"/>
    </contour>
  </outline>
</glyph>
<glyph name="bracketleft" format="2">
  <advance width="329"/>
  <unicode hex="005B"/>
  <outline>
    <contour>
      <point x="72" y="-128" type="line"/>
      <point x="302" y="-128" type="line"/>
      <point x="302" y="-118" type="line"/>
      <point x="272" y="-118" type="line" smooth="yes"/>
      <point x="216" y="-118"/>
      <point x="212" y="-96"/>
      <point x="212" y="-46" type="curve" smooth="yes"/>
      <point x="212" y="678" type="line" smooth="yes"/>
      <point x="212" y="728"/>
      <point x="216" y="750"/>
      <point x="272" y="750" type="curve" smooth="yes"/>
      <point x="302" y="750" type="line"/>
      <point x="302" y="760" type="line"/>
      <point x="72" y="760" type="line"/>
    </contour>
  </outline>
</glyph>
<glyph name="underscore" format="2">
  <advance width="331"/>
  <unicode hex="005F"/>
  <outline>
    <contour>
      <point x="-5" y="-123" type="line"/>
      <point x="334" y="-123" type="line"/>
      <point x="334" y="-103" type="line"/>
      <point x="-5" y="-103" type="line"/>
    </contour>
  </outline>
</glyph>
<glyph name="f" format="2">
  <advance width="315"/>
  <unicode hex="0066"/>
  <anchor x="158" y="0" name="bottom"/>
  <anchor x="208" y="770" name="top"/>
  <anchor x="378" y="770" name="topright"/>
  <outline>
    <contour>
      <point x="10" y="0" type="line"/>
      <point x="301" y="0" type="line"/>
      <point x="301" y="10" type="line"/>
      <point x="264" y="10" type="line" smooth="yes"/>
      <point x="247" y="10"/>
      <point x="217" y="17"/>
      <point x="217" y="75" type="curve" smooth="yes"/>
      <point x="217" y="526" type="line"/>
      <point x="315" y="526" type="line"/>
      <point x="315" y="536" type="line"/>
      <point x="217" y="536" type="line"/>
      <point x="217" y="638" type="line" smooth="yes"/>
      <point x="217" y="730"/>
      <point x="224" y="760"/>
      <point x="244" y="760" type="curve" smooth="yes"/>
      <point x="264" y="760"/>
      <point x="271" y="727"/>
      <point x="271" y="627" type="curve"/>
      <point x="349" y="627"/>
      <point x="366" y="660"/>
      <point x="366" y="696" type="curve" smooth="yes"/>
      <point x="366" y="733"/>
      <point x="346" y="770"/>
      <point x="238" y="770" type="curve" smooth="yes"/>
      <point x="119" y="770"/>
      <point x="77" y="698"/>
      <point x="77" y="573" type="curve" smooth="yes"/>
      <point x="77" y="536" type="line"/>
      <point x="14" y="536" type="line"/>
      <point x="14" y="526" type="line"/>
      <point x="77" y="526" type="line"/>
      <point x="77" y="75" type="line" smooth="yes"/>
      <point x="77" y="17"/>
      <point x="44" y="10"/>
      <point x="30" y="10" type="curve" smooth="yes"/>
      <point x="10" y="10" type="line"/>
    </contour>
  </outline>
</glyph>
<glyph name="l" format="2">
  <advance width="276"/>
  <unicode hex="006C"/>
  <anchor x="139" y="0" name="bottom"/>
  <anchor x="139" y="268" name="center"/>
  <anchor x="139" y="760" name="top"/>
  <anchor x="270" y="760" name="topright"/>
  <outline>
    <contour>
      <point x="13" y="0" type="line"/>
      <point x="261" y="0" type="line"/>
      <point x="261" y="10" type="line"/>
      <point x="255" y="10" type="line" smooth="yes"/>
      <point x="228" y="10"/>
      <point x="209" y="24"/>
      <point x="209" y="82" type="curve" smooth="yes"/>
      <point x="209" y="760" type="line"/>
      <point x="13" y="760" type="line"/>
      <point x="13" y="750" type="line"/>
      <point x="23" y="750" type="line" smooth="yes"/>
      <point x="34" y="750"/>
      <point x="67" y="743"/>
      <point x="67" y="689" type="curve" smooth="yes"/>
      <point x="67" y="82" type="line" smooth="yes"/>
      <point x="67" y="24"/>
      <point x="48" y="10"/>
      <point x="23" y="10" type="curve" smooth="yes"/>
      <point x="13" y="10" type="line"/>
    </contour>
  </outline>
</glyph>
<glyph name="exclamdown" format="2">
  <advance width="303"/>
  <unicode hex="00A1"/>
  <outline>
    <contour>
      <point x="73" y="-179" type="line"/>
      <point x="230" y="-179" type="line"/>
      <point x="159" y="308" type="line"/>
      <point x="144" y="308" type="line"/>
    </contour>
    <contour>
      <point x="150" y="387" type="curve" smooth="yes"/>
      <point x="183" y="387"/>
      <point x="209" y="407"/>
      <point x="209" y="465" type="curve" smooth="yes"/>
      <point x="209" y="523"/>
      <point x="183" y="542"/>
      <point x="150" y="542" type="curve" smooth="yes"/>
      <point x="117" y="542"/>
      <point x="90" y="523"/>
      <point x="90" y="465" type="curve" smooth="yes"/>
      <point x="90" y="407"/>
      <point x="117" y="387"/>
    </contour>
  </outline>
</glyph>
<glyph name="section" format="2">
  <advance width="394"/>
  <unicode hex="00A7"/>
  <outline>
    <contour>
      <point x="184" y="-114" type="curve" smooth="yes"/>
      <point x="310" y="-114"/>
      <point x="351" y="-34"/>
      <point x="351" y="64" type="curve" smooth="yes"/>
      <point x="351" y="111"/>
      <point x="344" y="148"/>
      <point x="321" y="180" type="curve"/>
      <point x="334" y="194"/>
      <point x="378" y="232"/>
      <point x="378" y="304" type="curve" smooth="yes"/>
      <point x="378" y="389"/>
      <point x="313" y="431"/>
      <point x="229" y="486" type="curve" smooth="yes"/>
      <point x="119" y="554"/>
      <point x="132" y="594"/>
      <point x="132" y="636" type="curve" smooth="yes"/>
      <point x="132" y="705"/>
      <point x="156" y="748"/>
      <point x="194" y="748" type="curve" smooth="yes"/>
      <point x="234" y="748"/>
      <point x="262" y="683"/>
      <point x="262" y="581" type="curve"/>
      <point x="301" y="581"/>
      <point x="342" y="606"/>
      <point x="342" y="651" type="curve" smooth="yes"/>
      <point x="342" y="714"/>
      <point x="297" y="760"/>
      <point x="214" y="760" type="curve" smooth="yes"/>
      <point x="119" y="760"/>
      <point x="55" y="708"/>
      <point x="55" y="592" type="curve" smooth="yes"/>
      <point x="55" y="539"/>
      <point x="66" y="505"/>
      <point x="94" y="472" type="curve"/>
      <point x="72" y="448"/>
      <point x="40" y="421"/>
      <point x="40" y="351" type="curve" smooth="yes"/>
      <point x="40" y="328"/>
      <point x="9" y="271"/>
      <point x="121" y="207" type="curve" smooth="yes"/>
      <point x="295" y="111"/>
      <point x="291" y="65"/>
      <point x="291" y="11" type="curve" smooth="yes"/>
      <point x="291" y="-93"/>
      <point x="235" y="-102"/>
      <point x="211" y="-102" type="curve" smooth="yes"/>
      <point x="147" y="-102"/>
      <point x="128" y="-27"/>
      <point x="128" y="93" type="curve"/>
      <point x="95" y="93"/>
      <point x="50" y="61"/>
      <point x="50" y="0" type="curve" smooth="yes"/>
      <point x="50" y="-70"/>
      <point x="104" y="-114"/>
    </contour>
    <contour>
      <point x="303" y="199" type="curve"/>
      <point x="286" y="220"/>
      <point x="260" y="241"/>
      <point x="219" y="266" type="curve" smooth="yes"/>
      <point x="96" y="337"/>
      <point x="92" y="364"/>
      <point x="92" y="401" type="curve" smooth="yes"/>
      <point x="92" y="421"/>
      <point x="98" y="445"/>
      <point x="106" y="460" type="curve"/>
      <point x="130" y="435"/>
      <point x="165" y="410"/>
      <point x="220" y="377" type="curve" smooth="yes"/>
      <point x="322" y="315"/>
      <point x="315" y="289"/>
      <point x="315" y="256" type="curve" smooth="yes"/>
      <point x="315" y="231"/>
      <point x="311" y="212"/>
    </contour>
  </outline>
</glyph>
<glyph name="twosuperior" format="2">
  <advance width="282"/>
  <unicode hex="00B2"/>
  <outline>
    <contour>
      <point x="13" y="387" type="line"/>
      <point x="263" y="387" type="line"/>
      <point x="268" y="510" type="line"/>
      <point x="259" y="510" type="line"/>
      <point x="257" y="482" type="line" smooth="yes"/>
      <point x="254" y="456"/>
      <point x="245" y="449"/>
      <point x="218" y="449" type="curve" smooth="yes"/>
      <point x="34" y="449" type="line"/>
      <point x="99" y="508" type="line" smooth="yes"/>
      <point x="249" y="615"/>
      <point x="263" y="646"/>
      <point x="263" y="704" type="curve" smooth="yes"/>
      <point x="263" y="779"/>
      <point x="235" y="825"/>
      <point x="133" y="825" type="curve" smooth="yes"/>
      <point x="55" y="825"/>
      <point x="14" y="793"/>
      <point x="14" y="750" type="curve" smooth="yes"/>
      <point x="14" y="701"/>
      <point x="67" y="683"/>
      <point x="91" y="683" type="curve"/>
      <point x="91" y="781"/>
      <point x="100" y="815"/>
      <point x="124" y="815" type="curve" smooth="yes"/>
      <point x="148" y="815"/>
      <point x="155" y="788"/>
      <point x="155" y="702" type="curve" smooth="yes"/>
      <point x="155" y="629"/>
      <point x="133" y="594"/>
      <point x="79" y="525" type="curve" smooth="yes"/>
      <point x="13" y="440" type="line"/>
    </contour>
  </outline>
</glyph>
<glyph name="acute" format="2">
  <advance width="268"/>
  <unicode hex="00B4"/>
  <outline>
    <contour>
      <point x="40" y="605" type="line"/>
      <point x="50" y="605" type="line"/>
      <point x="102" y="644"/>
      <point x="193" y="721"/>
      <point x="228" y="756" type="curve"/>
      <point x="228" y="766" type="line"/>
      <point x="82" y="766" type="line"/>
      <point x="71" y="721"/>
      <point x="57" y="658"/>
      <point x="40" y="615" type="curve"/>
    </contour>
  </outline>
</glyph>
<glyph name="AE" format="2">
  <advance width="745"/>
  <unicode hex="00C6"/>
  <anchor x="376" y="0" name="bottom"/>
  <anchor x="376" y="714" name="top"/>
  <outline>
    <contour>
      <point x="5" y="0" type="line"/>
      <point x="204" y="0" type="line"/>
      <point x="204" y="10" type="line"/>
      <point x="141" y="10" type="line" smooth="yes"/>
      <point x="110" y="10"/>
      <point x="94" y="19"/>
      <point x="94" y="44" type="curve" smooth="yes"/>
      <point x="94" y="58"/>
      <point x="100" y="76"/>
      <point x="109" y="102" type="curve" smooth="yes"/>
      <point x="167" y="254" type="line"/>
      <point x="340" y="254" type="line"/>
      <point x="340" y="67" type="line" smooth="yes"/>
      <point x="340" y="10"/>
      <point x="312" y="10"/>
      <point x="293" y="10" type="curve" smooth="yes"/>
      <point x="274" y="10" type="line"/>
      <point x="274" y="0" type="line"/>
      <point x="721" y="0" type="line"/>
      <point x="728" y="179" type="line"/>
      <point x="718" y="179" type="line"/>
      <point x="715" y="145" type="line" smooth="yes"/>
      <point x="707" y="51"/>
      <point x="657" y="10"/>
      <point x="555" y="10" type="curve" smooth="yes"/>
      <point x="484" y="10" type="line"/>
      <point x="484" y="368" type="line"/>
      <point x="686" y="368" type="line"/>
      <point x="686" y="378" type="line"/>
      <point x="484" y="378" type="line"/>
      <point x="484" y="704" type="line"/>
      <point x="531" y="704" type="line" smooth="yes"/>
      <point x="636" y="704"/>
      <point x="683" y="663"/>
      <point x="691" y="571" type="curve" smooth="yes"/>
      <point x="694" y="535" type="line"/>
      <point x="704" y="535" type="line"/>
      <point x="698" y="714" type="line"/>
      <point x="233" y="714" type="line"/>
      <point x="233" y="704" type="line"/>
      <point x="327" y="704" type="line"/>
      <point x="93" y="89" type="line" smooth="yes"/>
      <point x="70" y="29"/>
      <point x="54" y="10"/>
      <point x="29" y="10" type="curve" smooth="yes"/>
      <point x="5" y="10" type="line"/>
    </contour>
    <contour>
      <point x="171" y="264" type="line"/>
      <point x="338" y="704" type="line"/>
      <point x="340" y="704" type="line"/>
      <point x="340" y="264" type="line"/>
    </contour>
  </outline>
</glyph>
<glyph name="Lslash" format="2">
  <advance width="490"/>
  <unicode hex="0141"/>
  <anchor x="246" y="0" name="bottom"/>
  <anchor x="246" y="714" name="top"/>
  <outline>
    <contour>
      <point x="16" y="0" type="line"/>
      <point x="463" y="0" type="line"/>
      <point x="471" y="219" type="line"/>
      <point x="461" y="219" type="line"/>
      <point x="456" y="150" type="line" smooth="yes"/>
      <point x="449" y="54"/>
      <point x="396" y="10"/>
      <point x="289" y="10" type="curve" smooth="yes"/>
      <point x="227" y="10" type="line"/>
      <point x="227" y="408" type="line"/>
      <point x="327" y="482" type="line"/>
      <point x="327" y="494" type="line"/>
      <point x="227" y="420" type="line"/>
      <point x="227" y="635" type="line" smooth="yes"/>
      <point x="227" y="702"/>
      <point x="261" y="704"/>
      <point x="284" y="704" type="curve" smooth="yes"/>
      <point x="294" y="704" type="line"/>
      <point x="294" y="714" type="line"/>
      <point x="16" y="714" type="line"/>
      <point x="16" y="704" type="line"/>
      <point x="28" y="704" type="line" smooth="yes"/>
      <point x="59" y="704"/>
      <point x="81" y="702"/>
      <point x="81" y="630" type="curve" smooth="yes"/>
      <point x="81" y="311" type="line"/>
      <point x="26" y="270" type="line"/>
      <point x="26" y="258" type="line"/>
      <point x="81" y="299" type="line"/>
      <point x="81" y="86" type="line" smooth="yes"/>
      <point x="81" y="12"/>
      <point x="59" y="10"/>
      <point x="22" y="10" type="curve" smooth="yes"/>
      <point x="16" y="10" type="line"/>
    </contour>
  </outline>
</glyph>
<glyph name="Eng" format="2">
  <advance width="583"/>
  <unicode hex="014A"/>
  <anchor x="291" y="-240" name="bottom"/>
  <anchor x="291" y="714" name="top"/>
  <outline>
    <contour>
      <point x="304" y="-240" type="line"/>
      <point x="327" y="-240" type="line" smooth="yes"/>
      <point x="428" y="-240"/>
      <point x="479" y="-187"/>
      <point x="479" y="-8" type="curve" smooth="yes"/>
      <point x="479" y="639" type="line" smooth="yes"/>
      <point x="479" y="690"/>
      <point x="483" y="704"/>
      <point x="515" y="704" type="curve" smooth="yes"/>
      <point x="576" y="704" type="line"/>
      <point x="576" y="714" type="line"/>
      <point x="377" y="714" type="line"/>
      <point x="377" y="704" type="line"/>
      <point x="435" y="704" type="line" smooth="yes"/>
      <point x="467" y="704"/>
      <point x="469" y="690"/>
      <point x="469" y="643" type="curve" smooth="yes"/>
      <point x="469" y="241" type="line"/>
      <point x="226" y="714" type="line"/>
      <point x="16" y="714" type="line"/>
      <point x="16" y="704" type="line"/>
      <point x="60" y="704" type="line" smooth="yes"/>
      <point x="94" y="704"/>
      <point x="95" y="685"/>
      <point x="95" y="643" type="curve" smooth="yes"/>
      <point x="95" y="75" type="line" smooth="yes"/>
      <point x="95" y="30"/>
      <point x="90" y="10"/>
      <point x="52" y="10" type="curve" smooth="yes"/>
      <point x="16" y="10" type="line"/>
      <point x="16" y="0" type="line"/>
      <point x="199" y="0" type="line"/>
      <point x="199" y="10" type="line"/>
      <point x="139" y="10" type="line" smooth="yes"/>
      <point x="113" y="10"/>
      <point x="105" y="30"/>
      <point x="105" y="75" type="curve" smooth="yes"/>
      <point x="105" y="666" type="line"/>
      <point x="469" y="-5" type="line"/>
      <point x="469" y="-10" type="line" smooth="yes"/>
      <point x="469" y="-151"/>
      <point x="415" y="-230"/>
      <point x="318" y="-230" type="curve" smooth="yes"/>
      <point x="304" y="-230" type="line"/>
    </contour>
  </outline>
</glyph>
<glyph name="uni0183" format="2">
  <advance width="487"/>
  <unicode hex="0183"/>
  <anchor x="243" y="0" name="bottom"/>
  <anchor x="243" y="760" name="top"/>
  <outline>
    <contour>
      <point x="305" y="-10" type="curve" smooth="yes"/>
      <point x="400" y="-10"/>
      <point x="460" y="68"/>
      <point x="460" y="264" type="curve" smooth="yes"/>
      <point x="460" y="464"/>
      <point x="400" y="547"/>
      <point x="304" y="547" type="curve" smooth="yes"/>
      <point x="242" y="547"/>
      <point x="220" y="526"/>
      <point x="210" y="473" type="curve"/>
      <point x="208" y="473" type="line"/>
      <point x="209" y="523"/>
      <point x="209" y="544"/>
      <point x="209" y="581" type="curve" smooth="yes"/>
      <point x="209" y="750" type="line"/>
      <point x="295" y="750" type="line" smooth="yes"/>
      <point x="373" y="750"/>
      <point x="400" y="720"/>
      <point x="407" y="621" type="curve" smooth="yes"/>
      <point x="409" y="598" type="line"/>
      <point x="420" y="598" type="line"/>
      <point x="410" y="760" type="line"/>
      <point x="11" y="760" type="line"/>
      <point x="11" y="750" type="line"/>
      <point x="12" y="750" type="line" smooth="yes"/>
      <point x="39" y="750"/>
      <point x="67" y="746"/>
      <point x="67" y="692" type="curve" smooth="yes"/>
      <point x="67" y="96" type="line" smooth="yes"/>
      <point x="67" y="32"/>
      <point x="62" y="10"/>
      <point x="15" y="10" type="curve" smooth="yes"/>
      <point x="11" y="10" type="line"/>
      <point x="11" y="0" type="line"/>
      <point x="208" y="0" type="line"/>
      <point x="208" y="74" type="line"/>
      <point x="210" y="74" type="line"/>
      <point x="226" y="21"/>
      <point x="241" y="-10"/>
    </contour>
    <contour>
      <point x="270" y="9" type="curve" smooth="yes"/>
      <point x="229" y="9"/>
      <point x="209" y="90"/>
      <point x="209" y="261" type="curve" smooth="yes"/>
      <point x="209" y="438"/>
      <point x="216" y="532"/>
      <point x="264" y="532" type="curve" smooth="yes"/>
      <point x="308" y="532"/>
      <point x="316" y="485"/>
      <point x="316" y="258" type="curve" smooth="yes"/>
      <point x="316" y="45"/>
      <point x="307" y="9"/>
    </contour>
  </outline>
</glyph>
<glyph name="uni0186" format="2">
  <advance width="512"/>
  <unicode hex="0186"/>
  <anchor x="257" y="0" name="bottom"/>
  <anchor x="257" y="714" name="top"/>
  <outline>
    <contour>
      <point x="204" y="-10" type="curve" smooth="yes"/>
      <point x="384" y="-10"/>
      <point x="479" y="147"/>
      <point x="479" y="364" type="curve" smooth="yes"/>
      <point x="479" y="597"/>
      <point x="394" y="724"/>
      <point x="218" y="724" type="curve" smooth="yes"/>
      <point x="123" y="724"/>
      <point x="35" y="677"/>
      <point x="35" y="586" type="curve" smooth="yes"/>
      <point x="35" y="540"/>
      <point x="54" y="509"/>
      <point x="131" y="509" type="curve"/>
      <point x="131" y="661"/>
      <point x="153" y="714"/>
      <point x="218" y="714" type="curve" smooth="yes"/>
      <point x="297" y="714"/>
      <point x="326" y="621"/>
      <point x="326" y="356" type="curve" smooth="yes"/>
      <point x="326" y="105"/>
      <point x="293" y="0"/>
      <point x="213" y="0" type="curve" smooth="yes"/>
      <point x="163" y="0"/>
      <point x="130" y="47"/>
      <point x="130" y="207" type="curve"/>
      <point x="46" y="207"/>
      <point x="23" y="173"/>
      <point x="23" y="120" type="curve" smooth="yes"/>
      <point x="23" y="62"/>
      <point x="70" y="-10"/>
    </contour>
  </outline>
</glyph>
<glyph name="uni0193" format="2">
  <advance width="585"/>
  <unicode hex="0193"/>
  <anchor x="293" y="0" name="bottom"/>
  <anchor x="293" y="714" name="top"/>
  <outline>
    <contour>
      <point x="318" y="-10" type="curve" smooth="yes"/>
      <point x="386" y="-10"/>
      <point x="448" y="8"/>
      <point x="509" y="43" type="curve"/>
      <point x="509" y="251" type="line" smooth="yes"/>
      <point x="509" y="309"/>
      <point x="515" y="325"/>
      <point x="546" y="325" type="curve" smooth="yes"/>
      <point x="553" y="325" type="line"/>
      <point x="553" y="335" type="line"/>
      <point x="305" y="335" type="line"/>
      <point x="305" y="325" type="line"/>
      <point x="318" y="325" type="line" smooth="yes"/>
      <point x="353" y="325"/>
      <point x="364" y="309"/>
      <point x="364" y="255" type="curve" smooth="yes"/>
      <point x="364" y="7" type="line"/>
      <point x="350" y="3"/>
      <point x="337" y="0"/>
      <point x="329" y="0" type="curve" smooth="yes"/>
      <point x="220" y="0"/>
      <point x="191" y="74"/>
      <point x="191" y="358" type="curve" smooth="yes"/>
      <point x="191" y="630"/>
      <point x="221" y="714"/>
      <point x="319" y="714" type="curve" smooth="yes"/>
      <point x="390" y="714"/>
      <point x="405" y="661"/>
      <point x="405" y="524" type="curve"/>
      <point x="482" y="524"/>
      <point x="517" y="562"/>
      <point x="517" y="608" type="curve" smooth="yes"/>
      <point x="517" y="708" type="line" smooth="yes"/>
      <point x="517" y="771"/>
      <point x="532" y="790"/>
      <point x="585" y="790" type="curve" smooth="yes"/>
      <point x="616" y="790"/>
      <point x="638" y="784"/>
      <point x="644" y="772" type="curve"/>
      <point x="650" y="779"/>
      <point x="653" y="794"/>
      <point x="653" y="809" type="curve" smooth="yes"/>
      <point x="653" y="850"/>
      <point x="634" y="875"/>
      <point x="588" y="875" type="curve" smooth="yes"/>
      <point x="531" y="875"/>
      <point x="507" y="836"/>
      <point x="507" y="698" type="curve" smooth="yes"/>
      <point x="507" y="649" type="line"/>
      <point x="484" y="694"/>
      <point x="422" y="724"/>
      <point x="321" y="724" type="curve" smooth="yes"/>
      <point x="135" y="724"/>
      <point x="39" y="574"/>
      <point x="39" y="358" type="curve" smooth="yes"/>
      <point x="39" y="137"/>
      <point x="130" y="-10"/>
    </contour>
  </outline>
</glyph>
<glyph name="uni0197" format="2">
  <advance width="308"/>
  <unicode hex="0197"/>
  <anchor x="155" y="0" name="bottom"/>
  <anchor x="155" y="714" name="top"/>
  <outline>
    <contour>
      <point x="16" y="0" type="line"/>
      <point x="294" y="0" type="line"/>
      <point x="294" y="10" type="line"/>
      <point x="254" y="10" type="line" smooth="yes"/>
      <point x="228" y="10"/>
      <point x="226" y="18"/>
      <point x="226" y="67" type="curve" smooth="yes"/>
      <point x="226" y="367" type="line"/>
      <point x="297" y="367" type="line"/>
      <point x="297" y="377" type="line"/>
      <point x="226" y="377" type="line"/>
      <point x="226" y="643" type="line" smooth="yes"/>
      <point x="226" y="692"/>
      <point x="230" y="704"/>
      <point x="254" y="704" type="curve" smooth="yes"/>
      <point x="294" y="704" type="line"/>
      <point x="294" y="714" type="line"/>
      <point x="16" y="714" type="line"/>
      <point x="16" y="704" type="line"/>
      <point x="54" y="704" type="line" smooth="yes"/>
      <point x="82" y="704"/>
      <point x="81" y="692"/>
      <point x="81" y="644" type="curve" smooth="yes"/>
      <point x="81" y="377" type="line"/>
      <point x="11" y="377" type="line"/>
      <point x="11" y="367" type="line"/>
      <point x="81" y="367" type="line"/>
      <point x="81" y="67" type="line" smooth="yes"/>
      <point x="81" y="20"/>
      <point x="82" y="10"/>
      <point x="54" y="10" type="curve" smooth="yes"/>
      <point x="16" y="10" type="line"/>
    </contour>
  </outline>
</glyph>
<glyph name="uni0199" format="2">
  <advance width="487"/>
  <unicode hex="0199"/>
  <anchor x="244" y="0" name="bottom"/>
  <anchor x="244" y="766" name="top"/>
  <outline>
    <contour>
      <point x="11" y="0" type="line"/>
      <point x="268" y="0" type="line"/>
      <point x="268" y="10" type="line"/>
      <point x="271" y="10" type="line" smooth="yes"/>
      <point x="251" y="10"/>
      <point x="211" y="18"/>
      <point x="211" y="76" type="curve" smooth="yes"/>
      <point x="211" y="221" type="line"/>
      <point x="226" y="246" type="line"/>
      <point x="287" y="84" type="line" smooth="yes"/>
      <point x="322" y="-7"/>
      <point x="385" y="0"/>
      <point x="514" y="0" type="curve" smooth="yes"/>
      <point x="486" y="0" type="line"/>
      <point x="486" y="10" type="line"/>
      <point x="484" y="10" type="line" smooth="yes"/>
      <point x="476" y="10"/>
      <point x="481" y="5"/>
      <point x="445" y="77" type="curve" smooth="yes"/>
      <point x="300" y="371" type="line"/>
      <point x="340" y="437" type="line" smooth="yes"/>
      <point x="392" y="519"/>
      <point x="409" y="526"/>
      <point x="447" y="526" type="curve"/>
      <point x="447" y="536" type="line"/>
      <point x="220" y="536" type="line"/>
      <point x="220" y="526" type="line"/>
      <point x="308" y="526"/>
      <point x="345" y="518"/>
      <point x="345" y="488" type="curve" smooth="yes"/>
      <point x="345" y="475"/>
      <point x="337" y="455"/>
      <point x="322" y="431" type="curve" smooth="yes"/>
      <point x="210" y="236" type="line"/>
      <point x="211" y="266"/>
      <point x="211" y="293"/>
      <point x="211" y="319" type="curve" smooth="yes"/>
      <point x="211" y="636" type="line" smooth="yes"/>
      <point x="211" y="740"/>
      <point x="219" y="756"/>
      <point x="238" y="756" type="curve" smooth="yes"/>
      <point x="259" y="756"/>
      <point x="263" y="728"/>
      <point x="263" y="618" type="curve"/>
      <point x="340" y="618"/>
      <point x="356" y="647"/>
      <point x="356" y="683" type="curve" smooth="yes"/>
      <point x="356" y="722"/>
      <point x="337" y="766"/>
      <point x="229" y="766" type="curve" smooth="yes"/>
      <point x="110" y="766"/>
      <point x="67" y="699"/>
      <point x="67" y="570" type="curve" smooth="yes"/>
      <point x="67" y="78" type="line" smooth="yes"/>
      <point x="67" y="19"/>
      <point x="48" y="10"/>
      <point x="11" y="10" type="curve" smooth="yes"/>
      <point x="11" y="10" type="line"/>
    </contour>
  </outline>
</glyph>
<glyph name="uni01A2" format="2">
  <advance width="908"/>
  <unicode hex="01A2"/>
  <anchor x="454" y="0" name="bottom"/>
  <anchor x="454" y="714" name="top"/>
  <outline>
    <contour>
      <point x="601" y="-240" type="line"/>
      <point x="880" y="-240" type="line"/>
      <point x="880" y="-230" type="line"/>
      <point x="849" y="-230" type="line" smooth="yes"/>
      <point x="824" y="-230"/>
      <point x="814" y="-214"/>
      <point x="814" y="-161" type="curve" smooth="yes"/>
      <point x="814" y="464" type="line" smooth="yes"/>
      <point x="814" y="664"/>
      <point x="761" y="724"/>
      <point x="623" y="724" type="curve" smooth="yes"/>
      <point x="541" y="724"/>
      <point x="492" y="670"/>
      <point x="466" y="602" type="curve"/>
      <point x="437" y="673"/>
      <point x="382" y="725"/>
      <point x="279" y="725" type="curve" smooth="yes"/>
      <point x="117" y="725"/>
      <point x="39" y="580"/>
      <point x="39" y="359" type="curve" smooth="yes"/>
      <point x="39" y="137"/>
      <point x="117" y="-10"/>
      <point x="288" y="-10" type="curve" smooth="yes"/>
      <point x="452" y="-10"/>
      <point x="510" y="130"/>
      <point x="510" y="346" type="curve" smooth="yes"/>
      <point x="510" y="510" type="line" smooth="yes"/>
      <point x="510" y="637"/>
      <point x="526" y="708"/>
      <point x="589" y="708" type="curve" smooth="yes"/>
      <point x="652" y="708"/>
      <point x="669" y="641"/>
      <point x="669" y="539" type="curve" smooth="yes"/>
      <point x="669" y="-163" type="line" smooth="yes"/>
      <point x="669" y="-213"/>
      <point x="665" y="-230"/>
      <point x="626" y="-230" type="curve" smooth="yes"/>
      <point x="601" y="-230" type="line"/>
    </contour>
    <contour>
      <point x="288" y="0" type="curve" smooth="yes"/>
      <point x="215" y="0"/>
      <point x="192" y="88"/>
      <point x="192" y="358" type="curve" smooth="yes"/>
      <point x="192" y="622"/>
      <point x="218" y="715"/>
      <point x="288" y="715" type="curve" smooth="yes"/>
      <point x="352" y="715"/>
      <point x="376" y="648"/>
      <point x="376" y="459" type="curve" smooth="yes"/>
      <point x="376" y="272" type="line" smooth="yes"/>
      <point x="376" y="68"/>
      <point x="355" y="0"/>
    </contour>
  </outline>
</glyph>
<glyph name="uni01A6" format="2">
  <advance width="545"/>
  <unicode hex="01A6"/>
  <anchor x="275" y="-106" name="bottom"/>
  <anchor x="270" y="714" name="top"/>
  <outline>
    <contour>
      <point x="524" y="-120" type="curve" smooth="yes"/>
      <point x="545" y="-120" type="line"/>
      <point x="545" y="-110" type="line"/>
      <point x="543" y="-110" type="line" smooth="yes"/>
      <point x="533" y="-110"/>
      <point x="521" y="-104"/>
      <point x="473" y="16" type="curve" smooth="yes"/>
      <point x="393" y="219" type="line"/>
      <point x="448" y="240"/>
      <point x="495" y="292"/>
      <point x="495" y="401" type="curve" smooth="yes"/>
      <point x="495" y="517"/>
      <point x="437" y="585"/>
      <point x="277" y="585" type="curve" smooth="yes"/>
      <point x="228" y="585" type="line"/>
      <point x="228" y="643" type="line" smooth="yes"/>
      <point x="228" y="690"/>
      <point x="234" y="704"/>
      <point x="258" y="704" type="curve" smooth="yes"/>
      <point x="294" y="704" type="line"/>
      <point x="294" y="714" type="line"/>
      <point x="16" y="714" type="line"/>
      <point x="16" y="704" type="line"/>
      <point x="61" y="704" type="line" smooth="yes"/>
      <point x="74" y="704"/>
      <point x="81" y="690"/>
      <point x="81" y="644" type="curve" smooth="yes"/>
      <point x="81" y="70" type="line" smooth="yes"/>
      <point x="81" y="16"/>
      <point x="61" y="10"/>
      <point x="44" y="10" type="curve" smooth="yes"/>
      <point x="16" y="10" type="line"/>
      <point x="16" y="0" type="line"/>
      <point x="266" y="0" type="line"/>
      <point x="266" y="10" type="line"/>
      <point x="262" y="10" type="line" smooth="yes"/>
      <point x="241" y="10"/>
      <point x="228" y="16"/>
      <point x="228" y="70" type="curve" smooth="yes"/>
      <point x="228" y="214" type="line"/>
      <point x="254" y="214" type="line"/>
      <point x="336" y="-37" type="line" smooth="yes"/>
      <point x="359" y="-109"/>
      <point x="448" y="-120"/>
    </contour>
    <contour>
      <point x="228" y="224" type="line"/>
      <point x="228" y="575" type="line"/>
      <point x="258" y="575" type="line" smooth="yes"/>
      <point x="308" y="575"/>
      <point x="340" y="521"/>
      <point x="340" y="404" type="curve" smooth="yes"/>
      <point x="340" y="292"/>
      <point x="316" y="224"/>
      <point x="260" y="224" type="curve" smooth="yes"/>
    </contour>
  </outline>
</glyph>
<glyph name="uni01A8" format="2">
  <advance width="372"/>
  <unicode hex="01A8"/>
  <anchor x="186" y="0" name="bottom"/>
  <anchor x="186" y="536" name="top"/>
  <outline>
    <contour>
      <point x="193" y="-10" type="curve" smooth="yes"/>
      <point x="318" y="-10"/>
      <point x="360" y="65"/>
      <point x="360" y="103" type="curve" smooth="yes"/>
      <point x="360" y="120"/>
      <point x="351" y="156"/>
      <point x="297" y="170" type="curve"/>
      <point x="304" y="69"/>
      <point x="273" y="0"/>
      <point x="201" y="0" type="curve" smooth="yes"/>
      <point x="141" y="0"/>
      <point x="105" y="34"/>
      <point x="105" y="97" type="curve" smooth="yes"/>
      <point x="105" y="146"/>
      <point x="123" y="175"/>
      <point x="213" y="219" type="curve" smooth="yes"/>
      <point x="302" y="263"/>
      <point x="349" y="300"/>
      <point x="349" y="394" type="curve" smooth="yes"/>
      <point x="349" y="496"/>
      <point x="286" y="547"/>
      <point x="184" y="547" type="curve" smooth="yes"/>
      <point x="80" y="547"/>
      <point x="36" y="509"/>
      <point x="36" y="458" type="curve" smooth="yes"/>
      <point x="36" y="421"/>
      <point x="59" y="389"/>
      <point x="121" y="389" type="curve"/>
      <point x="121" y="479"/>
      <point x="137" y="537"/>
      <point x="202" y="537" type="curve" smooth="yes"/>
      <point x="259" y="537"/>
      <point x="267" y="498"/>
      <point x="267" y="452" type="curve" smooth="yes"/>
      <point x="267" y="401"/>
      <point x="242" y="373"/>
      <point x="198" y="347" type="curve" smooth="yes"/>
      <point x="80" y="289"/>
      <point x="25" y="239"/>
      <point x="25" y="141" type="curve" smooth="yes"/>
      <point x="25" y="34"/>
      <point x="104" y="-10"/>
    </contour>
  </outline>
</glyph>
<glyph name="uni01B3" format="2">
  <advance width="575"/>
  <unicode hex="01B3"/>
  <anchor x="269" y="0" name="bottom"/>
  <anchor x="269" y="714" name="top"/>
  <anchor x="518" y="714" name="topright"/>
  <outline>
    <contour>
      <point x="121" y="0" type="line"/>
      <point x="420" y="0" type="line"/>
      <point x="420" y="10" type="line"/>
      <point x="385" y="10" type="line" smooth="yes"/>
      <point x="346" y="10"/>
      <point x="345" y="30"/>
      <point x="345" y="78" type="curve" smooth="yes"/>
      <point x="345" y="288" type="line"/>
      <point x="427" y="512" type="line" smooth="yes"/>
      <point x="459" y="602"/>
      <point x="480" y="624"/>
      <point x="505" y="624" type="curve" smooth="yes"/>
      <point x="521" y="624"/>
      <point x="527" y="608"/>
      <point x="535" y="581" type="curve"/>
      <point x="578" y="596"/>
      <point x="585" y="623"/>
      <point x="585" y="649" type="curve" smooth="yes"/>
      <point x="585" y="687"/>
      <point x="562" y="720"/>
      <point x="532" y="720" type="curve" smooth="yes"/>
      <point x="495" y="720"/>
      <point x="478" y="708"/>
      <point x="440" y="593" type="curve" smooth="yes"/>
      <point x="364" y="365" type="line" smooth="yes"/>
      <point x="355" y="342"/>
      <point x="349" y="324"/>
      <point x="341" y="297" type="curve"/>
      <point x="353" y="290"/>
      <point x="343" y="316"/>
      <point x="349" y="313" type="curve" smooth="yes"/>
      <point x="223" y="650" type="line" smooth="yes"/>
      <point x="220" y="663"/>
      <point x="222" y="665"/>
      <point x="222" y="674" type="curve" smooth="yes"/>
      <point x="222" y="698"/>
      <point x="232" y="704"/>
      <point x="281" y="704" type="curve" smooth="yes"/>
      <point x="285" y="704" type="line"/>
      <point x="285" y="714" type="line"/>
      <point x="2" y="714" type="line"/>
      <point x="2" y="704" type="line"/>
      <point x="11" y="704" type="line" smooth="yes"/>
      <point x="44" y="704"/>
      <point x="54" y="692"/>
      <point x="70" y="651" type="curve" smooth="yes"/>
      <point x="196" y="312" type="line"/>
      <point x="196" y="79" type="line" smooth="yes"/>
      <point x="196" y="29"/>
      <point x="191" y="10"/>
      <point x="148" y="10" type="curve" smooth="yes"/>
      <point x="121" y="10" type="line"/>
    </contour>
  </outline>
</glyph>
<glyph name="uni01C0" format="2">
  <advance width="272"/>
  <unicode hex="01C0"/>
  <anchor x="135" y="0" name="bottom"/>
  <anchor x="135" y="760" name="top"/>
  <outline>
    <contour>
      <point x="126" y="0" type="line"/>
      <point x="146" y="0" type="line"/>
      <point x="146" y="760" type="line"/>
      <point x="126" y="760" type="line"/>
    </contour>
  </outline>
</glyph>
<glyph name="aringacute" format="2">
  <advance width="454"/>
  <unicode hex="01FB"/>
  <anchor x="228" y="0" name="bottom"/>
  <anchor x="228" y="958" name="top"/>
  <outline>
    <contour>
      <point x="137" y="-10" type="curve" smooth="yes"/>
      <point x="196" y="-10"/>
      <point x="233" y="14"/>
      <point x="247" y="73" type="curve"/>
      <point x="249" y="73" type="line"/>
      <point x="249" y="0" type="line"/>
      <point x="436" y="0" type="line"/>
      <point x="436" y="10" type="line"/>
      <point x="434" y="10" type="line" smooth="yes"/>
      <point x="400" y="10"/>
      <point x="390" y="26"/>
      <point x="390" y="80" type="curve" smooth="yes"/>
      <point x="390" y="378" type="line" smooth="yes"/>
      <point x="390" y="504"/>
      <point x="334" y="549"/>
      <point x="223" y="549" type="curve" smooth="yes"/>
      <point x="135" y="549"/>
      <point x="60" y="516"/>
      <point x="60" y="447" type="curve" smooth="yes"/>
      <point x="60" y="401"/>
      <point x="96" y="380"/>
      <point x="174" y="380" type="curve"/>
      <point x="174" y="501"/>
      <point x="183" y="539"/>
      <point x="213" y="539" type="curve" smooth="yes"/>
      <point x="239" y="539"/>
      <point x="248" y="512"/>
      <point x="248" y="424" type="curve" smooth="yes"/>
      <point x="248" y="301" type="line"/>
      <point x="189" y="298" type="line" smooth="yes"/>
      <point x="82" y="293"/>
      <point x="29" y="245"/>
      <point x="29" y="146" type="curve" smooth="yes"/>
      <point x="29" y="41"/>
      <point x="83" y="-10"/>
    </contour>
    <contour>
      <point x="200" y="19" type="curve" smooth="yes"/>
      <point x="181" y="19"/>
      <point x="174" y="29"/>
      <point x="174" y="149" type="curve" smooth="yes"/>
      <point x="174" y="246"/>
      <point x="188" y="285"/>
      <point x="227" y="289" type="curve" smooth="yes"/>
      <point x="247" y="291" type="line"/>
      <point x="247" y="161" type="line" smooth="yes"/>
      <point x="247" y="88"/>
      <point x="227" y="19"/>
    </contour>
    <contour>
      <point x="231" y="584" type="curve" smooth="yes"/>
      <point x="280" y="584"/>
      <point x="318" y="622"/>
      <point x="318" y="693" type="curve" smooth="yes"/>
      <point x="318" y="764"/>
      <point x="280" y="802"/>
      <point x="231" y="802" type="curve" smooth="yes"/>
      <point x="183" y="802"/>
      <point x="145" y="764"/>
      <point x="145" y="693" type="curve" smooth="yes"/>
      <point x="145" y="622"/>
      <point x="183" y="584"/>
    </contour>
    <contour>
      <point x="233" y="594" type="curve" smooth="yes"/>
      <point x="196" y="594"/>
      <point x="157" y="617"/>
      <point x="157" y="691" type="curve" smooth="yes"/>
      <point x="157" y="770"/>
      <point x="196" y="792"/>
      <point x="233" y="792" type="curve" smooth="yes"/>
      <point x="271" y="792"/>
      <point x="306" y="770"/>
      <point x="306" y="691" type="curve" smooth="yes"/>
      <point x="306" y="617"/>
      <point x="271" y="594"/>
    </contour>
    <contour>
      <point x="169" y="830" type="line"/>
      <point x="176" y="830" type="line"/>
      <point x="226" y="859"/>
      <point x="334" y="922"/>
      <point x="377" y="950" type="curve"/>
      <point x="377" y="958" type="line"/>
      <point x="270" y="958" type="line"/>
      <point x="240" y="922"/>
      <point x="196" y="868"/>
      <point x="169" y="837" type="curve"/>
    </contour>
  </outline>
</glyph>
<glyph name="uni0236" format="2">
  <advance width="321"/>
  <unicode hex="0236"/>
  <anchor x="160" y="0" name="bottom"/>
  <anchor x="160" y="659" name="top"/>
  <outline>
    <contour>
      <point x="32" y="-58" type="line"/>
      <point x="42" y="0"/>
      <point x="59" y="51"/>
      <point x="80" y="93" type="curve"/>
      <point x="100" y="26"/>
      <point x="162" y="-10"/>
      <point x="210" y="-10" type="curve" smooth="yes"/>
      <point x="295" y="-10"/>
      <point x="332" y="34"/>
      <point x="332" y="110" type="curve" smooth="yes"/>
      <point x="332" y="185"/>
      <point x="296" y="231"/>
      <point x="238" y="231" type="curve" smooth="yes"/>
      <point x="230" y="231"/>
      <point x="221" y="230"/>
      <point x="213" y="229" type="curve"/>
      <point x="213" y="526" type="line"/>
      <point x="302" y="526" type="line"/>
      <point x="302" y="536" type="line"/>
      <point x="213" y="536" type="line"/>
      <point x="213" y="700" type="line"/>
      <point x="203" y="700" type="line"/>
      <point x="176" y="578"/>
      <point x="116" y="536"/>
      <point x="17" y="536" type="curve"/>
      <point x="17" y="526" type="line"/>
      <point x="69" y="526" type="line"/>
      <point x="69" y="164" type="line" smooth="yes"/>
      <point x="69" y="157"/>
      <point x="72" y="114"/>
      <point x="75" y="104" type="curve"/>
      <point x="53" y="59"/>
      <point x="33" y="7"/>
      <point x="22" y="-56" type="curve"/>
    </contour>
    <contour>
      <point x="270" y="23" type="curve" smooth="yes"/>
      <point x="224" y="23"/>
      <point x="213" y="67"/>
      <point x="213" y="217" type="curve"/>
      <point x="231" y="220"/>
      <point x="230" y="221"/>
      <point x="238" y="221" type="curve" smooth="yes"/>
      <point x="291" y="221"/>
      <point x="320" y="179"/>
      <point x="320" y="110" type="curve" smooth="yes"/>
      <point x="320" y="55"/>
      <point x="304" y="23"/>
    </contour>
  </outline>
</glyph>
<glyph name="uni0239" format="2">
  <advance width="693"/>
  <unicode hex="0239"/>
  <anchor x="347" y="-224" name="bottom"/>
  <anchor x="347" y="536" name="top"/>
  <outline>
    <contour>
      <point x="203" y="-223" type="line"/>
      <point x="488" y="-223" type="line"/>
      <point x="488" y="-213" type="line"/>
      <point x="484" y="-213" type="line" smooth="yes"/>
      <point x="427" y="-213"/>
      <point x="417" y="-196"/>
      <point x="417" y="-154" type="curve" smooth="yes"/>
      <point x="417" y="-46" type="line" smooth="yes"/>
      <point x="417" y="-19"/>
      <point x="417" y="15"/>
      <point x="414" y="97" type="curve"/>
      <point x="416" y="97" type="line"/>
      <point x="431" y="11"/>
      <point x="447" y="-11"/>
      <point x="504" y="-11" type="curve" smooth="yes"/>
      <point x="608" y="-11"/>
      <point x="667" y="68"/>
      <point x="667" y="267" type="curve" smooth="yes"/>
      <point x="667" y="484"/>
      <point x="588" y="547"/>
      <point x="496" y="547" type="curve" smooth="yes"/>
      <point x="403" y="547"/>
      <point x="382" y="497"/>
      <point x="347" y="406" type="curve"/>
      <point x="322" y="479"/>
      <point x="311" y="547"/>
      <point x="202" y="547" type="curve" smooth="yes"/>
      <point x="110" y="547"/>
      <point x="27" y="484"/>
      <point x="27" y="267" type="curve" smooth="yes"/>
      <point x="27" y="68"/>
      <point x="78" y="-11"/>
      <point x="183" y="-11" type="curve" smooth="yes"/>
      <point x="225" y="-11"/>
      <point x="261" y="11"/>
      <point x="275" y="97" type="curve"/>
      <point x="277" y="97" type="line"/>
      <point x="275" y="15"/>
      <point x="275" y="-19"/>
      <point x="275" y="-46" type="curve" smooth="yes"/>
      <point x="275" y="-151" type="line" smooth="yes"/>
      <point x="275" y="-198"/>
      <point x="263" y="-213"/>
      <point x="208" y="-213" type="curve" smooth="yes"/>
      <point x="203" y="-213" type="line"/>
    </contour>
    <contour>
      <point x="218" y="13" type="curve" smooth="yes"/>
      <point x="179" y="13"/>
      <point x="169" y="47"/>
      <point x="169" y="245" type="curve" smooth="yes"/>
      <point x="169" y="495"/>
      <point x="180" y="535"/>
      <point x="222" y="535" type="curve" smooth="yes"/>
      <point x="244" y="535"/>
      <point x="276" y="532"/>
      <point x="276" y="244" type="curve" smooth="yes"/>
      <point x="276" y="77"/>
      <point x="246" y="13"/>
    </contour>
    <contour>
      <point x="484" y="0" type="curve" smooth="yes"/>
      <point x="452" y="0"/>
      <point x="417" y="43"/>
      <point x="417" y="244" type="curve" smooth="yes"/>
      <point x="417" y="507"/>
      <point x="443" y="534"/>
      <point x="473" y="534" type="curve" smooth="yes"/>
      <point x="502" y="534"/>
      <point x="524" y="495"/>
      <point x="524" y="245" type="curve" smooth="yes"/>
      <point x="524" y="7"/>
      <point x="521" y="0"/>
    </contour>
  </outline>
</glyph>
<glyph name="uni023D" format="2">
  <advance width="489"/>
  <unicode hex="023D"/>
  <anchor x="244" y="0" name="bottom"/>
  <anchor x="244" y="714" name="top"/>
  <anchor x="469" y="714" name="topright"/>
  <anchor x="244" y="357" name="center"/>
  <outline>
    <contour>
      <point x="16" y="358" type="line"/>
      <point x="348" y="358" type="line"/>
      <point x="348" y="368" type="line"/>
      <point x="16" y="368" type="line"/>
    </contour>
    <component base="L"/>
  </outline>
</glyph>
<glyph name="uni023F" format="2">
  <advance width="364"/>
  <unicode hex="023F"/>
  <anchor x="183" y="-237" name="bottom"/>
  <anchor x="183" y="536" name="top"/>
  <anchor x="344" y="536" name="topright"/>
  <outline>
    <contour>
      <point x="271" y="-242" type="curve" smooth="yes"/>
      <point x="325" y="-242"/>
      <point x="356" y="-208"/>
      <point x="356" y="-157" type="curve" smooth="yes"/>
      <point x="356" y="-116"/>
      <point x="338" y="-94"/>
      <point x="305" y="-93" type="curve"/>
      <point x="305" y="-147"/>
      <point x="299" y="-167"/>
      <point x="269" y="-167" type="curve" smooth="yes"/>
      <point x="238" y="-167"/>
      <point x="221" y="-143"/>
      <point x="207" y="-106" type="curve" smooth="yes"/>
      <point x="181" y="-40"/>
      <point x="155" y="-12"/>
      <point x="93" y="4" type="curve"/>
      <point x="93" y="2" type="line"/>
      <point x="136" y="-12"/>
      <point x="151" y="-37"/>
      <point x="165" y="-108" type="curve" smooth="yes"/>
      <point x="177" y="-162"/>
      <point x="190" y="-242"/>
    </contour>
    <component base="s"/>
  </outline>
</glyph>
<glyph name="uni0252" format="2">
  <advance width="487"/>
  <unicode hex="0252"/>
  <anchor x="243" y="0" name="bottom"/>
  <anchor x="243" y="536" name="top"/>
  <outline>
    <contour>
      <point x="315" y="-10" type="curve" smooth="yes"/>
      <point x="405" y="-10"/>
      <point x="461" y="79"/>
      <point x="461" y="269" type="curve" smooth="yes"/>
      <point x="461" y="461"/>
      <point x="404" y="547"/>
      <point x="313" y="547" type="curve" smooth="yes"/>
      <point x="242" y="547"/>
      <point x="207" y="515"/>
      <point x="198" y="433" type="curve"/>
      <point x="196" y="433" type="line"/>
      <point x="180" y="536"/>
      <point x="136" y="547"/>
      <point x="74" y="547" type="curve" smooth="yes"/>
      <point x="51" y="547"/>
      <point x="29" y="542"/>
      <point x="11" y="535" type="curve"/>
      <point x="11" y="525" type="line"/>
      <point x="23" y="529"/>
      <point x="32" y="529"/>
      <point x="39" y="529" type="curve" smooth="yes"/>
      <point x="66" y="529"/>
      <point x="69" y="513"/>
      <point x="69" y="464" type="curve" smooth="yes"/>
      <point x="69" y="1" type="line"/>
      <point x="179" y="1" type="line"/>
      <point x="203" y="72" type="line"/>
      <point x="205" y="72" type="line"/>
      <point x="217" y="21"/>
      <point x="235" y="-10"/>
    </contour>
    <contour>
      <point x="257" y="11" type="curve" smooth="yes"/>
      <point x="226" y="11"/>
      <point x="218" y="56"/>
      <point x="211" y="260" type="curve" smooth="yes"/>
      <point x="211" y="470"/>
      <point x="225" y="526"/>
      <point x="269" y="526" type="curve" smooth="yes"/>
      <point x="306" y="526"/>
      <point x="318" y="458"/>
      <point x="318" y="274" type="curve" smooth="yes"/>
      <point x="318" y="80"/>
      <point x="301" y="11"/>
    </contour>
  </outline>
</glyph>
<glyph name="uni0257" format="2">
  <advance width="488"/>
  <unicode hex="0257"/>
  <anchor x="245" y="0" name="bottom"/>
  <anchor x="245" y="766" name="top"/>
  <outline>
    <contour>
      <point x="182" y="-10" type="curve" smooth="yes"/>
      <point x="253" y="-10"/>
      <point x="269" y="18"/>
      <point x="276" y="57" type="curve"/>
      <point x="278" y="57" type="line"/>
      <point x="278" y="0" type="line"/>
      <point x="479" y="0" type="line"/>
      <point x="479" y="10" type="line"/>
      <point x="471" y="10" type="line" smooth="yes"/>
      <point x="425" y="10"/>
      <point x="419" y="32"/>
      <point x="419" y="96" type="curve" smooth="yes"/>
      <point x="419" y="648" type="line" smooth="yes"/>
      <point x="419" y="730"/>
      <point x="427" y="756"/>
      <point x="448" y="756" type="curve" smooth="yes"/>
      <point x="467" y="756"/>
      <point x="473" y="723"/>
      <point x="473" y="618" type="curve"/>
      <point x="550" y="618"/>
      <point x="566" y="647"/>
      <point x="566" y="683" type="curve" smooth="yes"/>
      <point x="566" y="722"/>
      <point x="547" y="766"/>
      <point x="439" y="766" type="curve" smooth="yes"/>
      <point x="320" y="766"/>
      <point x="277" y="699"/>
      <point x="277" y="570" type="curve" smooth="yes"/>
      <point x="277" y="578" type="line" smooth="yes"/>
      <point x="277" y="541"/>
      <point x="277" y="523"/>
      <point x="278" y="473" type="curve"/>
      <point x="276" y="473" type="line"/>
      <point x="267" y="526"/>
      <point x="244" y="547"/>
      <point x="182" y="547" type="curve" smooth="yes"/>
      <point x="86" y="547"/>
      <point x="27" y="464"/>
      <point x="27" y="264" type="curve" smooth="yes"/>
      <point x="27" y="68"/>
      <point x="86" y="-10"/>
    </contour>
    <contour>
      <point x="221" y="9" type="curve" smooth="yes"/>
      <point x="179" y="9"/>
      <point x="170" y="45"/>
      <point x="170" y="258" type="curve" smooth="yes"/>
      <point x="170" y="485"/>
      <point x="178" y="530"/>
      <point x="222" y="530" type="curve" smooth="yes"/>
      <point x="274" y="530"/>
      <point x="277" y="438"/>
      <point x="277" y="261" type="curve" smooth="yes"/>
      <point x="277" y="90"/>
      <point x="276" y="9"/>
    </contour>
  </outline>
</glyph>
<glyph name="schwahook" format="2">
  <advance width="657"/>
  <unicode hex="025A"/>
  <anchor x="324" y="0" name="bottom"/>
  <anchor x="324" y="536" name="top"/>
  <outline>
    <contour>
      <point x="212" y="-10" type="curve" smooth="yes"/>
      <point x="336" y="-10"/>
      <point x="406" y="87"/>
      <point x="406" y="275" type="curve" smooth="yes"/>
      <point x="406" y="303"/>
      <point x="405" y="330"/>
      <point x="402" y="354" type="curve"/>
      <point x="450" y="376" type="line"/>
      <point x="490" y="246" type="line" smooth="yes"/>
      <point x="510" y="185"/>
      <point x="531" y="157"/>
      <point x="568" y="157" type="curve" smooth="yes"/>
      <point x="604" y="157"/>
      <point x="657" y="181"/>
      <point x="657" y="223" type="curve" smooth="yes"/>
      <point x="657" y="240"/>
      <point x="648" y="261"/>
      <point x="635" y="269" type="curve"/>
      <point x="619" y="246"/>
      <point x="569" y="228"/>
      <point x="540" y="228" type="curve" smooth="yes"/>
      <point x="512" y="228"/>
      <point x="503" y="243"/>
      <point x="492" y="274" type="curve" smooth="yes"/>
      <point x="453" y="386" type="line"/>
      <point x="400" y="364" type="line"/>
      <point x="381" y="483"/>
      <point x="318" y="549"/>
      <point x="206" y="549" type="curve" smooth="yes"/>
      <point x="73" y="549"/>
      <point x="43" y="476"/>
      <point x="43" y="433" type="curve" smooth="yes"/>
      <point x="43" y="416"/>
      <point x="56" y="400"/>
      <point x="67" y="395" type="curve"/>
      <point x="81" y="515"/>
      <point x="126" y="535"/>
      <point x="170" y="535" type="curve" smooth="yes"/>
      <point x="231" y="535"/>
      <point x="261" y="483"/>
      <point x="266" y="314" type="curve"/>
      <point x="29" y="226" type="line"/>
      <point x="29" y="229" type="line" smooth="yes"/>
      <point x="29" y="75"/>
      <point x="99" y="-10"/>
    </contour>
    <contour>
      <point x="213" y="0" type="curve" smooth="yes"/>
      <point x="175" y="0"/>
      <point x="169" y="42"/>
      <point x="169" y="268" type="curve"/>
      <point x="266" y="304" type="line"/>
      <point x="267" y="287"/>
      <point x="266" y="269"/>
      <point x="266" y="249" type="curve" smooth="yes"/>
      <point x="266" y="50"/>
      <point x="249" y="0"/>
    </contour>
  </outline>
</glyph>
<glyph name="uni025F" format="2">
  <advance width="273"/>
  <unicode hex="025F"/>
  <anchor x="137" y="-240" name="bottom"/>
  <anchor x="137" y="536" name="top"/>
  <outline>
    <contour>
      <point x="-19" y="-240" type="line"/>
      <point x="-3" y="-240" type="line" smooth="yes"/>
      <point x="122" y="-240"/>
      <point x="211" y="-187"/>
      <point x="211" y="-8" type="curve" smooth="yes"/>
      <point x="211" y="258" type="line"/>
      <point x="272" y="258" type="line"/>
      <point x="272" y="268" type="line"/>
      <point x="211" y="268" type="line"/>
      <point x="211" y="536" type="line"/>
      <point x="10" y="536" type="line"/>
      <point x="10" y="526" type="line"/>
      <point x="12" y="526" type="line" smooth="yes"/>
      <point x="42" y="526"/>
      <point x="67" y="517"/>
      <point x="67" y="459" type="curve" smooth="yes"/>
      <point x="67" y="268" type="line"/>
      <point x="1" y="268" type="line"/>
      <point x="1" y="258" type="line"/>
      <point x="67" y="258" type="line"/>
      <point x="67" y="-51" type="line" smooth="yes"/>
      <point x="67" y="-189"/>
      <point x="40" y="-230"/>
      <point x="-14" y="-230" type="curve" smooth="yes"/>
      <point x="-19" y="-230" type="line"/>
    </contour>
  </outline>
</glyph>
<glyph name="uni0265" format="2">
  <advance width="499"/>
  <unicode hex="0265"/>
  <anchor x="249" y="-229" name="bottom"/>
  <anchor x="249" y="536" name="top"/>
  <outline>
    <contour>
      <point x="283" y="-224" type="line"/>
      <point x="483" y="-224" type="line"/>
      <point x="483" y="-214" type="line"/>
      <point x="472" y="-214" type="line" smooth="yes"/>
      <point x="435" y="-214"/>
      <point x="426" y="-195"/>
      <point x="426" y="-149" type="curve" smooth="yes"/>
      <point x="426" y="457" type="line" smooth="yes"/>
      <point x="426" y="505"/>
      <point x="434" y="526"/>
      <point x="475" y="526" type="curve" smooth="yes"/>
      <point x="478" y="526" type="line"/>
      <point x="478" y="536" type="line"/>
      <point x="236" y="536" type="line"/>
      <point x="236" y="526" type="line"/>
      <point x="238" y="526" type="line"/>
      <point x="276" y="526"/>
      <point x="285" y="506"/>
      <point x="285" y="460" type="curve" smooth="yes"/>
      <point x="285" y="177" type="line" smooth="yes"/>
      <point x="285" y="55"/>
      <point x="256" y="17"/>
      <point x="229" y="17" type="curve" smooth="yes"/>
      <point x="207" y="17"/>
      <point x="198" y="45"/>
      <point x="198" y="160" type="curve" smooth="yes"/>
      <point x="198" y="536" type="line"/>
      <point x="13" y="536" type="line"/>
      <point x="13" y="526" type="line"/>
      <point x="15" y="526" type="line" smooth="yes"/>
      <point x="47" y="526"/>
      <point x="57" y="504"/>
      <point x="57" y="456" type="curve" smooth="yes"/>
      <point x="57" y="181" type="line" smooth="yes"/>
      <point x="57" y="45"/>
      <point x="97" y="-13"/>
      <point x="174" y="-13" type="curve" smooth="yes"/>
      <point x="237" y="-13"/>
      <point x="269" y="21"/>
      <point x="283" y="67" type="curve"/>
      <point x="285" y="67" type="line"/>
      <point x="283" y="50"/>
      <point x="283" y="27"/>
      <point x="283" y="10" type="curve" smooth="yes"/>
    </contour>
  </outline>
</glyph>
<glyph name="uni027E" format="2">
  <advance width="418"/>
  <unicode hex="027E"/>
  <anchor x="210" y="0" name="bottom"/>
  <anchor x="210" y="536" name="top"/>
  <outline>
    <contour>
      <point x="2" y="0" type="line"/>
      <point x="267" y="0" type="line"/>
      <point x="267" y="10" type="line"/>
      <point x="242" y="10" type="line" smooth="yes"/>
      <point x="204" y="10"/>
      <point x="198" y="30"/>
      <point x="198" y="80" type="curve" smooth="yes"/>
      <point x="198" y="425" type="line" smooth="yes"/>
      <point x="198" y="513"/>
      <point x="210" y="539"/>
      <point x="244" y="539" type="curve" smooth="yes"/>
      <point x="276" y="539"/>
      <point x="285" y="495"/>
      <point x="285" y="356" type="curve"/>
      <point x="350" y="356"/>
      <point x="395" y="373"/>
      <point x="395" y="437" type="curve" smooth="yes"/>
      <point x="395" y="492"/>
      <point x="361" y="549"/>
      <point x="246" y="549" type="curve" smooth="yes"/>
      <point x="123" y="549"/>
      <point x="56" y="490"/>
      <point x="56" y="329" type="curve" smooth="yes"/>
      <point x="56" y="84" type="line" smooth="yes"/>
      <point x="56" y="29"/>
      <point x="47" y="10"/>
      <point x="11" y="10" type="curve" smooth="yes"/>
      <point x="2" y="10" type="line"/>
    </contour>
  </outline>
</glyph>
<glyph name="uni029D" format="2">
  <advance width="275"/>
  <unicode hex="029D"/>
  <anchor x="137" y="-240" name="bottom"/>
  <anchor x="137" y="767" name="top"/>
  <outline>
    <contour>
      <point x="41" y="-240" type="curve" smooth="yes"/>
      <point x="152" y="-240"/>
      <point x="209" y="-182"/>
      <point x="211" y="-29" type="curve"/>
      <point x="299" y="-29" type="line"/>
      <point x="299" y="-19" type="line"/>
      <point x="211" y="-19" type="line"/>
      <point x="211" y="536" type="line"/>
      <point x="10" y="536" type="line"/>
      <point x="10" y="526" type="line"/>
      <point x="12" y="526" type="line" smooth="yes"/>
      <point x="42" y="526"/>
      <point x="67" y="517"/>
      <point x="67" y="459" type="curve" smooth="yes"/>
      <point x="67" y="-19" type="line"/>
      <point x="39" y="-19" type="line" smooth="yes"/>
      <point x="-26" y="-19"/>
      <point x="-65" y="-60"/>
      <point x="-65" y="-128" type="curve" smooth="yes"/>
      <point x="-65" y="-200"/>
      <point x="-20" y="-240"/>
    </contour>
    <contour>
      <point x="22" y="-220" type="curve" smooth="yes"/>
      <point x="-21" y="-220"/>
      <point x="-53" y="-183"/>
      <point x="-53" y="-127" type="curve" smooth="yes"/>
      <point x="-53" y="-66"/>
      <point x="-21" y="-29"/>
      <point x="38" y="-29" type="curve" smooth="yes"/>
      <point x="67" y="-29" type="line"/>
      <point x="67" y="-82" type="line" smooth="yes"/>
      <point x="67" y="-179"/>
      <point x="64" y="-220"/>
    </contour>
    <contour>
      <point x="136" y="629" type="curve" smooth="yes"/>
      <point x="172" y="629"/>
      <point x="205" y="650"/>
      <point x="205" y="698" type="curve" smooth="yes"/>
      <point x="205" y="747"/>
      <point x="172" y="767"/>
      <point x="136" y="767" type="curve" smooth="yes"/>
      <point x="99" y="767"/>
      <point x="69" y="747"/>
      <point x="69" y="698" type="curve" smooth="yes"/>
      <point x="69" y="650"/>
      <point x="99" y="629"/>
    </contour>
  </outline>
</glyph>
<glyph name="uni02A4" format="2">
  <advance width="751"/>
  <unicode hex="02A4"/>
  <anchor x="376" y="-240" name="bottom"/>
  <anchor x="376" y="760" name="top"/>
  <outline>
    <contour>
      <point x="499" y="-240" type="curve" smooth="yes"/>
      <point x="649" y="-240"/>
      <point x="728" y="-149"/>
      <point x="728" y="7" type="curve" smooth="yes"/>
      <point x="728" y="154"/>
      <point x="625" y="231"/>
      <point x="456" y="231" type="curve"/>
      <point x="714" y="473" type="line"/>
      <point x="714" y="536" type="line"/>
      <point x="419" y="536" type="line"/>
      <point x="419" y="760" type="line"/>
      <point x="213" y="760" type="line"/>
      <point x="213" y="750" type="line"/>
      <point x="217" y="750" type="line" smooth="yes"/>
      <point x="249" y="750"/>
      <point x="277" y="746"/>
      <point x="277" y="692" type="curve" smooth="yes"/>
      <point x="277" y="581" type="line" smooth="yes"/>
      <point x="277" y="544"/>
      <point x="277" y="523"/>
      <point x="278" y="473" type="curve"/>
      <point x="276" y="473" type="line"/>
      <point x="267" y="526"/>
      <point x="244" y="547"/>
      <point x="182" y="547" type="curve" smooth="yes"/>
      <point x="86" y="547"/>
      <point x="27" y="464"/>
      <point x="27" y="264" type="curve" smooth="yes"/>
      <point x="27" y="68"/>
      <point x="86" y="-10"/>
      <point x="182" y="-10" type="curve" smooth="yes"/>
      <point x="253" y="-10"/>
      <point x="269" y="18"/>
      <point x="276" y="57" type="curve"/>
      <point x="278" y="57" type="line"/>
      <point x="278" y="0" type="line"/>
      <point x="479" y="0" type="line"/>
      <point x="479" y="10" type="line"/>
      <point x="471" y="10" type="line" smooth="yes"/>
      <point x="425" y="10"/>
      <point x="419" y="32"/>
      <point x="419" y="96" type="curve" smooth="yes"/>
      <point x="419" y="434" type="line"/>
      <point x="655" y="434" type="line"/>
      <point x="443" y="231" type="line"/>
      <point x="443" y="221" type="line"/>
      <point x="458" y="221" type="line" smooth="yes"/>
      <point x="549" y="221"/>
      <point x="587" y="159"/>
      <point x="587" y="7" type="curve" smooth="yes"/>
      <point x="587" y="-174"/>
      <point x="567" y="-230"/>
      <point x="510" y="-230" type="curve" smooth="yes"/>
      <point x="451" y="-230"/>
      <point x="433" y="-185"/>
      <point x="433" y="-45" type="curve"/>
      <point x="384" y="-45"/>
      <point x="347" y="-77"/>
      <point x="347" y="-130" type="curve" smooth="yes"/>
      <point x="347" y="-194"/>
      <point x="412" y="-240"/>
    </contour>
    <contour>
      <point x="221" y="9" type="curve" smooth="yes"/>
      <point x="179" y="9"/>
      <point x="170" y="45"/>
      <point x="170" y="258" type="curve" smooth="yes"/>
      <point x="170" y="485"/>
      <point x="178" y="530"/>
      <point x="222" y="530" type="curve" smooth="yes"/>
      <point x="274" y="530"/>
      <point x="277" y="438"/>
      <point x="277" y="261" type="curve" smooth="yes"/>
      <point x="277" y="90"/>
      <point x="276" y="9"/>
    </contour>
  </outline>
</glyph>
<glyph name="uni02BA" format="2">
  <advance width="269"/>
  <unicode hex="02BA"/>
  <outline>
    <contour>
      <point x="14" y="456" type="curve"/>
      <point x="29" y="456" type="line"/>
      <point x="62" y="529"/>
      <point x="105" y="633"/>
      <point x="132" y="705" type="curve"/>
      <point x="125" y="714" type="line"/>
      <point x="43" y="714" type="line"/>
      <point x="37" y="644"/>
      <point x="25" y="546"/>
    </contour>
    <contour>
      <point x="137" y="456" type="curve"/>
      <point x="152" y="456" type="line"/>
      <point x="185" y="529"/>
      <point x="228" y="633"/>
      <point x="255" y="705" type="curve"/>
      <point x="248" y="714" type="line"/>
      <point x="166" y="714" type="line"/>
      <point x="160" y="644"/>
      <point x="148" y="546"/>
    </contour>
  </outline>
</glyph>
<glyph name="uni02BE" format="2">
  <advance width="155"/>
  <unicode hex="02BE"/>
  <outline>
    <contour>
      <point x="30" y="559" type="line"/>
      <point x="90" y="559"/>
      <point x="125" y="603"/>
      <point x="125" y="667" type="curve" smooth="yes"/>
      <point x="125" y="725"/>
      <point x="90" y="765"/>
      <point x="30" y="765" type="curve"/>
      <point x="30" y="755" type="line"/>
      <point x="90" y="755"/>
      <point x="113" y="715"/>
      <point x="113" y="667" type="curve" smooth="yes"/>
      <point x="113" y="613"/>
      <point x="90" y="569"/>
      <point x="30" y="569" type="curve"/>
    </contour>
  </outline>
</glyph>
<glyph name="uni02C0" format="2">
  <advance width="259"/>
  <unicode hex="02C0"/>
  <outline>
    <contour>
      <point x="111" y="482" type="line"/>
      <point x="121" y="482" type="line"/>
      <point x="121" y="543" type="line"/>
      <point x="193" y="560"/>
      <point x="235" y="587"/>
      <point x="235" y="659" type="curve" smooth="yes"/>
      <point x="235" y="722"/>
      <point x="195" y="760"/>
      <point x="119" y="760" type="curve" smooth="yes"/>
      <point x="60" y="760"/>
      <point x="17" y="728"/>
      <point x="17" y="687" type="curve" smooth="yes"/>
      <point x="17" y="654"/>
      <point x="41" y="640"/>
      <point x="79" y="640" type="curve"/>
      <point x="79" y="715"/>
      <point x="91" y="750"/>
      <point x="114" y="750" type="curve" smooth="yes"/>
      <point x="140" y="750"/>
      <point x="147" y="729"/>
      <point x="147" y="644" type="curve" smooth="yes"/>
      <point x="147" y="587"/>
      <point x="135" y="564"/>
      <point x="111" y="547" type="curve"/>
    </contour>
  </outline>
</glyph>
<glyph name="uni02C5" format="2">
  <advance width="224"/>
  <unicode hex="02C5"/>
  <outline>
    <contour>
      <point x="96" y="572" type="curve"/>
      <point x="126" y="572" type="line"/>
      <point x="147" y="635"/>
      <point x="180" y="711"/>
      <point x="223" y="778" type="curve"/>
      <point x="223" y="784" type="line"/>
      <point x="210" y="784" type="line"/>
      <point x="167" y="743"/>
      <point x="139" y="706"/>
      <point x="111" y="652" type="curve"/>
      <point x="83" y="706"/>
      <point x="56" y="743"/>
      <point x="14" y="784" type="curve"/>
      <point x="2" y="784" type="line"/>
      <point x="2" y="778" type="line"/>
      <point x="44" y="711"/>
      <point x="76" y="635"/>
    </contour>
  </outline>
</glyph>
<glyph name="circumflex" format="2">
  <advance width="372"/>
  <unicode hex="02C6"/>
  <outline>
    <contour>
      <point x="40" y="606" type="line"/>
      <point x="50" y="606" type="line"/>
      <point x="77" y="627"/>
      <point x="135" y="667"/>
      <point x="185" y="708" type="curve"/>
      <point x="236" y="667"/>
      <point x="295" y="627"/>
      <point x="322" y="606" type="curve"/>
      <point x="332" y="606" type="line"/>
      <point x="332" y="616" type="line"/>
      <point x="306" y="654"/>
      <point x="256" y="721"/>
      <point x="224" y="766" type="curve"/>
      <point x="149" y="766" type="line"/>
      <point x="117" y="721"/>
      <point x="66" y="654"/>
      <point x="40" y="616" type="curve"/>
    </contour>
  </outline>
</glyph>
<glyph name="ring" format="2">
  <advance width="240"/>
  <unicode hex="02DA"/>
  <outline>
    <contour>
      <point x="119" y="596" type="curve" smooth="yes"/>
      <point x="176" y="596"/>
      <point x="221" y="634"/>
      <point x="221" y="705" type="curve" smooth="yes"/>
      <point x="221" y="776"/>
      <point x="176" y="814"/>
      <point x="119" y="814" type="curve" smooth="yes"/>
      <point x="62" y="814"/>
      <point x="18" y="776"/>
      <point x="18" y="705" type="curve" smooth="yes"/>
      <point x="18" y="634"/>
      <point x="62" y="596"/>
    </contour>
    <contour>
      <point x="119" y="606" type="curve" smooth="yes"/>
      <point x="65" y="606"/>
      <point x="30" y="639"/>
      <point x="30" y="705" type="curve" smooth="yes"/>
      <point x="30" y="771"/>
      <point x="65" y="804"/>
      <point x="119" y="804" type="curve" smooth="yes"/>
      <point x="173" y="804"/>
      <point x="209" y="771"/>
      <point x="209" y="705" type="curve" smooth="yes"/>
      <point x="209" y="639"/>
      <point x="173" y="606"/>
    </contour>
  </outline>
</glyph>
<glyph name="uni02EC" format="2">
  <advance width="352"/>
  <unicode hex="02EC"/>
  <outline>
    <contour>
      <point x="142" y="-236" type="curve"/>
      <point x="210" y="-236" type="line"/>
      <point x="241" y="-191"/>
      <point x="288" y="-126"/>
      <point x="312" y="-88" type="curve"/>
      <point x="312" y="-76" type="line"/>
      <point x="299" y="-76" type="line"/>
      <point x="273" y="-97"/>
      <point x="224" y="-137"/>
      <point x="175" y="-178" type="curve"/>
      <point x="128" y="-137"/>
      <point x="79" y="-97"/>
      <point x="53" y="-76" type="curve"/>
      <point x="40" y="-76" type="line"/>
      <point x="40" y="-88" type="line"/>
      <point x="65" y="-126"/>
      <point x="112" y="-191"/>
    </contour>
  </outline>
</glyph>
<glyph name="uni02F3" format="2">
  <advance width="241"/>
  <unicode hex="02F3"/>
  <outline>
    <contour>
      <point x="121" y="-273" type="curve" smooth="yes"/>
      <point x="171" y="-273"/>
      <point x="219" y="-239"/>
      <point x="219" y="-169" type="curve" smooth="yes"/>
      <point x="219" y="-98"/>
      <point x="171" y="-64"/>
      <point x="121" y="-64" type="curve" smooth="yes"/>
      <point x="72" y="-64"/>
      <point x="24" y="-98"/>
      <point x="24" y="-169" type="curve" smooth="yes"/>
      <point x="24" y="-239"/>
      <point x="72" y="-273"/>
    </contour>
    <contour>
      <point x="122" y="-263" type="curve" smooth="yes"/>
      <point x="72" y="-263"/>
      <point x="36" y="-235"/>
      <point x="36" y="-169" type="curve" smooth="yes"/>
      <point x="36" y="-103"/>
      <point x="72" y="-74"/>
      <point x="122" y="-74" type="curve" smooth="yes"/>
      <point x="171" y="-74"/>
      <point x="207" y="-103"/>
      <point x="207" y="-169" type="curve" smooth="yes"/>
      <point x="207" y="-235"/>
      <point x="171" y="-263"/>
    </contour>
  </outline>
</glyph>
<glyph name="uni02F8" format="2">
  <advance width="231"/>
  <unicode hex="02F8"/>
  <outline>
    <contour>
      <point x="116" y="600" type="curve" smooth="yes"/>
      <point x="148" y="600"/>
      <point x="175" y="620"/>
      <point x="175" y="679" type="curve" smooth="yes"/>
      <point x="175" y="742"/>
      <point x="148" y="760"/>
      <point x="116" y="760" type="curve" smooth="yes"/>
      <point x="82" y="760"/>
      <point x="55" y="742"/>
      <point x="55" y="679" type="curve" smooth="yes"/>
      <point x="55" y="620"/>
      <point x="82" y="600"/>
    </contour>
    <contour>
      <point x="116" y="202" type="curve" smooth="yes"/>
      <point x="148" y="202"/>
      <point x="175" y="222"/>
      <point x="175" y="281" type="curve" smooth="yes"/>
      <point x="175" y="342"/>
      <point x="148" y="361"/>
      <point x="116" y="361" type="curve" smooth="yes"/>
      <point x="82" y="361"/>
      <point x="55" y="342"/>
      <point x="55" y="281" type="curve" smooth="yes"/>
      <point x="55" y="222"/>
      <point x="82" y="202"/>
    </contour>
  </outline>
</glyph>
<glyph name="uni02FB" format="2">
  <advance width="179"/>
  <unicode hex="02FB"/>
  <outline>
    <contour>
      <point x="40" y="0" type="line"/>
      <point x="139" y="0" type="line"/>
      <point x="139" y="20" type="line"/>
      <point x="60" y="20" type="line"/>
      <point x="60" y="266" type="line"/>
      <point x="40" y="266" type="line"/>
    </contour>
  </outline>
</glyph>
<glyph name="ringhalfleftbelowcomb" format="2">
  <unicode hex="031C"/>
  <anchor x="0" y="0" name="_bottom"/>
  <anchor x="0" y="-240" name="bottom"/>
  <outline>
    <contour>
      <point x="43" y="-240" type="curve"/>
      <point x="43" y="-230" type="line"/>
      <point x="-4" y="-230"/>
      <point x="-31" y="-192"/>
      <point x="-31" y="-131" type="curve" smooth="yes"/>
      <point x="-31" y="-70"/>
      <point x="-4" y="-32"/>
      <point x="43" y="-32" type="curve"/>
      <point x="43" y="-22" type="line"/>
      <point x="-11" y="-22"/>
      <point x="-43" y="-63"/>
      <point x="-43" y="-131" type="curve" smooth="yes"/>
      <point x="-43" y="-199"/>
      <point x="-11" y="-240"/>
    </contour>
  </outline>
</glyph>
<glyph name="minusbelowcomb" format="2">
  <unicode hex="0320"/>
  <anchor x="-2" y="0" name="_bottom"/>
  <anchor x="-2" y="-161" name="bottom"/>
  <outline>
    <contour>
      <point x="-106" y="-140" type="line"/>
      <point x="106" y="-140" type="line"/>
      <point x="106" y="-120" type="line"/>
      <point x="-106" y="-120" type="line"/>
    </contour>
  </outline>
</glyph>
<glyph name="ringbelowcomb" format="2">
  <unicode hex="0325"/>
  <anchor x="1" y="0" name="_bottom"/>
  <anchor x="1" y="-178" name="bottom"/>
  <outline>
    <contour>
      <point x="0" y="-178" type="curve" smooth="yes"/>
      <point x="57" y="-178"/>
      <point x="94" y="-161"/>
      <point x="94" y="-131" type="curve" smooth="yes"/>
      <point x="94" y="-103"/>
      <point x="57" y="-86"/>
      <point x="0" y="-86" type="curve" smooth="yes"/>
      <point x="-58" y="-86"/>
      <point x="-93" y="-103"/>
      <point x="-93" y="-131" type="curve" smooth="yes"/>
      <point x="-93" y="-161"/>
      <point x="-58" y="-178"/>
    </contour>
    <contour>
      <point x="-1" y="-168" type="curve" smooth="yes"/>
      <point x="-50" y="-168"/>
      <point x="-81" y="-153"/>
      <point x="-81" y="-131" type="curve" smooth="yes"/>
      <point x="-81" y="-109"/>
      <point x="-50" y="-96"/>
      <point x="-1" y="-96" type="curve" smooth="yes"/>
      <point x="50" y="-96"/>
      <point x="82" y="-109"/>
      <point x="82" y="-131" type="curve" smooth="yes"/>
      <point x="82" y="-153"/>
      <point x="50" y="-168"/>
    </contour>
  </outline>
</glyph>
<glyph name="slashlongoverlaycomb" format="2">
  <unicode hex="0338"/>
  <anchor x="-8" y="344" name="_center"/>
  <outline>
    <contour>
      <point x="-118" y="-52" type="line"/>
      <point x="124" y="776" type="line"/>
      <point x="115" y="778" type="line"/>
      <point x="-127" y="-50" type="line"/>
    </contour>
  </outline>
</glyph>
<glyph name="ringhalfrightbelowcomb" format="2">
  <unicode hex="0339"/>
  <anchor x="0" y="0" name="_bottom"/>
  <anchor x="0" y="-240" name="bottom"/>
  <outline>
    <contour>
      <point x="-43" y="-240" type="line"/>
      <point x="15" y="-240"/>
      <point x="43" y="-197"/>
      <point x="43" y="-131" type="curve" smooth="yes"/>
      <point x="43" y="-65"/>
      <point x="15" y="-22"/>
      <point x="-43" y="-22" type="curve" smooth="yes"/>
      <point x="-43" y="-32" type="line"/>
      <point x="4" y="-32"/>
      <point x="31" y="-70"/>
      <point x="31" y="-131" type="curve" smooth="yes"/>
      <point x="31" y="-192"/>
      <point x="4" y="-230"/>
      <point x="-43" y="-230" type="curve"/>
    </contour>
  </outline>
</glyph>
<glyph name="nottildeabovecomb" format="2">
  <unicode hex="034A"/>
  <anchor x="3" y="536" name="_top"/>
  <anchor x="3" y="799" name="top"/>
  <outline>
    <contour>
      <point x="-47" y="580" type="line"/>
      <point x="-17" y="641" type="line"/>
      <point x="7" y="622"/>
      <point x="29" y="601"/>
      <point x="58" y="601" type="curve" smooth="yes"/>
      <point x="104" y="601"/>
      <point x="160" y="663"/>
      <point x="159" y="739" type="curve"/>
      <point x="151" y="739" type="line"/>
      <point x="150" y="717"/>
      <point x="143" y="676"/>
      <point x="96" y="676" type="curve" smooth="yes"/>
      <point x="65" y="676"/>
      <point x="42" y="694"/>
      <point x="20" y="712" type="curve"/>
      <point x="52" y="771" type="line"/>
      <point x="43" y="777" type="line"/>
      <point x="13" y="719" type="line"/>
      <point x="-7" y="736"/>
      <point x="-28" y="754"/>
      <point x="-56" y="754" type="curve" smooth="yes"/>
      <point x="-106" y="754"/>
      <point x="-158" y="687"/>
      <point x="-157" y="616" type="curve"/>
      <point x="-148" y="616" type="line"/>
      <point x="-146" y="642"/>
      <point x="-139" y="679"/>
      <point x="-93" y="679" type="curve" smooth="yes"/>
      <point x="-65" y="679"/>
      <point x="-44" y="664"/>
      <point x="-25" y="648" type="curve"/>
      <point x="-56" y="586" type="line"/>
    </contour>
  </outline>
</glyph>
<glyph name="tildedoublecomb" format="2">
  <unicode hex="0360"/>
  <anchor x="-2" y="536" name="_top"/>
  <anchor x="-2" y="692" name="top"/>
  <outline>
    <contour>
      <point x="-334" y="621" type="curve"/>
      <point x="-325" y="621" type="line"/>
      <point x="-307" y="675"/>
      <point x="-257" y="682"/>
      <point x="-186" y="682" type="curve" smooth="yes"/>
      <point x="-71" y="682"/>
      <point x="82" y="620"/>
      <point x="158" y="620" type="curve" smooth="yes"/>
      <point x="278" y="620"/>
      <point x="313" y="664"/>
      <point x="334" y="761" type="curve"/>
      <point x="325" y="761" type="line"/>
      <point x="314" y="712"/>
      <point x="260" y="701"/>
      <point x="180" y="701" type="curve" smooth="yes"/>
      <point x="74" y="701"/>
      <point x="-94" y="762"/>
      <point x="-165" y="762" type="curve" smooth="yes"/>
      <point x="-277" y="762"/>
      <point x="-312" y="713"/>
    </contour>
  </outline>
</glyph>
<glyph name="breveinverteddoublecomb" format="2">
  <unicode hex="0361"/>
  <anchor x="-226" y="613" name="_top"/>
  <anchor x="-1" y="831" name="top"/>
  <outline>
    <contour>
      <point x="-307" y="650" type="curve"/>
      <point x="-297" y="650" type="line"/>
      <point x="-247" y="717"/>
      <point x="-177" y="760"/>
      <point x="-3" y="760" type="curve" smooth="yes"/>
      <point x="175" y="760"/>
      <point x="247" y="717"/>
      <point x="296" y="650" type="curve"/>
      <point x="306" y="650" type="line"/>
      <point x="248" y="776"/>
      <point x="148" y="831"/>
      <point x="-1" y="831" type="curve" smooth="yes"/>
      <point x="-149" y="831"/>
      <point x="-248" y="777"/>
    </contour>
  </outline>
</glyph>
<glyph name="uni0374" format="2">
  <advance width="138"/>
  <unicode hex="0374"/>
  <outline>
    <contour>
      <point x="-8" y="523" type="line"/>
      <point x="7" y="523" type="line"/>
      <point x="45" y="570"/>
      <point x="96" y="659"/>
      <point x="111" y="704" type="curve"/>
      <point x="111" y="714" type="line"/>
      <point x="41" y="714" type="line"/>
      <point x="36" y="674"/>
      <point x="12" y="586"/>
      <point x="-8" y="537" type="curve"/>
    </contour>
  </outline>
</glyph>
<glyph name="pamphyliandigamma" format="2">
  <advance width="596"/>
  <unicode hex="0377"/>
  <anchor x="299" y="0" name="bottom"/>
  <anchor x="299" y="536" name="top"/>
  <outline>
    <contour>
      <point x="416" y="-4" type="curve" smooth="yes"/>
      <point x="491" y="-4"/>
      <point x="509" y="44"/>
      <point x="513" y="70" type="curve"/>
      <point x="469" y="70"/>
      <point x="452" y="108"/>
      <point x="452" y="168" type="curve" smooth="yes"/>
      <point x="452" y="318"/>
      <point x="474" y="433"/>
      <point x="500" y="536" type="curve"/>
      <point x="356" y="536" type="line"/>
      <point x="204" y="133" type="line"/>
      <point x="204" y="536" type="line"/>
      <point x="10" y="536" type="line"/>
      <point x="10" y="526" type="line"/>
      <point x="17" y="526" type="line" smooth="yes"/>
      <point x="59" y="526"/>
      <point x="62" y="507"/>
      <point x="62" y="458" type="curve" smooth="yes"/>
      <point x="62" y="0" type="line"/>
      <point x="175" y="0" type="line"/>
      <point x="371" y="522" type="line"/>
      <point x="302" y="298"/>
      <point x="304" y="230"/>
      <point x="304" y="161" type="curve" smooth="yes"/>
      <point x="304" y="39"/>
      <point x="347" y="-4"/>
    </contour>
  </outline>
</glyph>
<glyph name="dieresistonos" format="2">
  <advance width="417"/>
  <unicode hex="0385"/>
  <anchor x="203" y="536" name="_top"/>
  <outline>
    <contour>
      <point x="187" y="683" type="line"/>
      <point x="200" y="683" type="line"/>
      <point x="219" y="717"/>
      <point x="270" y="804"/>
      <point x="273" y="835" type="curve"/>
      <point x="273" y="843" type="line"/>
      <point x="221" y="843" type="line"/>
      <point x="216" y="805"/>
      <point x="198" y="730"/>
      <point x="187" y="698" type="curve"/>
    </contour>
    <contour>
      <point x="106" y="629" type="curve" smooth="yes"/>
      <point x="128" y="629"/>
      <point x="144" y="645"/>
      <point x="144" y="685" type="curve" smooth="yes"/>
      <point x="144" y="725"/>
      <point x="128" y="741"/>
      <point x="106" y="741" type="curve" smooth="yes"/>
      <point x="84" y="741"/>
      <point x="69" y="725"/>
      <point x="69" y="685" type="curve" smooth="yes"/>
      <point x="69" y="645"/>
      <point x="84" y="629"/>
    </contour>
    <contour>
      <point x="299" y="629" type="curve" smooth="yes"/>
      <point x="321" y="629"/>
      <point x="337" y="645"/>
      <point x="337" y="685" type="curve" smooth="yes"/>
      <point x="337" y="725"/>
      <point x="321" y="741"/>
      <point x="299" y="741" type="curve" smooth="yes"/>
      <point x="277" y="741"/>
      <point x="262" y="725"/>
      <point x="262" y="685" type="curve" smooth="yes"/>
      <point x="262" y="645"/>
      <point x="277" y="629"/>
    </contour>
  </outline>
</glyph>
<glyph name="Theta" format="2">
  <advance width="593"/>
  <unicode hex="0398"/>
  <anchor x="297" y="0" name="bottom"/>
  <anchor x="297" y="714" name="top"/>
  <outline>
    <contour>
      <point x="298" y="-10" type="curve" smooth="yes"/>
      <point x="462" y="-10"/>
      <point x="554" y="137"/>
      <point x="554" y="358" type="curve" smooth="yes"/>
      <point x="554" y="580"/>
      <point x="462" y="725"/>
      <point x="299" y="725" type="curve" smooth="yes"/>
      <point x="123" y="725"/>
      <point x="39" y="580"/>
      <point x="39" y="359" type="curve" smooth="yes"/>
      <point x="39" y="137"/>
      <point x="123" y="-10"/>
    </contour>
    <contour>
      <point x="298" y="0" type="curve" smooth="yes"/>
      <point x="216" y="0"/>
      <point x="187" y="93"/>
      <point x="187" y="358" type="curve" smooth="yes"/>
      <point x="187" y="622"/>
      <point x="216" y="715"/>
      <point x="299" y="715" type="curve" smooth="yes"/>
      <point x="378" y="715"/>
      <point x="406" y="622"/>
      <point x="406" y="358" type="curve" smooth="yes"/>
      <point x="406" y="93"/>
      <point x="377" y="0"/>
    </contour>
    <contour>
      <point x="206" y="268" type="line"/>
      <point x="216" y="268" type="line"/>
      <point x="222" y="291" type="line" smooth="yes"/>
      <point x="229" y="311"/>
      <point x="227" y="327"/>
      <point x="259" y="327" type="curve" smooth="yes"/>
      <point x="331" y="327" type="line" smooth="yes"/>
      <point x="365" y="327"/>
      <point x="366" y="309"/>
      <point x="373" y="291" type="curve" smooth="yes"/>
      <point x="378" y="268" type="line"/>
      <point x="388" y="268" type="line"/>
      <point x="388" y="459" type="line"/>
      <point x="378" y="459" type="line"/>
      <point x="373" y="437" type="line" smooth="yes"/>
      <point x="366" y="418"/>
      <point x="363" y="401"/>
      <point x="328" y="401" type="curve" smooth="yes"/>
      <point x="259" y="401" type="line" smooth="yes"/>
      <point x="230" y="401"/>
      <point x="229" y="417"/>
      <point x="222" y="437" type="curve" smooth="yes"/>
      <point x="216" y="459" type="line"/>
      <point x="206" y="459" type="line"/>
    </contour>
  </outline>
</glyph>
<glyph name="sigma" format="2">
  <advance width="488"/>
  <unicode hex="03C3"/>
  <anchor x="245" y="0" name="bottom"/>
  <anchor x="245" y="536" name="top"/>
  <outline>
    <contour>
      <point x="223" y="-10" type="curve" smooth="yes"/>
      <point x="351" y="-10"/>
      <point x="436" y="76"/>
      <point x="436" y="238" type="curve" smooth="yes"/>
      <point x="436" y="348"/>
      <point x="368" y="397"/>
      <point x="309" y="428" type="curve"/>
      <point x="475" y="428" type="line"/>
      <point x="475" y="536" type="line"/>
      <point x="282" y="536" type="line" smooth="yes"/>
      <point x="164" y="536"/>
      <point x="29" y="495"/>
      <point x="29" y="249" type="curve" smooth="yes"/>
      <point x="29" y="87"/>
      <point x="108" y="-10"/>
    </contour>
    <contour>
      <point x="237" y="0" type="curve" smooth="yes"/>
      <point x="186" y="0"/>
      <point x="174" y="52"/>
      <point x="174" y="211" type="curve" smooth="yes"/>
      <point x="174" y="388"/>
      <point x="216" y="428"/>
      <point x="259" y="428" type="curve" smooth="yes"/>
      <point x="272" y="428" type="line"/>
      <point x="295" y="373"/>
      <point x="297" y="295"/>
      <point x="297" y="224" type="curve" smooth="yes"/>
      <point x="297" y="56"/>
      <point x="280" y="0"/>
    </contour>
  </outline>
</glyph>
<glyph name="uni03DD" format="2">
  <advance width="411"/>
  <unicode hex="03DD"/>
  <anchor x="206" y="-240" name="bottom"/>
  <anchor x="206" y="536" name="top"/>
  <outline>
    <contour>
      <point x="66" y="-240" type="line"/>
      <point x="208" y="-240" type="line"/>
      <point x="208" y="214" type="line"/>
      <point x="244" y="214" type="line" smooth="yes"/>
      <point x="312" y="214"/>
      <point x="336" y="184"/>
      <point x="343" y="85" type="curve"/>
      <point x="353" y="85" type="line"/>
      <point x="348" y="224" type="line"/>
      <point x="208" y="224" type="line"/>
      <point x="208" y="526" type="line"/>
      <point x="245" y="526" type="line" smooth="yes"/>
      <point x="340" y="526"/>
      <point x="371" y="498"/>
      <point x="375" y="409" type="curve" smooth="yes"/>
      <point x="377" y="362" type="line"/>
      <point x="387" y="362" type="line"/>
      <point x="382" y="536" type="line"/>
      <point x="17" y="536" type="line"/>
      <point x="17" y="526" type="line"/>
      <point x="4" y="526" type="line" smooth="yes"/>
      <point x="57" y="526"/>
      <point x="66" y="511"/>
      <point x="66" y="458" type="curve" smooth="yes"/>
    </contour>
  </outline>
</glyph>
<glyph name="afii10053" format="2">
  <advance width="513"/>
  <unicode hex="0404"/>
  <anchor x="257" y="0" name="bottom"/>
  <anchor x="257" y="714" name="top"/>
  <outline>
    <contour>
      <point x="312" y="-10" type="curve" smooth="yes"/>
      <point x="450" y="-10"/>
      <point x="482" y="69"/>
      <point x="482" y="117" type="curve" smooth="yes"/>
      <point x="482" y="131"/>
      <point x="482" y="165"/>
      <point x="450" y="175" type="curve"/>
      <point x="451" y="52"/>
      <point x="412" y="0"/>
      <point x="324" y="0" type="curve" smooth="yes"/>
      <point x="231" y="0"/>
      <point x="194" y="72"/>
      <point x="192" y="354" type="curve"/>
      <point x="339" y="354" type="line"/>
      <point x="339" y="364" type="line"/>
      <point x="192" y="364" type="line"/>
      <point x="192" y="615"/>
      <point x="216" y="714"/>
      <point x="294" y="714" type="curve" smooth="yes"/>
      <point x="350" y="714"/>
      <point x="369" y="668"/>
      <point x="369" y="523" type="curve"/>
      <point x="443" y="523"/>
      <point x="481" y="558"/>
      <point x="481" y="605" type="curve" smooth="yes"/>
      <point x="481" y="671"/>
      <point x="415" y="724"/>
      <point x="315" y="724" type="curve" smooth="yes"/>
      <point x="121" y="724"/>
      <point x="39" y="574"/>
      <point x="39" y="356" type="curve" smooth="yes"/>
      <point x="39" y="137"/>
      <point x="129" y="-10"/>
    </contour>
  </outline>
</glyph>
<glyph name="afii10037" format="2">
  <advance width="511"/>
  <unicode hex="0423"/>
  <anchor x="168" y="0" name="bottom"/>
  <anchor x="168" y="714" name="top"/>
  <outline>
    <contour>
      <point x="114" y="0" type="line"/>
      <point x="143" y="0" type="line" smooth="yes"/>
      <point x="228" y="0"/>
      <point x="267" y="32"/>
      <point x="297" y="130" type="curve" smooth="yes"/>
      <point x="458" y="643" type="line" smooth="yes"/>
      <point x="472" y="689"/>
      <point x="485" y="704"/>
      <point x="511" y="704" type="curve" smooth="yes"/>
      <point x="511" y="704" type="line"/>
      <point x="511" y="714" type="line"/>
      <point x="382" y="714" type="line"/>
      <point x="382" y="704" type="line"/>
      <point x="410" y="704" type="line" smooth="yes"/>
      <point x="437" y="704"/>
      <point x="449" y="695"/>
      <point x="449" y="671" type="curve" smooth="yes"/>
      <point x="449" y="657"/>
      <point x="445" y="637"/>
      <point x="436" y="608" type="curve" smooth="yes"/>
      <point x="345" y="322" type="line" smooth="yes"/>
      <point x="338" y="300"/>
      <point x="331" y="274"/>
      <point x="322" y="242" type="curve"/>
      <point x="305" y="296"/>
      <point x="289" y="349"/>
      <point x="272" y="400" type="curve" smooth="yes"/>
      <point x="203" y="633" type="line" smooth="yes"/>
      <point x="197" y="654"/>
      <point x="196" y="668"/>
      <point x="196" y="673" type="curve" smooth="yes"/>
      <point x="196" y="696"/>
      <point x="212" y="704"/>
      <point x="259" y="704" type="curve" smooth="yes"/>
      <point x="282" y="704" type="line"/>
      <point x="282" y="714" type="line"/>
      <point x="0" y="714" type="line"/>
      <point x="0" y="704" type="line"/>
      <point x="7" y="704" type="line" smooth="yes"/>
      <point x="31" y="704"/>
      <point x="44" y="692"/>
      <point x="60" y="649" type="curve" smooth="yes"/>
      <point x="262" y="72" type="line"/>
      <point x="245" y="34"/>
      <point x="215" y="30"/>
      <point x="137" y="30" type="curve" smooth="yes"/>
      <point x="114" y="30" type="line"/>
    </contour>
  </outline>
</glyph>
<glyph name="afii10073" format="2">
  <advance width="412"/>
  <unicode hex="0437"/>
  <anchor x="236" y="0" name="bottom"/>
  <anchor x="202" y="536" name="top"/>
  <outline>
    <contour>
      <point x="178" y="-8" type="curve" smooth="yes"/>
      <point x="311" y="-8"/>
      <point x="392" y="54"/>
      <point x="392" y="152" type="curve" smooth="yes"/>
      <point x="392" y="216"/>
      <point x="359" y="269"/>
      <point x="214" y="278" type="curve"/>
      <point x="214" y="280" type="line"/>
      <point x="343" y="283"/>
      <point x="376" y="346"/>
      <point x="376" y="403" type="curve" smooth="yes"/>
      <point x="376" y="490"/>
      <point x="317" y="547"/>
      <point x="213" y="547" type="curve" smooth="yes"/>
      <point x="93" y="547"/>
      <point x="48" y="491"/>
      <point x="48" y="435" type="curve" smooth="yes"/>
      <point x="48" y="397"/>
      <point x="103" y="367"/>
      <point x="156" y="367" type="curve"/>
      <point x="156" y="495"/>
      <point x="161" y="537"/>
      <point x="196" y="537" type="curve" smooth="yes"/>
      <point x="224" y="537"/>
      <point x="238" y="507"/>
      <point x="238" y="411" type="curve" smooth="yes"/>
      <point x="238" y="317"/>
      <point x="222" y="282"/>
      <point x="179" y="282" type="curve" smooth="yes"/>
      <point x="116" y="282" type="line"/>
      <point x="116" y="272" type="line"/>
      <point x="172" y="272" type="line" smooth="yes"/>
      <point x="228" y="272"/>
      <point x="251" y="240"/>
      <point x="251" y="154" type="curve" smooth="yes"/>
      <point x="251" y="45"/>
      <point x="225" y="0"/>
      <point x="168" y="0" type="curve" smooth="yes"/>
      <point x="116" y="0"/>
      <point x="63" y="48"/>
      <point x="65" y="155" type="curve"/>
      <point x="56" y="150"/>
      <point x="29" y="140"/>
      <point x="29" y="93" type="curve" smooth="yes"/>
      <point x="29" y="46"/>
      <point x="61" y="-8"/>
    </contour>
  </outline>
</glyph>
<glyph name="afii10097" format="2">
  <advance width="473"/>
  <unicode hex="044F"/>
  <anchor x="236" y="0" name="bottom"/>
  <anchor x="236" y="536" name="top"/>
  <outline>
    <contour>
      <point x="-4" y="0" type="line"/>
      <point x="85" y="0"/>
      <point x="145" y="6"/>
      <point x="181" y="92" type="curve" smooth="yes"/>
      <point x="248" y="254" type="line"/>
      <point x="264" y="254" type="line"/>
      <point x="264" y="77" type="line" smooth="yes"/>
      <point x="264" y="25"/>
      <point x="250" y="10"/>
      <point x="226" y="10" type="curve" smooth="yes"/>
      <point x="219" y="10" type="line"/>
      <point x="219" y="0" type="line"/>
      <point x="459" y="0" type="line"/>
      <point x="459" y="10" type="line"/>
      <point x="450" y="10" type="line" smooth="yes"/>
      <point x="418" y="10"/>
      <point x="406" y="25"/>
      <point x="406" y="77" type="curve" smooth="yes"/>
      <point x="406" y="458" type="line" smooth="yes"/>
      <point x="406" y="510"/>
      <point x="415" y="526"/>
      <point x="451" y="526" type="curve" smooth="yes"/>
      <point x="459" y="526" type="line"/>
      <point x="459" y="536" type="line"/>
      <point x="207" y="536" type="line" smooth="yes"/>
      <point x="84" y="536"/>
      <point x="39" y="475"/>
      <point x="39" y="386" type="curve" smooth="yes"/>
      <point x="39" y="302"/>
      <point x="81" y="262"/>
      <point x="120" y="248" type="curve"/>
      <point x="82" y="147" type="line" smooth="yes"/>
      <point x="35" y="41"/>
      <point x="16" y="10"/>
      <point x="-3" y="10" type="curve" smooth="yes"/>
      <point x="-4" y="10" type="line"/>
    </contour>
    <contour>
      <point x="246" y="264" type="line" smooth="yes"/>
      <point x="199" y="264"/>
      <point x="183" y="301"/>
      <point x="183" y="402" type="curve" smooth="yes"/>
      <point x="183" y="492"/>
      <point x="199" y="526"/>
      <point x="246" y="526" type="curve" smooth="yes"/>
      <point x="264" y="526" type="line"/>
      <point x="264" y="264" type="line"/>
    </contour>
  </outline>
</glyph>
<glyph name="uni0463" format="2">
  <advance width="441"/>
  <unicode hex="0463"/>
  <anchor x="220" y="0" name="bottom"/>
  <anchor x="220" y="760" name="top"/>
  <outline>
    <contour>
      <point x="8" y="0" type="line"/>
      <point x="266" y="0" type="line" smooth="yes"/>
      <point x="382" y="0"/>
      <point x="439" y="66"/>
      <point x="439" y="157" type="curve" smooth="yes"/>
      <point x="439" y="281"/>
      <point x="362" y="305"/>
      <point x="272" y="305" type="curve" smooth="yes"/>
      <point x="204" y="305" type="line"/>
      <point x="204" y="482" type="line"/>
      <point x="321" y="482" type="line"/>
      <point x="321" y="492" type="line"/>
      <point x="204" y="492" type="line"/>
      <point x="204" y="760" type="line"/>
      <point x="8" y="760" type="line"/>
      <point x="8" y="750" type="line"/>
      <point x="15" y="750" type="line" smooth="yes"/>
      <point x="52" y="750"/>
      <point x="62" y="732"/>
      <point x="62" y="685" type="curve" smooth="yes"/>
      <point x="62" y="492" type="line"/>
      <point x="4" y="492" type="line"/>
      <point x="4" y="482" type="line"/>
      <point x="62" y="482" type="line"/>
      <point x="62" y="74" type="line" smooth="yes"/>
      <point x="62" y="24"/>
      <point x="53" y="10"/>
      <point x="16" y="10" type="curve" smooth="yes"/>
      <point x="8" y="10" type="line"/>
    </contour>
    <contour>
      <point x="204" y="10" type="line"/>
      <point x="204" y="295" type="line"/>
      <point x="227" y="295" type="line" smooth="yes"/>
      <point x="258" y="295"/>
      <point x="293" y="260"/>
      <point x="293" y="163" type="curve" smooth="yes"/>
      <point x="293" y="55"/>
      <point x="268" y="10"/>
      <point x="229" y="10" type="curve" smooth="yes"/>
    </contour>
  </outline>
</glyph>
<glyph name="uni0467" format="2">
  <advance width="524"/>
  <unicode hex="0467"/>
  <anchor x="262" y="0" name="bottom"/>
  <anchor x="262" y="536" name="top"/>
  <outline>
    <contour>
      <point x="5" y="0" type="line"/>
      <point x="122" y="0" type="line"/>
      <point x="122" y="10" type="line"/>
      <point x="80" y="10"/>
      <point x="66" y="7"/>
      <point x="66" y="25" type="curve" smooth="yes"/>
      <point x="66" y="32"/>
      <point x="68" y="40"/>
      <point x="71" y="52" type="curve" smooth="yes"/>
      <point x="135" y="269" type="line"/>
      <point x="153" y="269" type="line"/>
      <point x="153" y="0" type="line"/>
      <point x="254" y="0" type="line"/>
      <point x="254" y="269" type="line"/>
      <point x="273" y="269" type="line"/>
      <point x="323" y="91" type="line" smooth="yes"/>
      <point x="328" y="71"/>
      <point x="334" y="54"/>
      <point x="334" y="41" type="curve" smooth="yes"/>
      <point x="334" y="17"/>
      <point x="324" y="10"/>
      <point x="296" y="10" type="curve"/>
      <point x="296" y="0" type="line"/>
      <point x="517" y="0" type="line"/>
      <point x="517" y="10" type="line"/>
      <point x="500" y="10"/>
      <point x="491" y="18"/>
      <point x="478" y="57" type="curve" smooth="yes"/>
      <point x="323" y="536" type="line"/>
      <point x="200" y="536" type="line"/>
      <point x="58" y="43" type="line" smooth="yes"/>
      <point x="52" y="19"/>
      <point x="38" y="10"/>
      <point x="11" y="10" type="curve" smooth="yes"/>
      <point x="5" y="10" type="line"/>
    </contour>
    <contour>
      <point x="137" y="279" type="line"/>
      <point x="126" y="266" type="line" smooth="yes"/>
      <point x="153" y="349"/>
      <point x="178" y="431"/>
      <point x="205" y="519" type="curve"/>
      <point x="239" y="404"/>
      <point x="269" y="307"/>
      <point x="289" y="245" type="curve" smooth="yes"/>
      <point x="270" y="279" type="line"/>
    </contour>
  </outline>
</glyph>
<glyph name="uni047A" format="2">
  <advance width="622"/>
  <unicode hex="047A"/>
  <outline>
    <contour>
      <point x="310" y="-66" type="curve" smooth="yes"/>
      <point x="334" y="-66"/>
      <point x="354" y="-52"/>
      <point x="360" y="-6" type="curve"/>
      <point x="504" y="21"/>
      <point x="583" y="168"/>
      <point x="583" y="358" type="curve" smooth="yes"/>
      <point x="583" y="552"/>
      <point x="503" y="694"/>
      <point x="360" y="721" type="curve"/>
      <point x="354" y="766"/>
      <point x="334" y="781"/>
      <point x="310" y="781" type="curve" smooth="yes"/>
      <point x="287" y="781"/>
      <point x="266" y="766"/>
      <point x="262" y="721" type="curve"/>
      <point x="105" y="694"/>
      <point x="39" y="551"/>
      <point x="39" y="359" type="curve" smooth="yes"/>
      <point x="39" y="167"/>
      <point x="104" y="21"/>
      <point x="262" y="-6" type="curve"/>
      <point x="266" y="-52"/>
      <point x="287" y="-66"/>
    </contour>
    <contour>
      <point x="260" y="12" type="curve"/>
      <point x="209" y="42"/>
      <point x="191" y="135"/>
      <point x="191" y="358" type="curve" smooth="yes"/>
      <point x="191" y="579"/>
      <point x="209" y="671"/>
      <point x="260" y="702" type="curve"/>
      <point x="259" y="637"/>
      <point x="282" y="617"/>
      <point x="310" y="617" type="curve" smooth="yes"/>
      <point x="339" y="617"/>
      <point x="363" y="638"/>
      <point x="362" y="704" type="curve"/>
      <point x="413" y="676"/>
      <point x="431" y="584"/>
      <point x="431" y="358" type="curve" smooth="yes"/>
      <point x="431" y="132"/>
      <point x="414" y="40"/>
      <point x="362" y="11" type="curve"/>
      <point x="363" y="75"/>
      <point x="339" y="98"/>
      <point x="310" y="98" type="curve" smooth="yes"/>
      <point x="283" y="98"/>
      <point x="259" y="77"/>
    </contour>
  </outline>
</glyph>
<glyph name="uni047B" format="2">
  <advance width="490"/>
  <unicode hex="047B"/>
  <outline>
    <contour>
      <point x="243" y="-54" type="curve" smooth="yes"/>
      <point x="264" y="-54"/>
      <point x="286" y="-45"/>
      <point x="293" y="-6" type="curve"/>
      <point x="403" y="13"/>
      <point x="461" y="104"/>
      <point x="461" y="269" type="curve" smooth="yes"/>
      <point x="461" y="435"/>
      <point x="399" y="526"/>
      <point x="293" y="545" type="curve"/>
      <point x="285" y="582"/>
      <point x="262" y="592"/>
      <point x="243" y="592" type="curve" smooth="yes"/>
      <point x="223" y="592"/>
      <point x="202" y="582"/>
      <point x="195" y="545" type="curve"/>
      <point x="86" y="524"/>
      <point x="29" y="433"/>
      <point x="29" y="269" type="curve" smooth="yes"/>
      <point x="29" y="106"/>
      <point x="89" y="15"/>
      <point x="195" y="-6" type="curve"/>
      <point x="200" y="-45"/>
      <point x="221" y="-54"/>
    </contour>
    <contour>
      <point x="193" y="26" type="curve"/>
      <point x="173" y="60"/>
      <point x="165" y="131"/>
      <point x="165" y="269" type="curve" smooth="yes"/>
      <point x="165" y="409"/>
      <point x="173" y="480"/>
      <point x="193" y="512" type="curve"/>
      <point x="194" y="450"/>
      <point x="218" y="439"/>
      <point x="243" y="439" type="curve" smooth="yes"/>
      <point x="267" y="439"/>
      <point x="295" y="451"/>
      <point x="295" y="516" type="curve"/>
      <point x="317" y="484"/>
      <point x="325" y="413"/>
      <point x="325" y="269" type="curve" smooth="yes"/>
      <point x="325" y="125"/>
      <point x="318" y="54"/>
      <point x="295" y="23" type="curve"/>
      <point x="295" y="86"/>
      <point x="267" y="98"/>
      <point x="243" y="98" type="curve" smooth="yes"/>
      <point x="219" y="98"/>
      <point x="194" y="87"/>
    </contour>
  </outline>
</glyph>
<glyph name="uni047D" format="2">
  <advance width="718"/>
  <unicode hex="047D"/>
  <outline>
    <contour>
      <point x="216" y="774" type="curve"/>
      <point x="226" y="774" type="line"/>
      <point x="228" y="786" type="line" smooth="yes"/>
      <point x="232" y="806"/>
      <point x="233" y="836"/>
      <point x="280" y="836" type="curve" smooth="yes"/>
      <point x="369" y="836"/>
      <point x="431" y="774"/>
      <point x="516" y="774" type="curve" smooth="yes"/>
      <point x="534" y="774" type="line"/>
      <point x="534" y="853" type="line"/>
      <point x="527" y="853" type="line"/>
      <point x="440" y="853"/>
      <point x="385" y="908"/>
      <point x="320" y="908" type="curve" smooth="yes"/>
      <point x="257" y="908"/>
      <point x="222" y="856"/>
    </contour>
    <contour>
      <point x="318" y="619" type="line"/>
      <point x="389" y="640"/>
      <point x="417" y="684"/>
      <point x="417" y="731" type="curve" smooth="yes"/>
      <point x="417" y="770"/>
      <point x="396" y="790"/>
      <point x="367" y="790" type="curve" smooth="yes"/>
      <point x="345" y="790"/>
      <point x="329" y="780"/>
      <point x="329" y="752" type="curve" smooth="yes"/>
      <point x="329" y="708"/>
      <point x="375" y="725"/>
      <point x="375" y="683" type="curve" smooth="yes"/>
      <point x="375" y="652"/>
      <point x="347" y="642"/>
      <point x="318" y="629" type="curve"/>
    </contour>
    <component base="uniA64D"/>
  </outline>
</glyph>
<glyph name="afii10050" format="2">
  <advance width="398"/>
  <unicode hex="0490"/>
  <anchor x="199" y="0" name="bottom"/>
  <anchor x="199" y="861" name="top"/>
  <outline>
    <contour>
      <point x="16" y="0" type="line"/>
      <point x="308" y="0" type="line"/>
      <point x="308" y="10" type="line"/>
      <point x="276" y="10" type="line" smooth="yes"/>
      <point x="254" y="10"/>
      <point x="227" y="11"/>
      <point x="227" y="86" type="curve" smooth="yes"/>
      <point x="227" y="704" type="line"/>
      <point x="394" y="704" type="line"/>
      <point x="401" y="868" type="line"/>
      <point x="391" y="868" type="line"/>
      <point x="391" y="866" type="line" smooth="yes"/>
      <point x="385" y="750"/>
      <point x="346" y="714"/>
      <point x="225" y="714" type="curve" smooth="yes"/>
      <point x="16" y="714" type="line"/>
      <point x="16" y="704" type="line"/>
      <point x="24" y="704" type="line" smooth="yes"/>
      <point x="57" y="704"/>
      <point x="81" y="701"/>
      <point x="81" y="629" type="curve" smooth="yes"/>
      <point x="81" y="78" type="line" smooth="yes"/>
      <point x="81" y="12"/>
      <point x="53" y="10"/>
      <point x="34" y="10" type="curve" smooth="yes"/>
      <point x="16" y="10" type="line"/>
    </contour>
  </outline>
</glyph>
<glyph name="uni0492" format="2">
  <advance width="443"/>
  <unicode hex="0492"/>
  <anchor x="222" y="0" name="bottom"/>
  <anchor x="222" y="714" name="top"/>
  <outline>
    <contour>
      <point x="16" y="0" type="line"/>
      <point x="308" y="0" type="line"/>
      <point x="308" y="10" type="line"/>
      <point x="265" y="10" type="line" smooth="yes"/>
      <point x="235" y="10"/>
      <point x="226" y="26"/>
      <point x="226" y="67" type="curve" smooth="yes"/>
      <point x="226" y="362" type="line"/>
      <point x="324" y="362" type="line"/>
      <point x="324" y="372" type="line"/>
      <point x="226" y="372" type="line"/>
      <point x="226" y="704" type="line"/>
      <point x="287" y="704" type="line" smooth="yes"/>
      <point x="383" y="704"/>
      <point x="416" y="665"/>
      <point x="429" y="537" type="curve" smooth="yes"/>
      <point x="431" y="519" type="line"/>
      <point x="441" y="519" type="line"/>
      <point x="434" y="714" type="line"/>
      <point x="16" y="714" type="line"/>
      <point x="16" y="704" type="line"/>
      <point x="51" y="704" type="line" smooth="yes"/>
      <point x="69" y="704"/>
      <point x="81" y="691"/>
      <point x="81" y="647" type="curve" smooth="yes"/>
      <point x="81" y="372" type="line"/>
      <point x="24" y="372" type="line"/>
      <point x="24" y="362" type="line"/>
      <point x="81" y="362" type="line"/>
      <point x="81" y="65" type="line" smooth="yes"/>
      <point x="81" y="22"/>
      <point x="71" y="10"/>
      <point x="41" y="10" type="curve" smooth="yes"/>
      <point x="16" y="10" type="line"/>
    </contour>
  </outline>
</glyph>
<glyph name="uni04A7" format="2">
  <advance width="715"/>
  <unicode hex="04A7"/>
  <anchor x="357" y="-240" name="bottom"/>
  <anchor x="357" y="536" name="top"/>
  <outline>
    <contour>
      <point x="478" y="-240" type="curve" smooth="yes"/>
      <point x="602" y="-240"/>
      <point x="691" y="-168"/>
      <point x="691" y="44" type="curve" smooth="yes"/>
      <point x="691" y="227"/>
      <point x="623" y="304"/>
      <point x="507" y="304" type="curve" smooth="yes"/>
      <point x="478" y="304"/>
      <point x="456" y="299"/>
      <point x="438" y="294" type="curve"/>
      <point x="438" y="460" type="line" smooth="yes"/>
      <point x="438" y="514"/>
      <point x="456" y="526"/>
      <point x="484" y="526" type="curve" smooth="yes"/>
      <point x="492" y="526" type="line"/>
      <point x="492" y="536" type="line"/>
      <point x="9" y="536" type="line"/>
      <point x="9" y="526" type="line"/>
      <point x="18" y="526" type="line" smooth="yes"/>
      <point x="45" y="526"/>
      <point x="61" y="514"/>
      <point x="61" y="460" type="curve" smooth="yes"/>
      <point x="61" y="76" type="line" smooth="yes"/>
      <point x="61" y="21"/>
      <point x="46" y="10"/>
      <point x="18" y="10" type="curve" smooth="yes"/>
      <point x="9" y="10" type="line"/>
      <point x="9" y="0" type="line"/>
      <point x="240" y="0" type="line"/>
      <point x="240" y="10" type="line"/>
      <point x="236" y="10" type="line" smooth="yes"/>
      <point x="213" y="10"/>
      <point x="204" y="21"/>
      <point x="204" y="76" type="curve" smooth="yes"/>
      <point x="204" y="526" type="line"/>
      <point x="296" y="526" type="line"/>
      <point x="296" y="76" type="line" smooth="yes"/>
      <point x="296" y="21"/>
      <point x="286" y="10"/>
      <point x="262" y="10" type="curve" smooth="yes"/>
      <point x="260" y="10" type="line"/>
      <point x="260" y="0" type="line"/>
      <point x="492" y="0" type="line"/>
      <point x="492" y="10" type="line"/>
      <point x="484" y="10" type="line" smooth="yes"/>
      <point x="456" y="10"/>
      <point x="438" y="25"/>
      <point x="438" y="76" type="curve" smooth="yes"/>
      <point x="438" y="282" type="line"/>
      <point x="449" y="286"/>
      <point x="459" y="289"/>
      <point x="476" y="289" type="curve" smooth="yes"/>
      <point x="529" y="289"/>
      <point x="546" y="230"/>
      <point x="546" y="41" type="curve" smooth="yes"/>
      <point x="546" y="-165"/>
      <point x="528" y="-230"/>
      <point x="481" y="-230" type="curve" smooth="yes"/>
      <point x="440" y="-230"/>
      <point x="430" y="-191"/>
      <point x="430" y="-68" type="curve"/>
      <point x="362" y="-68"/>
      <point x="345" y="-96"/>
      <point x="345" y="-133" type="curve" smooth="yes"/>
      <point x="345" y="-190"/>
      <point x="387" y="-240"/>
    </contour>
  </outline>
</glyph>
<glyph name="uni04B4" format="2">
  <advance width="744"/>
  <unicode hex="04B4"/>
  <anchor x="372" y="0" name="bottom"/>
  <anchor x="372" y="714" name="top"/>
  <outline>
    <contour>
      <point x="712" y="-210" type="curve"/>
      <point x="722" y="-210" type="line"/>
      <point x="722" y="10" type="line"/>
      <point x="732" y="10" type="line" smooth="yes"/>
      <point x="694" y="10"/>
      <point x="655" y="21"/>
      <point x="655" y="137" type="curve" smooth="yes"/>
      <point x="655" y="639" type="line" smooth="yes"/>
      <point x="655" y="684"/>
      <point x="660" y="704"/>
      <point x="698" y="704" type="curve" smooth="yes"/>
      <point x="721" y="704" type="line"/>
      <point x="721" y="714" type="line"/>
      <point x="457" y="714" type="line"/>
      <point x="457" y="704" type="line"/>
      <point x="471" y="704" type="line" smooth="yes"/>
      <point x="502" y="704"/>
      <point x="509" y="684"/>
      <point x="509" y="639" type="curve" smooth="yes"/>
      <point x="509" y="10" type="line"/>
      <point x="304" y="10" type="line"/>
      <point x="304" y="704" type="line"/>
      <point x="299" y="704" type="line" smooth="yes"/>
      <point x="390" y="704"/>
      <point x="421" y="671"/>
      <point x="426" y="571" type="curve" smooth="yes"/>
      <point x="428" y="529" type="line"/>
      <point x="438" y="529" type="line"/>
      <point x="431" y="714" type="line"/>
      <point x="25" y="714" type="line"/>
      <point x="18" y="529" type="line"/>
      <point x="28" y="529" type="line"/>
      <point x="31" y="571" type="line" smooth="yes"/>
      <point x="38" y="671"/>
      <point x="69" y="704"/>
      <point x="169" y="704" type="curve" smooth="yes"/>
      <point x="159" y="704" type="line"/>
      <point x="159" y="75" type="line" smooth="yes"/>
      <point x="159" y="30"/>
      <point x="155" y="10"/>
      <point x="118" y="10" type="curve" smooth="yes"/>
      <point x="94" y="10" type="line"/>
      <point x="94" y="0" type="line"/>
      <point x="581" y="0" type="line" smooth="yes"/>
      <point x="681" y="0"/>
      <point x="712" y="-50"/>
    </contour>
  </outline>
</glyph>
<glyph name="uni04B5" format="2">
  <advance width="681"/>
  <unicode hex="04B5"/>
  <anchor x="340" y="0" name="bottom"/>
  <anchor x="340" y="536" name="top"/>
  <outline>
    <contour>
      <point x="665" y="-210" type="line"/>
      <point x="675" y="-210" type="line"/>
      <point x="675" y="10" type="line"/>
      <point x="683" y="10" type="line" smooth="yes"/>
      <point x="645" y="10"/>
      <point x="606" y="21"/>
      <point x="606" y="137" type="curve" smooth="yes"/>
      <point x="606" y="460" type="line" smooth="yes"/>
      <point x="606" y="515"/>
      <point x="622" y="526"/>
      <point x="649" y="526" type="curve" smooth="yes"/>
      <point x="658" y="526" type="line"/>
      <point x="658" y="536" type="line"/>
      <point x="427" y="536" type="line"/>
      <point x="427" y="526" type="line"/>
      <point x="431" y="526" type="line" smooth="yes"/>
      <point x="454" y="526"/>
      <point x="463" y="515"/>
      <point x="463" y="460" type="curve" smooth="yes"/>
      <point x="463" y="10" type="line"/>
      <point x="282" y="10" type="line"/>
      <point x="282" y="526" type="line"/>
      <point x="296" y="526" type="line" smooth="yes"/>
      <point x="355" y="526"/>
      <point x="384" y="495"/>
      <point x="393" y="396" type="curve" smooth="yes"/>
      <point x="397" y="353" type="line"/>
      <point x="407" y="353" type="line"/>
      <point x="400" y="536" type="line"/>
      <point x="22" y="536" type="line"/>
      <point x="15" y="353" type="line"/>
      <point x="25" y="353" type="line"/>
      <point x="29" y="396" type="line" smooth="yes"/>
      <point x="38" y="495"/>
      <point x="67" y="526"/>
      <point x="127" y="526" type="curve" smooth="yes"/>
      <point x="141" y="526" type="line"/>
      <point x="141" y="76" type="line" smooth="yes"/>
      <point x="141" y="22"/>
      <point x="122" y="10"/>
      <point x="94" y="10" type="curve" smooth="yes"/>
      <point x="89" y="10" type="line"/>
      <point x="89" y="0" type="line"/>
      <point x="533" y="0" type="line" smooth="yes"/>
      <point x="629" y="0"/>
      <point x="659" y="-42"/>
      <point x="664" y="-179" type="curve" smooth="yes"/>
    </contour>
  </outline>
</glyph>
<glyph name="uni04C7" format="2">
  <advance width="611"/>
  <unicode hex="04C7"/>
  <anchor x="306" y="-250" name="bottom"/>
  <anchor x="306" y="714" name="top"/>
  <outline>
    <contour>
      <point x="286" y="-250" type="curve" smooth="yes"/>
      <point x="436" y="-250"/>
      <point x="526" y="-145"/>
      <point x="526" y="82" type="curve" smooth="yes"/>
      <point x="526" y="645" type="line" smooth="yes"/>
      <point x="526" y="694"/>
      <point x="529" y="704"/>
      <point x="553" y="704" type="curve" smooth="yes"/>
      <point x="591" y="704" type="line"/>
      <point x="591" y="714" type="line"/>
      <point x="328" y="714" type="line"/>
      <point x="328" y="704" type="line"/>
      <point x="351" y="704" type="line" smooth="yes"/>
      <point x="374" y="704"/>
      <point x="379" y="694"/>
      <point x="379" y="645" type="curve" smooth="yes"/>
      <point x="379" y="378" type="line"/>
      <point x="228" y="378" type="line"/>
      <point x="228" y="648" type="line" smooth="yes"/>
      <point x="228" y="694"/>
      <point x="232" y="704"/>
      <point x="252" y="704" type="curve" smooth="yes"/>
      <point x="279" y="704" type="line"/>
      <point x="279" y="714" type="line"/>
      <point x="16" y="714" type="line"/>
      <point x="16" y="704" type="line"/>
      <point x="47" y="704" type="line" smooth="yes"/>
      <point x="79" y="704"/>
      <point x="81" y="692"/>
      <point x="81" y="644" type="curve" smooth="yes"/>
      <point x="81" y="68" type="line" smooth="yes"/>
      <point x="81" y="16"/>
      <point x="79" y="10"/>
      <point x="54" y="10" type="curve" smooth="yes"/>
      <point x="16" y="10" type="line"/>
      <point x="16" y="0" type="line"/>
      <point x="279" y="0" type="line"/>
      <point x="279" y="10" type="line"/>
      <point x="252" y="10" type="line" smooth="yes"/>
      <point x="232" y="10"/>
      <point x="228" y="16"/>
      <point x="228" y="68" type="curve" smooth="yes"/>
      <point x="228" y="368" type="line"/>
      <point x="379" y="368" type="line"/>
      <point x="379" y="124" type="line" smooth="yes"/>
      <point x="379" y="-171"/>
      <point x="359" y="-240"/>
      <point x="280" y="-240" type="curve" smooth="yes"/>
      <point x="216" y="-240"/>
      <point x="198" y="-195"/>
      <point x="195" y="-60" type="curve"/>
      <point x="140" y="-61"/>
      <point x="116" y="-89"/>
      <point x="116" y="-129" type="curve" smooth="yes"/>
      <point x="116" y="-187"/>
      <point x="151" y="-219"/>
      <point x="190" y="-235" type="curve" smooth="yes"/>
      <point x="222" y="-248"/>
      <point x="258" y="-250"/>
    </contour>
  </outline>
</glyph>
<glyph name="uni04E0" format="2">
  <advance width="454"/>
  <unicode hex="04E0"/>
  <anchor x="227" y="0" name="bottom"/>
  <anchor x="227" y="714" name="top"/>
  <outline>
    <contour>
      <point x="226" y="-11" type="curve" smooth="yes"/>
      <point x="318" y="-11"/>
      <point x="441" y="45"/>
      <point x="441" y="200" type="curve" smooth="yes"/>
      <point x="441" y="330"/>
      <point x="359" y="379"/>
      <point x="169" y="379" type="curve"/>
      <point x="404" y="667" type="line"/>
      <point x="404" y="714" type="line"/>
      <point x="63" y="714" type="line"/>
      <point x="55" y="509" type="line"/>
      <point x="64" y="509" type="line"/>
      <point x="66" y="530" type="line" smooth="yes"/>
      <point x="73" y="592"/>
      <point x="93" y="612"/>
      <point x="148" y="612" type="curve" smooth="yes"/>
      <point x="346" y="612" type="line"/>
      <point x="159" y="380" type="line"/>
      <point x="159" y="370" type="line"/>
      <point x="179" y="370" type="line" smooth="yes"/>
      <point x="263" y="370"/>
      <point x="306" y="318"/>
      <point x="306" y="188" type="curve" smooth="yes"/>
      <point x="306" y="58"/>
      <point x="275" y="-1"/>
      <point x="211" y="-1" type="curve" smooth="yes"/>
      <point x="140" y="-1"/>
      <point x="112" y="62"/>
      <point x="112" y="223" type="curve"/>
      <point x="44" y="223"/>
      <point x="20" y="181"/>
      <point x="20" y="127" type="curve" smooth="yes"/>
      <point x="20" y="14"/>
      <point x="119" y="-11"/>
    </contour>
  </outline>
</glyph>
<glyph name="uni04E8" format="2">
  <advance width="593"/>
  <unicode hex="04E8"/>
  <anchor x="297" y="0" name="bottom"/>
  <anchor x="297" y="714" name="top"/>
  <outline>
    <contour>
      <point x="298" y="-10" type="curve" smooth="yes"/>
      <point x="462" y="-10"/>
      <point x="554" y="137"/>
      <point x="554" y="358" type="curve" smooth="yes"/>
      <point x="554" y="580"/>
      <point x="462" y="725"/>
      <point x="299" y="725" type="curve" smooth="yes"/>
      <point x="123" y="725"/>
      <point x="39" y="580"/>
      <point x="39" y="359" type="curve" smooth="yes"/>
      <point x="39" y="137"/>
      <point x="123" y="-10"/>
    </contour>
    <contour>
      <point x="298" y="0" type="curve" smooth="yes"/>
      <point x="211" y="0"/>
      <point x="192" y="72"/>
      <point x="192" y="370" type="curve"/>
      <point x="403" y="370" type="line"/>
      <point x="403" y="81"/>
      <point x="387" y="0"/>
    </contour>
    <contour>
      <point x="192" y="380" type="line"/>
      <point x="194" y="654"/>
      <point x="218" y="715"/>
      <point x="299" y="715" type="curve" smooth="yes"/>
      <point x="378" y="715"/>
      <point x="401" y="654"/>
      <point x="403" y="380" type="curve"/>
    </contour>
  </outline>
</glyph>
<glyph name="uni050B" format="2">
  <advance width="770"/>
  <unicode hex="050B"/>
  <anchor x="385" y="0" name="bottom"/>
  <anchor x="385" y="536" name="top"/>
  <outline>
    <contour>
      <point x="509" y="-10" type="curve" smooth="yes"/>
      <point x="649" y="-10"/>
      <point x="714" y="62"/>
      <point x="714" y="181" type="curve" smooth="yes"/>
      <point x="714" y="271" type="line" smooth="yes"/>
      <point x="714" y="329"/>
      <point x="746" y="336"/>
      <point x="759" y="336" type="curve" smooth="yes"/>
      <point x="772" y="336" type="line"/>
      <point x="772" y="346" type="line"/>
      <point x="513" y="346" type="line"/>
      <point x="513" y="336" type="line"/>
      <point x="526" y="336" type="line" smooth="yes"/>
      <point x="539" y="336"/>
      <point x="571" y="329"/>
      <point x="571" y="271" type="curve" smooth="yes"/>
      <point x="571" y="119" type="line" smooth="yes"/>
      <point x="571" y="38"/>
      <point x="547" y="0"/>
      <point x="509" y="0" type="curve" smooth="yes"/>
      <point x="470" y="0"/>
      <point x="445" y="38"/>
      <point x="445" y="121" type="curve" smooth="yes"/>
      <point x="445" y="460" type="line" smooth="yes"/>
      <point x="445" y="515"/>
      <point x="464" y="526"/>
      <point x="492" y="526" type="curve" smooth="yes"/>
      <point x="499" y="526" type="line"/>
      <point x="499" y="536" type="line"/>
      <point x="268" y="536" type="line"/>
      <point x="268" y="526" type="line"/>
      <point x="270" y="526" type="line" smooth="yes"/>
      <point x="294" y="526"/>
      <point x="304" y="514"/>
      <point x="304" y="461" type="curve" smooth="yes"/>
      <point x="304" y="279" type="line"/>
      <point x="205" y="279" type="line"/>
      <point x="205" y="460" type="line" smooth="yes"/>
      <point x="205" y="514"/>
      <point x="212" y="526"/>
      <point x="238" y="526" type="curve" smooth="yes"/>
      <point x="241" y="526" type="line"/>
      <point x="241" y="536" type="line"/>
      <point x="10" y="536" type="line"/>
      <point x="10" y="526" type="line"/>
      <point x="19" y="526" type="line" smooth="yes"/>
      <point x="46" y="526"/>
      <point x="62" y="514"/>
      <point x="62" y="461" type="curve" smooth="yes"/>
      <point x="62" y="76" type="line" smooth="yes"/>
      <point x="62" y="21"/>
      <point x="47" y="10"/>
      <point x="19" y="10" type="curve" smooth="yes"/>
      <point x="10" y="10" type="line"/>
      <point x="10" y="0" type="line"/>
      <point x="241" y="0" type="line"/>
      <point x="241" y="10" type="line"/>
      <point x="237" y="10" type="line" smooth="yes"/>
      <point x="214" y="10"/>
      <point x="205" y="21"/>
      <point x="205" y="76" type="curve" smooth="yes"/>
      <point x="205" y="269" type="line"/>
      <point x="304" y="269" type="line"/>
      <point x="304" y="184" type="line" smooth="yes"/>
      <point x="304" y="57"/>
      <point x="370" y="-10"/>
    </contour>
  </outline>
</glyph>
<glyph name="uni050C" format="2">
  <advance width="594"/>
  <unicode hex="050C"/>
  <anchor x="298" y="0" name="bottom"/>
  <anchor x="298" y="714" name="top"/>
  <outline>
    <contour>
      <point x="315" y="-10" type="curve" smooth="yes"/>
      <point x="447" y="-10"/>
      <point x="546" y="79"/>
      <point x="543" y="263" type="curve" smooth="yes"/>
      <point x="541" y="311"/>
      <point x="534" y="325"/>
      <point x="574" y="325" type="curve" smooth="yes"/>
      <point x="582" y="325" type="line"/>
      <point x="582" y="335" type="line"/>
      <point x="334" y="335" type="line"/>
      <point x="334" y="325" type="line"/>
      <point x="364" y="325" type="line" smooth="yes"/>
      <point x="399" y="325"/>
      <point x="392" y="318"/>
      <point x="392" y="294" type="curve" smooth="yes"/>
      <point x="392" y="32"/>
      <point x="360" y="0"/>
      <point x="307" y="0" type="curve" smooth="yes"/>
      <point x="215" y="0"/>
      <point x="191" y="78"/>
      <point x="191" y="336" type="curve" smooth="yes"/>
      <point x="191" y="626"/>
      <point x="219" y="714"/>
      <point x="315" y="714" type="curve" smooth="yes"/>
      <point x="382" y="714"/>
      <point x="405" y="669"/>
      <point x="405" y="524" type="curve"/>
      <point x="480" y="524"/>
      <point x="517" y="562"/>
      <point x="517" y="609" type="curve" smooth="yes"/>
      <point x="517" y="673"/>
      <point x="452" y="724"/>
      <point x="333" y="724" type="curve" smooth="yes"/>
      <point x="130" y="724"/>
      <point x="39" y="574"/>
      <point x="39" y="351" type="curve" smooth="yes"/>
      <point x="39" y="137"/>
      <point x="123" y="-10"/>
    </contour>
  </outline>
</glyph>
<glyph name="uni0519" format="2">
  <advance width="659"/>
  <unicode hex="0519"/>
  <anchor x="329" y="0" name="bottom"/>
  <anchor x="329" y="536" name="top"/>
  <outline>
    <contour>
      <point x="461" y="-10" type="curve" smooth="yes"/>
      <point x="595" y="-10"/>
      <point x="624" y="63"/>
      <point x="624" y="106" type="curve" smooth="yes"/>
      <point x="624" y="124"/>
      <point x="612" y="139"/>
      <point x="600" y="144" type="curve"/>
      <point x="587" y="24"/>
      <point x="542" y="4"/>
      <point x="497" y="4" type="curve" smooth="yes"/>
      <point x="430" y="4"/>
      <point x="401" y="68"/>
      <point x="402" y="285" type="curve"/>
      <point x="638" y="285" type="line"/>
      <point x="638" y="307" type="line" smooth="yes"/>
      <point x="638" y="465"/>
      <point x="569" y="549"/>
      <point x="455" y="549" type="curve" smooth="yes"/>
      <point x="422" y="549"/>
      <point x="392" y="536"/>
      <point x="367" y="512" type="curve"/>
      <point x="367" y="536" type="line"/>
      <point x="207" y="536" type="line" smooth="yes"/>
      <point x="84" y="536"/>
      <point x="39" y="475"/>
      <point x="39" y="386" type="curve" smooth="yes"/>
      <point x="39" y="302"/>
      <point x="81" y="262"/>
      <point x="120" y="248" type="curve"/>
      <point x="82" y="147" type="line" smooth="yes"/>
      <point x="35" y="41"/>
      <point x="16" y="10"/>
      <point x="-3" y="10" type="curve" smooth="yes"/>
      <point x="-4" y="10" type="line"/>
      <point x="-4" y="0" type="line"/>
      <point x="85" y="0"/>
      <point x="145" y="6"/>
      <point x="181" y="92" type="curve" smooth="yes"/>
      <point x="248" y="254" type="line"/>
      <point x="264" y="254" type="line"/>
      <point x="267" y="88"/>
      <point x="327" y="-10"/>
    </contour>
    <contour>
      <point x="246" y="264" type="line" smooth="yes"/>
      <point x="199" y="264"/>
      <point x="183" y="301"/>
      <point x="183" y="402" type="curve" smooth="yes"/>
      <point x="183" y="492"/>
      <point x="199" y="526"/>
      <point x="246" y="526" type="curve" smooth="yes"/>
      <point x="264" y="526" type="line"/>
      <point x="264" y="264" type="line"/>
    </contour>
    <contour>
      <point x="402" y="295" type="line"/>
      <point x="402" y="497"/>
      <point x="415" y="539"/>
      <point x="454" y="539" type="curve" smooth="yes"/>
      <point x="492" y="539"/>
      <point x="499" y="497"/>
      <point x="499" y="295" type="curve"/>
    </contour>
  </outline>
</glyph>
<glyph name="uni051E" format="2">
  <advance width="564"/>
  <unicode hex="051E"/>
  <anchor x="283" y="0" name="bottom"/>
  <anchor x="283" y="714" name="top"/>
  <outline>
    <contour>
      <point x="510" y="499" type="line"/>
      <point x="516" y="506" type="line"/>
      <point x="309" y="630" type="line"/>
      <point x="303" y="622" type="line"/>
    </contour>
    <component base="afii10028"/>
  </outline>
</glyph>
<glyph name="uni0529" format="2">
  <advance width="501"/>
  <unicode hex="0529"/>
  <anchor x="250" y="-240" name="bottom"/>
  <anchor x="250" y="536" name="top"/>
  <outline>
    <contour>
      <point x="-11" y="-240" type="line"/>
      <point x="4" y="-240" type="line" smooth="yes"/>
      <point x="121" y="-240"/>
      <point x="205" y="-187"/>
      <point x="205" y="-8" type="curve" smooth="yes"/>
      <point x="205" y="269" type="line"/>
      <point x="304" y="269" type="line"/>
      <point x="304" y="76" type="line" smooth="yes"/>
      <point x="304" y="21"/>
      <point x="294" y="10"/>
      <point x="270" y="10" type="curve" smooth="yes"/>
      <point x="268" y="10" type="line"/>
      <point x="268" y="0" type="line"/>
      <point x="499" y="0" type="line"/>
      <point x="499" y="10" type="line"/>
      <point x="492" y="10" type="line" smooth="yes"/>
      <point x="464" y="10"/>
      <point x="445" y="25"/>
      <point x="445" y="76" type="curve" smooth="yes"/>
      <point x="445" y="460" type="line" smooth="yes"/>
      <point x="445" y="514"/>
      <point x="464" y="526"/>
      <point x="492" y="526" type="curve" smooth="yes"/>
      <point x="499" y="526" type="line"/>
      <point x="499" y="536" type="line"/>
      <point x="268" y="536" type="line"/>
      <point x="268" y="526" type="line"/>
      <point x="270" y="526" type="line" smooth="yes"/>
      <point x="294" y="526"/>
      <point x="304" y="514"/>
      <point x="304" y="461" type="curve" smooth="yes"/>
      <point x="304" y="279" type="line"/>
      <point x="205" y="279" type="line"/>
      <point x="205" y="460" type="line" smooth="yes"/>
      <point x="205" y="514"/>
      <point x="212" y="526"/>
      <point x="238" y="526" type="curve" smooth="yes"/>
      <point x="241" y="526" type="line"/>
      <point x="241" y="536" type="line"/>
      <point x="10" y="536" type="line"/>
      <point x="10" y="526" type="line"/>
      <point x="19" y="526" type="line" smooth="yes"/>
      <point x="46" y="526"/>
      <point x="62" y="514"/>
      <point x="62" y="461" type="curve"/>
      <point x="62" y="-72" type="line" smooth="yes"/>
      <point x="62" y="-195"/>
      <point x="38" y="-230"/>
      <point x="-7" y="-230" type="curve" smooth="yes"/>
      <point x="-11" y="-230" type="line"/>
    </contour>
  </outline>
</glyph>
<glyph name="uni1D03" format="2">
  <advance width="463"/>
  <unicode hex="1D03"/>
  <anchor x="228" y="0" name="bottom"/>
  <anchor x="228" y="536" name="top"/>
  <outline>
    <contour>
      <point x="9" y="269" type="line"/>
      <point x="441" y="269" type="line"/>
      <point x="441" y="279" type="line"/>
      <point x="9" y="279" type="line"/>
    </contour>
    <component base="afii10067"/>
  </outline>
</glyph>
<glyph name="uni1D06" format="2">
  <advance width="482"/>
  <unicode hex="1D06"/>
  <anchor x="241" y="0" name="bottom"/>
  <anchor x="241" y="536" name="top"/>
  <outline>
    <contour>
      <point x="9" y="0" type="line"/>
      <point x="221" y="0" type="line" smooth="yes"/>
      <point x="368" y="0"/>
      <point x="449" y="117"/>
      <point x="449" y="281" type="curve" smooth="yes"/>
      <point x="449" y="451"/>
      <point x="361" y="536"/>
      <point x="221" y="536" type="curve" smooth="yes"/>
      <point x="9" y="536" type="line"/>
      <point x="9" y="526" type="line"/>
      <point x="36" y="526" type="line" smooth="yes"/>
      <point x="52" y="526"/>
      <point x="62" y="514"/>
      <point x="62" y="481" type="curve" smooth="yes"/>
      <point x="62" y="279" type="line"/>
      <point x="14" y="279" type="line"/>
      <point x="14" y="269" type="line"/>
      <point x="62" y="269" type="line"/>
      <point x="62" y="57" type="line" smooth="yes"/>
      <point x="62" y="22"/>
      <point x="55" y="10"/>
      <point x="32" y="10" type="curve" smooth="yes"/>
      <point x="9" y="10" type="line"/>
    </contour>
    <contour>
      <point x="197" y="10" type="line"/>
      <point x="197" y="269" type="line"/>
      <point x="261" y="269" type="line"/>
      <point x="261" y="279" type="line"/>
      <point x="197" y="279" type="line"/>
      <point x="197" y="526" type="line"/>
      <point x="207" y="526" type="line" smooth="yes"/>
      <point x="280" y="526"/>
      <point x="306" y="464"/>
      <point x="306" y="289" type="curve" smooth="yes"/>
      <point x="306" y="83"/>
      <point x="280" y="10"/>
      <point x="206" y="10" type="curve" smooth="yes"/>
    </contour>
  </outline>
</glyph>
<glyph name="uni1D2A" format="2">
  <advance width="608"/>
  <unicode hex="1D2A"/>
  <outline>
    <contour>
      <point x="191" y="0" type="line"/>
      <point x="416" y="0" type="line"/>
      <point x="416" y="10" type="line"/>
      <point x="401" y="10" type="line" smooth="yes"/>
      <point x="379" y="10"/>
      <point x="367" y="25"/>
      <point x="367" y="69" type="curve" smooth="yes"/>
      <point x="367" y="199" type="line"/>
      <point x="384" y="199" type="line" smooth="yes"/>
      <point x="537" y="199"/>
      <point x="557" y="279"/>
      <point x="557" y="370" type="curve" smooth="yes"/>
      <point x="557" y="476" type="line" smooth="yes"/>
      <point x="557" y="514"/>
      <point x="564" y="526"/>
      <point x="597" y="526" type="curve"/>
      <point x="597" y="536" type="line"/>
      <point x="433" y="536" type="line"/>
      <point x="433" y="322" type="line" smooth="yes"/>
      <point x="433" y="248"/>
      <point x="425" y="209"/>
      <point x="373" y="209" type="curve" smooth="yes"/>
      <point x="367" y="209" type="line"/>
      <point x="367" y="474" type="line" smooth="yes"/>
      <point x="367" y="521"/>
      <point x="373" y="526"/>
      <point x="394" y="526" type="curve" smooth="yes"/>
      <point x="409" y="526" type="line"/>
      <point x="409" y="536" type="line"/>
      <point x="197" y="536" type="line"/>
      <point x="197" y="526" type="line"/>
      <point x="216" y="526" type="line" smooth="yes"/>
      <point x="236" y="526"/>
      <point x="243" y="521"/>
      <point x="243" y="474" type="curve" smooth="yes"/>
      <point x="243" y="209" type="line"/>
      <point x="235" y="209" type="line" smooth="yes"/>
      <point x="185" y="209"/>
      <point x="176" y="248"/>
      <point x="176" y="322" type="curve" smooth="yes"/>
      <point x="176" y="536" type="line"/>
      <point x="10" y="536" type="line"/>
      <point x="10" y="526" type="line"/>
      <point x="43" y="526"/>
      <point x="48" y="514"/>
      <point x="48" y="476" type="curve" smooth="yes"/>
      <point x="48" y="370" type="line" smooth="yes"/>
      <point x="48" y="279"/>
      <point x="69" y="199"/>
      <point x="222" y="199" type="curve" smooth="yes"/>
      <point x="243" y="199" type="line"/>
      <point x="243" y="69" type="line" smooth="yes"/>
      <point x="243" y="25"/>
      <point x="230" y="10"/>
      <point x="208" y="10" type="curve" smooth="yes"/>
      <point x="191" y="10" type="line"/>
    </contour>
  </outline>
</glyph>
<glyph name="uni1D6F" format="2">
  <advance width="736"/>
  <unicode hex="1D6F"/>
  <anchor x="368" y="536" name="top"/>
  <anchor x="721" y="536" name="topright"/>
  <anchor x="368" y="0" name="bottom"/>
  <outline>
    <contour>
      <point x="-30" y="187" type="curve"/>
      <point x="-21" y="187" type="line"/>
      <point x="-18" y="234"/>
      <point x="11" y="279"/>
      <point x="113" y="279" type="curve" smooth="yes"/>
      <point x="387" y="279"/>
      <point x="481" y="189"/>
      <point x="617" y="189" type="curve" smooth="yes"/>
      <point x="753" y="189"/>
      <point x="765" y="276"/>
      <point x="771" y="357" type="curve"/>
      <point x="763" y="357" type="line"/>
      <point x="759" y="306"/>
      <point x="730" y="267"/>
      <point x="630" y="267" type="curve" smooth="yes"/>
      <point x="407" y="267"/>
      <point x="310" y="353"/>
      <point x="145" y="353" type="curve" smooth="yes"/>
      <point x="-28" y="353"/>
      <point x="-24" y="265"/>
    </contour>
    <component base="m"/>
  </outline>
</glyph>
<glyph name="uni1D70" format="2">
  <advance width="495"/>
  <unicode hex="1D70"/>
  <anchor x="247" y="536" name="top"/>
  <anchor x="481" y="536" name="topright"/>
  <anchor x="247" y="0" name="bottom"/>
  <outline>
    <contour>
      <point x="-30" y="196" type="curve"/>
      <point x="-20" y="196" type="line"/>
      <point x="-5" y="244"/>
      <point x="3" y="263"/>
      <point x="75" y="263" type="curve" smooth="yes"/>
      <point x="151" y="263"/>
      <point x="320" y="189"/>
      <point x="388" y="189" type="curve" smooth="yes"/>
      <point x="481" y="189"/>
      <point x="518" y="269"/>
      <point x="527" y="348" type="curve"/>
      <point x="517" y="348" type="line"/>
      <point x="502" y="299"/>
      <point x="494" y="281"/>
      <point x="426" y="281" type="curve" smooth="yes"/>
      <point x="353" y="281"/>
      <point x="177" y="355"/>
      <point x="111" y="355" type="curve" smooth="yes"/>
      <point x="20" y="355"/>
      <point x="-20" y="275"/>
    </contour>
    <component base="n"/>
  </outline>
</glyph>
<glyph name="uni1D74" format="2">
  <advance width="372"/>
  <unicode hex="1D74"/>
  <outline>
    <contour>
      <point x="163" y="-10" type="curve" smooth="yes"/>
      <point x="271" y="-10"/>
      <point x="345" y="49"/>
      <point x="345" y="154" type="curve" smooth="yes"/>
      <point x="345" y="172"/>
      <point x="342" y="189"/>
      <point x="340" y="204" type="curve"/>
      <point x="371" y="216"/>
      <point x="385" y="252"/>
      <point x="390" y="287" type="curve"/>
      <point x="380" y="287" type="line"/>
      <point x="373" y="262"/>
      <point x="350" y="250"/>
      <point x="315" y="250" type="curve"/>
      <point x="296" y="290"/>
      <point x="267" y="308"/>
      <point x="232" y="327" type="curve" smooth="yes"/>
      <point x="134" y="373"/>
      <point x="121" y="402"/>
      <point x="121" y="457" type="curve" smooth="yes"/>
      <point x="121" y="524"/>
      <point x="156" y="537"/>
      <point x="179" y="537" type="curve" smooth="yes"/>
      <point x="221" y="537"/>
      <point x="251" y="516"/>
      <point x="251" y="389" type="curve"/>
      <point x="310" y="389"/>
      <point x="332" y="415"/>
      <point x="332" y="452" type="curve" smooth="yes"/>
      <point x="332" y="502"/>
      <point x="293" y="547"/>
      <point x="193" y="547" type="curve" smooth="yes"/>
      <point x="87" y="547"/>
      <point x="23" y="495"/>
      <point x="23" y="395" type="curve" smooth="yes"/>
      <point x="23" y="350"/>
      <point x="35" y="318"/>
      <point x="52" y="292" type="curve"/>
      <point x="10" y="278"/>
      <point x="-9" y="244"/>
      <point x="-12" y="208" type="curve"/>
      <point x="-2" y="208" type="line"/>
      <point x="-2" y="201"/>
      <point x="-3" y="249"/>
      <point x="45" y="249" type="curve" smooth="yes"/>
      <point x="74" y="249"/>
      <point x="104" y="252"/>
      <point x="156" y="212" type="curve" smooth="yes"/>
      <point x="238" y="161"/>
      <point x="250" y="140"/>
      <point x="250" y="89" type="curve" smooth="yes"/>
      <point x="250" y="29"/>
      <point x="225" y="0"/>
      <point x="173" y="0" type="curve" smooth="yes"/>
      <point x="112" y="0"/>
      <point x="95" y="36"/>
      <point x="95" y="175" type="curve"/>
      <point x="87" y="175"/>
      <point x="18" y="170"/>
      <point x="18" y="101" type="curve" smooth="yes"/>
      <point x="18" y="32"/>
      <point x="66" y="-10"/>
    </contour>
  </outline>
</glyph>
<glyph name="uni1D75" format="2">
  <advance width="322"/>
  <unicode hex="1D75"/>
  <anchor x="152" y="659" name="top"/>
  <anchor x="162" y="268" name="center"/>
  <anchor x="336" y="659" name="topright"/>
  <anchor x="195" y="0" name="bottom"/>
  <outline>
    <contour>
      <point x="-35" y="212" type="curve"/>
      <point x="-25" y="212" type="line"/>
      <point x="-23" y="224"/>
      <point x="-18" y="287"/>
      <point x="45" y="287" type="curve" smooth="yes"/>
      <point x="109" y="287"/>
      <point x="140" y="202"/>
      <point x="214" y="202" type="curve" smooth="yes"/>
      <point x="272" y="202"/>
      <point x="314" y="260"/>
      <point x="317" y="342" type="curve"/>
      <point x="307" y="342" type="line"/>
      <point x="306" y="327"/>
      <point x="297" y="267"/>
      <point x="237" y="267" type="curve" smooth="yes"/>
      <point x="179" y="267"/>
      <point x="121" y="352"/>
      <point x="66" y="352" type="curve" smooth="yes"/>
      <point x="7" y="352"/>
      <point x="-31" y="284"/>
    </contour>
    <component base="t"/>
  </outline>
</glyph>
<glyph name="uni1D8F" format="2">
  <advance width="454"/>
  <unicode hex="1D8F"/>
  <anchor x="228" y="536" name="top"/>
  <anchor x="434" y="536" name="topright"/>
  <anchor x="228" y="0" name="bottom"/>
  <outline>
    <contour>
      <point x="507" y="-204" type="curve" smooth="yes"/>
      <point x="553" y="-204"/>
      <point x="572" y="-179"/>
      <point x="572" y="-138" type="curve" smooth="yes"/>
      <point x="572" y="-123"/>
      <point x="569" y="-108"/>
      <point x="563" y="-101" type="curve"/>
      <point x="557" y="-113"/>
      <point x="535" y="-119"/>
      <point x="505" y="-119" type="curve" smooth="yes"/>
      <point x="452" y="-119"/>
      <point x="436" y="-100"/>
      <point x="436" y="-37" type="curve" smooth="yes"/>
      <point x="436" y="10" type="line"/>
      <point x="426" y="10" type="line"/>
      <point x="426" y="-27" type="line" smooth="yes"/>
      <point x="426" y="-165"/>
      <point x="450" y="-204"/>
    </contour>
    <component base="a"/>
  </outline>
</glyph>
<glyph name="dottedacute" format="2">
  <unicode hex="1DC1"/>
  <anchor x="0" y="536" name="_top"/>
  <anchor x="0" y="789" name="top"/>
  <outline>
    <contour>
      <point x="-58" y="630" type="line"/>
      <point x="-45" y="630" type="line"/>
      <point x="-22" y="669"/>
      <point x="38" y="775"/>
      <point x="33" y="794" type="curve"/>
      <point x="33" y="802" type="line"/>
      <point x="-20" y="802" type="line"/>
      <point x="-23" y="759"/>
      <point x="-43" y="679"/>
      <point x="-58" y="645" type="curve"/>
    </contour>
    <contour>
      <point x="-134" y="619" type="curve" smooth="yes"/>
      <point x="-114" y="619"/>
      <point x="-95" y="635"/>
      <point x="-95" y="675" type="curve" smooth="yes"/>
      <point x="-95" y="716"/>
      <point x="-114" y="731"/>
      <point x="-134" y="731" type="curve" smooth="yes"/>
      <point x="-155" y="731"/>
      <point x="-173" y="716"/>
      <point x="-173" y="675" type="curve" smooth="yes"/>
      <point x="-173" y="635"/>
      <point x="-155" y="619"/>
    </contour>
    <contour>
      <point x="115" y="697" type="curve" smooth="yes"/>
      <point x="137" y="697"/>
      <point x="155" y="714"/>
      <point x="155" y="753" type="curve" smooth="yes"/>
      <point x="155" y="794"/>
      <point x="137" y="809"/>
      <point x="115" y="809" type="curve" smooth="yes"/>
      <point x="95" y="809"/>
      <point x="78" y="794"/>
      <point x="78" y="753" type="curve" smooth="yes"/>
      <point x="78" y="714"/>
      <point x="95" y="697"/>
    </contour>
  </outline>
</glyph>
<glyph name="macronbreve" format="2">
  <unicode hex="1DCC"/>
  <anchor x="-152" y="536" name="_top"/>
  <anchor x="-152" y="761" name="top"/>
  <outline>
    <contour>
      <point x="-76" y="606" type="curve" smooth="yes"/>
      <point x="20" y="606"/>
      <point x="54" y="711"/>
      <point x="51" y="761" type="curve"/>
      <point x="41" y="761" type="line"/>
      <point x="36" y="713"/>
      <point x="10" y="683"/>
      <point x="-75" y="683" type="curve" smooth="yes"/>
      <point x="-164" y="683"/>
      <point x="-189" y="713"/>
      <point x="-192" y="761" type="curve"/>
      <point x="-202" y="761" type="line"/>
      <point x="-205" y="710"/>
      <point x="-169" y="606"/>
    </contour>
    <contour>
      <point x="-353" y="741" type="line"/>
      <point x="-193" y="741" type="line"/>
      <point x="-193" y="761" type="line"/>
      <point x="-353" y="761" type="line"/>
    </contour>
  </outline>
</glyph>
<glyph name="isbelowcomb" format="2">
  <unicode hex="1DD0"/>
  <anchor x="0" y="0" name="_bottom"/>
  <anchor x="0" y="-291" name="bottom"/>
  <outline>
    <contour>
      <point x="55" y="-284" type="curve" smooth="yes"/>
      <point x="90" y="-284"/>
      <point x="122" y="-241"/>
      <point x="122" y="-178" type="curve" smooth="yes"/>
      <point x="122" y="-140"/>
      <point x="109" y="-105"/>
      <point x="91" y="-80" type="curve"/>
      <point x="80" y="-80" type="line"/>
      <point x="102" y="-110"/>
      <point x="111" y="-141"/>
      <point x="111" y="-167" type="curve" smooth="yes"/>
      <point x="111" y="-188"/>
      <point x="104" y="-226"/>
      <point x="64" y="-226" type="curve" smooth="yes"/>
      <point x="34" y="-226"/>
      <point x="19" y="-200"/>
      <point x="-1" y="-183" type="curve" smooth="yes"/>
      <point x="-17" y="-167"/>
      <point x="-27" y="-152"/>
      <point x="-49" y="-152" type="curve" smooth="yes"/>
      <point x="-83" y="-152"/>
      <point x="-89" y="-178"/>
      <point x="-98" y="-196" type="curve"/>
      <point x="-56" y="0" type="line"/>
      <point x="-67" y="0" type="line"/>
      <point x="-123" y="-274" type="line"/>
      <point x="-118" y="-274" type="line"/>
      <point x="-107" y="-231"/>
      <point x="-89" y="-208"/>
      <point x="-70" y="-208" type="curve" smooth="yes"/>
      <point x="-50" y="-208"/>
      <point x="-30" y="-230"/>
      <point x="-14" y="-245" type="curve" smooth="yes"/>
      <point x="4" y="-261"/>
      <point x="27" y="-284"/>
    </contour>
  </outline>
</glyph>
<glyph name="usabove" format="2">
  <unicode hex="1DD2"/>
  <anchor x="0" y="470" name="_top"/>
  <anchor x="1" y="839" name="top"/>
  <outline>
    <contour>
      <point x="-70" y="499" type="line"/>
      <point x="27" y="556"/>
      <point x="113" y="602"/>
      <point x="113" y="713" type="curve" smooth="yes"/>
      <point x="113" y="792"/>
      <point x="63" y="834"/>
      <point x="1" y="834" type="curve" smooth="yes"/>
      <point x="-62" y="834"/>
      <point x="-110" y="794"/>
      <point x="-110" y="730" type="curve" smooth="yes"/>
      <point x="-110" y="664"/>
      <point x="-64" y="626"/>
      <point x="-12" y="626" type="curve" smooth="yes"/>
      <point x="7" y="626" type="line"/>
      <point x="7" y="636" type="line"/>
      <point x="-5" y="636"/>
      <point x="-30" y="659"/>
      <point x="-30" y="729" type="curve" smooth="yes"/>
      <point x="-30" y="799"/>
      <point x="-21" y="824"/>
      <point x="0" y="824" type="curve" smooth="yes"/>
      <point x="26" y="824"/>
      <point x="34" y="795"/>
      <point x="34" y="717" type="curve" smooth="yes"/>
      <point x="34" y="583"/>
      <point x="-8" y="535"/>
      <point x="-70" y="509" type="curve"/>
    </contour>
  </outline>
</glyph>
<glyph name="yloop" format="2">
  <advance width="426"/>
  <unicode hex="1EFF"/>
  <anchor x="213" y="-241" name="bottom"/>
  <anchor x="213" y="536" name="top"/>
  <outline>
    <contour>
      <point x="90" y="-243" type="curve" smooth="yes"/>
      <point x="142" y="-243"/>
      <point x="186" y="-197"/>
      <point x="206" y="-122" type="curve" smooth="yes"/>
      <point x="363" y="447" type="line" smooth="yes"/>
      <point x="382" y="514"/>
      <point x="390" y="526"/>
      <point x="426" y="526" type="curve"/>
      <point x="426" y="536" type="line"/>
      <point x="289" y="536" type="line"/>
      <point x="289" y="526" type="line"/>
      <point x="335" y="526"/>
      <point x="357" y="523"/>
      <point x="357" y="480" type="curve" smooth="yes"/>
      <point x="357" y="468"/>
      <point x="355" y="453"/>
      <point x="349" y="435" type="curve" smooth="yes"/>
      <point x="298" y="244" type="line" smooth="yes"/>
      <point x="289" y="212"/>
      <point x="286" y="192"/>
      <point x="276" y="155" type="curve"/>
      <point x="274" y="155" type="line"/>
      <point x="267" y="181"/>
      <point x="260" y="209"/>
      <point x="256" y="225" type="curve" smooth="yes"/>
      <point x="188" y="450" type="line" smooth="yes"/>
      <point x="182" y="469"/>
      <point x="179" y="483"/>
      <point x="179" y="495" type="curve" smooth="yes"/>
      <point x="179" y="521"/>
      <point x="192" y="526"/>
      <point x="235" y="526" type="curve"/>
      <point x="236" y="536" type="line"/>
      <point x="-1" y="536" type="line"/>
      <point x="-1" y="526" type="line"/>
      <point x="22" y="526"/>
      <point x="33" y="520"/>
      <point x="46" y="478" type="curve" smooth="yes"/>
      <point x="218" y="-44" type="line"/>
      <point x="212" y="-67" type="line"/>
      <point x="183" y="-21"/>
      <point x="139" y="3"/>
      <point x="101" y="3" type="curve" smooth="yes"/>
      <point x="32" y="3"/>
      <point x="-9" y="-47"/>
      <point x="-9" y="-127" type="curve" smooth="yes"/>
      <point x="-9" y="-198"/>
      <point x="25" y="-243"/>
    </contour>
    <contour>
      <point x="90" y="-233" type="curve" smooth="yes"/>
      <point x="34" y="-233"/>
      <point x="3" y="-192"/>
      <point x="3" y="-127" type="curve" smooth="yes"/>
      <point x="3" y="-53"/>
      <point x="37" y="-7"/>
      <point x="100" y="-7" type="curve" smooth="yes"/>
      <point x="138" y="-7"/>
      <point x="182" y="-32"/>
      <point x="208" y="-78" type="curve"/>
      <point x="199" y="-109" type="line" smooth="yes"/>
      <point x="175" y="-196"/>
      <point x="137" y="-233"/>
    </contour>
  </outline>
</glyph>
<glyph name="uni1FBE" format="2">
  <advance width="210"/>
  <unicode hex="1FBE"/>
  <outline>
    <contour>
      <point x="120" y="-239" type="curve" smooth="yes"/>
      <point x="152" y="-239"/>
      <point x="171" y="-232"/>
      <point x="176" y="-227" type="curve"/>
      <point x="176" y="-217" type="line"/>
      <point x="165" y="-218"/>
      <point x="154" y="-218"/>
      <point x="147" y="-218" type="curve" smooth="yes"/>
      <point x="120" y="-218"/>
      <point x="111" y="-208"/>
      <point x="111" y="-165" type="curve" smooth="yes"/>
      <point x="111" y="-69" type="line"/>
      <point x="32" y="-69" type="line"/>
      <point x="32" y="-137" type="line" smooth="yes"/>
      <point x="32" y="-207"/>
      <point x="65" y="-239"/>
    </contour>
  </outline>
</glyph>
<glyph name="dagger" format="2">
  <advance width="363"/>
  <unicode hex="2020"/>
  <outline>
    <contour>
      <point x="177" y="-111" type="curve"/>
      <point x="187" y="-111" type="line"/>
      <point x="187" y="150"/>
      <point x="223" y="321"/>
      <point x="243" y="368" type="curve"/>
      <point x="192" y="502" type="line"/>
      <point x="337" y="453" type="line"/>
      <point x="337" y="566" type="line"/>
      <point x="192" y="520" type="line"/>
      <point x="235" y="760" type="line"/>
      <point x="127" y="760" type="line"/>
      <point x="173" y="520" type="line"/>
      <point x="27" y="566" type="line"/>
      <point x="27" y="453" type="line"/>
      <point x="173" y="502" type="line"/>
      <point x="120" y="368" type="line"/>
      <point x="141" y="321"/>
      <point x="177" y="150"/>
    </contour>
  </outline>
</glyph>
<glyph name="daggerdbl" format="2">
  <advance width="363"/>
  <unicode hex="2021"/>
  <outline>
    <contour>
      <point x="128" y="-111" type="line"/>
      <point x="239" y="-111" type="line"/>
      <point x="187" y="72" type="line"/>
      <point x="337" y="21" type="line"/>
      <point x="337" y="137" type="line"/>
      <point x="187" y="82" type="line"/>
      <point x="242" y="214" type="line"/>
      <point x="213" y="259"/>
      <point x="191" y="296"/>
      <point x="187" y="327" type="curve"/>
      <point x="201" y="366"/>
      <point x="222" y="404"/>
      <point x="242" y="436" type="curve"/>
      <point x="187" y="565" type="line"/>
      <point x="337" y="512" type="line"/>
      <point x="337" y="628" type="line"/>
      <point x="187" y="575" type="line"/>
      <point x="239" y="760" type="line"/>
      <point x="128" y="760" type="line"/>
      <point x="178" y="575" type="line"/>
      <point x="27" y="628" type="line"/>
      <point x="27" y="512" type="line"/>
      <point x="178" y="565" type="line"/>
      <point x="117" y="436" type="line"/>
      <point x="139" y="409"/>
      <point x="162" y="371"/>
      <point x="178" y="327" type="curve"/>
      <point x="167" y="282"/>
      <point x="146" y="246"/>
      <point x="117" y="214" type="curve"/>
      <point x="178" y="82" type="line"/>
      <point x="27" y="137" type="line"/>
      <point x="27" y="21" type="line"/>
      <point x="178" y="72" type="line"/>
    </contour>
  </outline>
</glyph>
<glyph name="caret" format="2">
  <advance width="339"/>
  <unicode hex="2038"/>
  <outline>
    <contour>
      <point x="10" y="-240" type="line"/>
      <point x="95" y="-240" type="line"/>
      <point x="169" y="-50" type="line"/>
      <point x="246" y="-240" type="line"/>
      <point x="329" y="-240" type="line"/>
      <point x="222" y="42" type="line"/>
      <point x="118" y="42" type="line"/>
    </contour>
  </outline>
</glyph>
<glyph name="blackleftbullet" format="2">
  <advance width="457"/>
  <unicode hex="204C"/>
  <outline>
    <contour>
      <point x="161" y="188" type="curve" smooth="yes"/>
      <point x="428" y="188" type="line"/>
      <point x="428" y="198" type="line"/>
      <point x="418" y="198" type="line" smooth="yes"/>
      <point x="379" y="198"/>
      <point x="359" y="215"/>
      <point x="359" y="261" type="curve" smooth="yes"/>
      <point x="359" y="471" type="line" smooth="yes"/>
      <point x="359" y="514"/>
      <point x="380" y="534"/>
      <point x="418" y="534" type="curve" smooth="yes"/>
      <point x="428" y="534" type="line"/>
      <point x="428" y="544" type="line"/>
      <point x="161" y="544" type="line" smooth="yes"/>
      <point x="78" y="544"/>
      <point x="28" y="473"/>
      <point x="28" y="366" type="curve" smooth="yes"/>
      <point x="28" y="259"/>
      <point x="78" y="188"/>
    </contour>
    <contour>
      <point x="232" y="198" type="line"/>
      <point x="232" y="534" type="line"/>
      <point x="302" y="534" type="line"/>
      <point x="302" y="198" type="line"/>
    </contour>
  </outline>
</glyph>
<glyph name="twodotpunctuation" format="2">
  <advance width="229"/>
  <unicode hex="205A"/>
  <outline>
    <contour>
      <point x="115" y="564" type="curve" smooth="yes"/>
      <point x="151" y="564"/>
      <point x="182" y="586"/>
      <point x="182" y="645" type="curve" smooth="yes"/>
      <point x="182" y="705"/>
      <point x="151" y="724"/>
      <point x="115" y="724" type="curve" smooth="yes"/>
      <point x="74" y="724"/>
      <point x="44" y="705"/>
      <point x="44" y="645" type="curve" smooth="yes"/>
      <point x="44" y="586"/>
      <point x="74" y="564"/>
    </contour>
    <contour>
      <point x="115" y="-9" type="curve" smooth="yes"/>
      <point x="151" y="-9"/>
      <point x="182" y="13"/>
      <point x="182" y="70" type="curve" smooth="yes"/>
      <point x="182" y="132"/>
      <point x="151" y="151"/>
      <point x="115" y="151" type="curve" smooth="yes"/>
      <point x="74" y="151"/>
      <point x="44" y="132"/>
      <point x="44" y="70" type="curve" smooth="yes"/>
      <point x="44" y="13"/>
      <point x="74" y="-9"/>
    </contour>
  </outline>
</glyph>
<glyph name="zerosuperior" format="2">
  <advance width="282"/>
  <unicode hex="2070"/>
  <outline>
    <contour>
      <point x="141" y="380" type="curve" smooth="yes"/>
      <point x="243" y="380"/>
      <point x="273" y="470"/>
      <point x="273" y="605" type="curve" smooth="yes"/>
      <point x="273" y="739"/>
      <point x="243" y="824"/>
      <point x="142" y="824" type="curve" smooth="yes"/>
      <point x="33" y="824"/>
      <point x="9" y="739"/>
      <point x="9" y="605" type="curve" smooth="yes"/>
      <point x="9" y="470"/>
      <point x="33" y="380"/>
    </contour>
    <contour>
      <point x="141" y="390" type="curve" smooth="yes"/>
      <point x="113" y="390"/>
      <point x="104" y="432"/>
      <point x="104" y="606" type="curve" smooth="yes"/>
      <point x="104" y="774"/>
      <point x="114" y="814"/>
      <point x="142" y="814" type="curve" smooth="yes"/>
      <point x="168" y="814"/>
      <point x="177" y="774"/>
      <point x="177" y="606" type="curve" smooth="yes"/>
      <point x="177" y="432"/>
      <point x="168" y="390"/>
    </contour>
  </outline>
</glyph>
<glyph name="fivesuperior" format="2">
  <advance width="282"/>
  <unicode hex="2075"/>
  <outline>
    <contour>
      <point x="127" y="380" type="curve" smooth="yes"/>
      <point x="225" y="380"/>
      <point x="264" y="443"/>
      <point x="264" y="520" type="curve" smooth="yes"/>
      <point x="264" y="614"/>
      <point x="202" y="651"/>
      <point x="149" y="651" type="curve" smooth="yes"/>
      <point x="98" y="651"/>
      <point x="68" y="627"/>
      <point x="47" y="595" type="curve"/>
      <point x="60" y="732" type="line"/>
      <point x="203" y="732" type="line" smooth="yes"/>
      <point x="226" y="732"/>
      <point x="233" y="725"/>
      <point x="234" y="703" type="curve" smooth="yes"/>
      <point x="235" y="691" type="line"/>
      <point x="244" y="691" type="line"/>
      <point x="239" y="814" type="line"/>
      <point x="57" y="814" type="line"/>
      <point x="36" y="585" type="line"/>
      <point x="49" y="582" type="line"/>
      <point x="73" y="621"/>
      <point x="95" y="630"/>
      <point x="117" y="630" type="curve" smooth="yes"/>
      <point x="156" y="630"/>
      <point x="166" y="597"/>
      <point x="166" y="504" type="curve" smooth="yes"/>
      <point x="166" y="415"/>
      <point x="157" y="383"/>
      <point x="127" y="383" type="curve" smooth="yes"/>
      <point x="96" y="383"/>
      <point x="85" y="415"/>
      <point x="85" y="514" type="curve"/>
      <point x="48" y="514"/>
      <point x="19" y="493"/>
      <point x="19" y="457" type="curve" smooth="yes"/>
      <point x="19" y="419"/>
      <point x="58" y="380"/>
    </contour>
  </outline>
</glyph>
<glyph name="sixsuperior" format="2">
  <advance width="282"/>
  <unicode hex="2076"/>
  <outline>
    <contour>
      <point x="143" y="380" type="curve" smooth="yes"/>
      <point x="222" y="380"/>
      <point x="266" y="436"/>
      <point x="266" y="522" type="curve" smooth="yes"/>
      <point x="266" y="594"/>
      <point x="234" y="647"/>
      <point x="146" y="647" type="curve" smooth="yes"/>
      <point x="124" y="647"/>
      <point x="116" y="646"/>
      <point x="105" y="644" type="curve"/>
      <point x="106" y="768"/>
      <point x="115" y="814"/>
      <point x="143" y="814" type="curve" smooth="yes"/>
      <point x="171" y="814"/>
      <point x="181" y="790"/>
      <point x="181" y="712" type="curve"/>
      <point x="216" y="712"/>
      <point x="254" y="729"/>
      <point x="254" y="756" type="curve" smooth="yes"/>
      <point x="254" y="803"/>
      <point x="210" y="824"/>
      <point x="162" y="824" type="curve" smooth="yes"/>
      <point x="65" y="824"/>
      <point x="8" y="754"/>
      <point x="8" y="588" type="curve" smooth="yes"/>
      <point x="8" y="449"/>
      <point x="47" y="380"/>
    </contour>
    <contour>
      <point x="141" y="390" type="curve" smooth="yes"/>
      <point x="114" y="390"/>
      <point x="105" y="450"/>
      <point x="105" y="632" type="curve"/>
      <point x="115" y="636"/>
      <point x="127" y="641"/>
      <point x="140" y="641" type="curve" smooth="yes"/>
      <point x="164" y="641"/>
      <point x="168" y="609"/>
      <point x="168" y="512" type="curve" smooth="yes"/>
      <point x="168" y="420"/>
      <point x="165" y="390"/>
    </contour>
  </outline>
</glyph>
<glyph name="eightsuperior" format="2">
  <advance width="282"/>
  <unicode hex="2078"/>
  <outline>
    <contour>
      <point x="143" y="380" type="curve" smooth="yes"/>
      <point x="232" y="380"/>
      <point x="277" y="421"/>
      <point x="277" y="497" type="curve" smooth="yes"/>
      <point x="277" y="588"/>
      <point x="220" y="609"/>
      <point x="168" y="632" type="curve"/>
      <point x="214" y="644"/>
      <point x="264" y="669"/>
      <point x="264" y="723" type="curve" smooth="yes"/>
      <point x="264" y="796"/>
      <point x="209" y="824"/>
      <point x="136" y="824" type="curve" smooth="yes"/>
      <point x="47" y="824"/>
      <point x="12" y="774"/>
      <point x="12" y="715" type="curve" smooth="yes"/>
      <point x="12" y="646"/>
      <point x="47" y="618"/>
      <point x="86" y="595" type="curve"/>
      <point x="58" y="575"/>
      <point x="5" y="552"/>
      <point x="5" y="488" type="curve" smooth="yes"/>
      <point x="5" y="410"/>
      <point x="53" y="380"/>
    </contour>
    <contour>
      <point x="131" y="390" type="curve" smooth="yes"/>
      <point x="92" y="390"/>
      <point x="74" y="424"/>
      <point x="74" y="491" type="curve" smooth="yes"/>
      <point x="74" y="530"/>
      <point x="80" y="563"/>
      <point x="99" y="588" type="curve"/>
      <point x="144" y="563"/>
      <point x="193" y="542"/>
      <point x="193" y="472" type="curve" smooth="yes"/>
      <point x="193" y="423"/>
      <point x="171" y="390"/>
    </contour>
    <contour>
      <point x="160" y="637" type="curve"/>
      <point x="122" y="657"/>
      <point x="90" y="682"/>
      <point x="90" y="749" type="curve" smooth="yes"/>
      <point x="90" y="791"/>
      <point x="106" y="814"/>
      <point x="134" y="814" type="curve" smooth="yes"/>
      <point x="160" y="814"/>
      <point x="182" y="792"/>
      <point x="182" y="728" type="curve" smooth="yes"/>
      <point x="182" y="692"/>
      <point x="174" y="659"/>
    </contour>
  </outline>
</glyph>
<glyph name="plussuperior" format="2">
  <advance width="293"/>
  <unicode hex="207A"/>
  <outline>
    <contour>
      <point x="137" y="328" type="line"/>
      <point x="157" y="328" type="line"/>
      <point x="157" y="472" type="line"/>
      <point x="240" y="472" type="line"/>
      <point x="240" y="492" type="line"/>
      <point x="157" y="492" type="line"/>
      <point x="157" y="635" type="line"/>
      <point x="137" y="635" type="line"/>
      <point x="137" y="492" type="line"/>
      <point x="53" y="492" type="line"/>
      <point x="53" y="472" type="line"/>
      <point x="137" y="472" type="line"/>
    </contour>
  </outline>
</glyph>
<glyph name="sheqel" format="2">
  <advance width="645"/>
  <unicode hex="20AA"/>
  <outline>
    <contour>
      <point x="36" y="0" type="line"/>
      <point x="154" y="0" type="line"/>
      <point x="154" y="589" type="line"/>
      <point x="269" y="589" type="line" smooth="yes"/>
      <point x="340" y="589"/>
      <point x="342" y="556"/>
      <point x="342" y="430" type="curve" smooth="yes"/>
      <point x="342" y="27" type="line"/>
      <point x="460" y="27" type="line"/>
      <point x="460" y="375" type="line" smooth="yes"/>
      <point x="460" y="533"/>
      <point x="415" y="599"/>
      <point x="300" y="599" type="curve" smooth="yes"/>
      <point x="36" y="599" type="line"/>
    </contour>
    <contour>
      <point x="193" y="0" type="line"/>
      <point x="450" y="0" type="line"/>
      <point x="565" y="0"/>
      <point x="611" y="65"/>
      <point x="611" y="224" type="curve" smooth="yes"/>
      <point x="611" y="599" type="line"/>
      <point x="492" y="599" type="line"/>
      <point x="492" y="169" type="line" smooth="yes"/>
      <point x="492" y="43"/>
      <point x="492" y="10"/>
      <point x="419" y="10" type="curve" smooth="yes"/>
      <point x="311" y="10" type="line"/>
      <point x="311" y="571" type="line"/>
      <point x="193" y="571" type="line"/>
    </contour>
  </outline>
</glyph>
<glyph name="prescription" format="2">
  <advance width="626"/>
  <unicode hex="211E"/>
  <outline>
    <contour>
      <point x="16" y="0" type="line"/>
      <point x="228" y="0" type="line"/>
      <point x="228" y="334" type="line"/>
      <point x="250" y="334" type="line"/>
      <point x="378" y="144" type="line"/>
      <point x="317" y="74" type="line" smooth="yes"/>
      <point x="272" y="22"/>
      <point x="249" y="10"/>
      <point x="237" y="10" type="curve" smooth="yes"/>
      <point x="246" y="10" type="line"/>
      <point x="246" y="0" type="line"/>
      <point x="373" y="0" type="line"/>
      <point x="373" y="10" type="line"/>
      <point x="334" y="10"/>
      <point x="313" y="14"/>
      <point x="313" y="32" type="curve" smooth="yes"/>
      <point x="313" y="44"/>
      <point x="309" y="45"/>
      <point x="384" y="134" type="curve"/>
      <point x="404" y="103" type="line" smooth="yes"/>
      <point x="444" y="40"/>
      <point x="487" y="0"/>
      <point x="570" y="0" type="curve" smooth="yes"/>
      <point x="617" y="0" type="line"/>
      <point x="617" y="10" type="line"/>
      <point x="615" y="10" type="line" smooth="yes"/>
      <point x="604" y="10"/>
      <point x="599" y="20"/>
      <point x="509" y="160" type="curve" smooth="yes"/>
      <point x="478" y="213" type="line"/>
      <point x="529" y="262" type="line" smooth="yes"/>
      <point x="577" y="313"/>
      <point x="597" y="326"/>
      <point x="600" y="326" type="curve" smooth="yes"/>
      <point x="610" y="326" type="line"/>
      <point x="610" y="336" type="line"/>
      <point x="458" y="336" type="line"/>
      <point x="458" y="326" type="line"/>
      <point x="506" y="326"/>
      <point x="529" y="324"/>
      <point x="529" y="299" type="curve" smooth="yes"/>
      <point x="529" y="279"/>
      <point x="516" y="264"/>
      <point x="472" y="221" type="curve"/>
      <point x="405" y="329" type="line"/>
      <point x="424" y="356"/>
      <point x="491" y="408"/>
      <point x="491" y="529" type="curve" smooth="yes"/>
      <point x="491" y="654"/>
      <point x="422" y="714"/>
      <point x="303" y="714" type="curve" smooth="yes"/>
      <point x="16" y="714" type="line"/>
      <point x="16" y="704" type="line"/>
      <point x="32" y="704" type="line" smooth="yes"/>
      <point x="84" y="704"/>
      <point x="81" y="684"/>
      <point x="81" y="640" type="curve" smooth="yes"/>
      <point x="81" y="73" type="line" smooth="yes"/>
      <point x="81" y="29"/>
      <point x="81" y="10"/>
      <point x="32" y="10" type="curve" smooth="yes"/>
      <point x="16" y="10" type="line"/>
    </contour>
    <contour>
      <point x="228" y="344" type="line"/>
      <point x="228" y="704" type="line"/>
      <point x="242" y="704" type="line" smooth="yes"/>
      <point x="309" y="704"/>
      <point x="329" y="666"/>
      <point x="329" y="531" type="curve" smooth="yes"/>
      <point x="329" y="382"/>
      <point x="310" y="344"/>
      <point x="242" y="344" type="curve" smooth="yes"/>
    </contour>
  </outline>
</glyph>
<glyph name="telephone" format="2">
  <advance width="699"/>
  <unicode hex="2121"/>
  <outline>
    <contour>
      <point x="58" y="368" type="line"/>
      <point x="195" y="368" type="line"/>
      <point x="195" y="378" type="line"/>
      <point x="196" y="378" type="line" smooth="yes"/>
      <point x="161" y="378"/>
      <point x="158" y="387"/>
      <point x="158" y="409" type="curve" smooth="yes"/>
      <point x="158" y="704" type="line"/>
      <point x="154" y="704" type="line" smooth="yes"/>
      <point x="205" y="704"/>
      <point x="222" y="688"/>
      <point x="226" y="638" type="curve" smooth="yes"/>
      <point x="227" y="623" type="line"/>
      <point x="237" y="623" type="line"/>
      <point x="234" y="714" type="line"/>
      <point x="22" y="714" type="line"/>
      <point x="19" y="623" type="line"/>
      <point x="29" y="623" type="line"/>
      <point x="30" y="638" type="line" smooth="yes"/>
      <point x="33" y="688"/>
      <point x="50" y="704"/>
      <point x="100" y="704" type="curve" smooth="yes"/>
      <point x="96" y="704" type="line"/>
      <point x="96" y="406" type="line" smooth="yes"/>
      <point x="96" y="387"/>
      <point x="92" y="378"/>
      <point x="59" y="378" type="curve" smooth="yes"/>
      <point x="58" y="378" type="line"/>
    </contour>
    <contour>
      <point x="245" y="368" type="line"/>
      <point x="450" y="368" type="line"/>
      <point x="454" y="459" type="line"/>
      <point x="444" y="459" type="line"/>
      <point x="443" y="443" type="line" smooth="yes"/>
      <point x="440" y="394"/>
      <point x="422" y="378"/>
      <point x="368" y="378" type="curve" smooth="yes"/>
      <point x="343" y="378" type="line"/>
      <point x="343" y="542" type="line"/>
      <point x="400" y="542" type="line"/>
      <point x="400" y="552" type="line"/>
      <point x="343" y="552" type="line"/>
      <point x="343" y="704" type="line"/>
      <point x="354" y="704" type="line" smooth="yes"/>
      <point x="404" y="704"/>
      <point x="422" y="689"/>
      <point x="428" y="640" type="curve" smooth="yes"/>
      <point x="430" y="623" type="line"/>
      <point x="440" y="623" type="line"/>
      <point x="437" y="714" type="line"/>
      <point x="245" y="714" type="line"/>
      <point x="245" y="704" type="line"/>
      <point x="244" y="704" type="line" smooth="yes"/>
      <point x="280" y="704"/>
      <point x="284" y="695"/>
      <point x="284" y="673" type="curve" smooth="yes"/>
      <point x="284" y="407" type="line" smooth="yes"/>
      <point x="284" y="387"/>
      <point x="280" y="378"/>
      <point x="244" y="378" type="curve" smooth="yes"/>
      <point x="245" y="378" type="line"/>
    </contour>
    <contour>
      <point x="465" y="368" type="line"/>
      <point x="667" y="368" type="line"/>
      <point x="671" y="478" type="line"/>
      <point x="661" y="478" type="line"/>
      <point x="659" y="454" type="line" smooth="yes"/>
      <point x="655" y="396"/>
      <point x="636" y="378"/>
      <point x="578" y="378" type="curve" smooth="yes"/>
      <point x="550" y="378" type="line"/>
      <point x="550" y="657" type="line" smooth="yes"/>
      <point x="550" y="688"/>
      <point x="550" y="704"/>
      <point x="581" y="704" type="curve" smooth="yes"/>
      <point x="581" y="704" type="line"/>
      <point x="581" y="714" type="line"/>
      <point x="465" y="714" type="line"/>
      <point x="465" y="704" type="line"/>
      <point x="460" y="704" type="line" smooth="yes"/>
      <point x="489" y="704"/>
      <point x="491" y="687"/>
      <point x="491" y="655" type="curve" smooth="yes"/>
      <point x="491" y="409" type="line" smooth="yes"/>
      <point x="491" y="387"/>
      <point x="489" y="378"/>
      <point x="460" y="378" type="curve" smooth="yes"/>
      <point x="465" y="378" type="line"/>
    </contour>
  </outline>
</glyph>
<glyph name="propertyline" format="2">
  <advance width="641"/>
  <unicode hex="214A"/>
  <outline>
    <contour>
      <point x="166" y="0" type="line"/>
      <point x="614" y="0" type="line"/>
      <point x="622" y="212" type="line"/>
      <point x="612" y="212" type="line"/>
      <point x="608" y="170" type="line" smooth="yes"/>
      <point x="597" y="48"/>
      <point x="555" y="10"/>
      <point x="428" y="10" type="curve" smooth="yes"/>
      <point x="379" y="10" type="line"/>
      <point x="379" y="284" type="line"/>
      <point x="536" y="292"/>
      <point x="595" y="399"/>
      <point x="595" y="504" type="curve" smooth="yes"/>
      <point x="595" y="634"/>
      <point x="524" y="713"/>
      <point x="379" y="714" type="curve"/>
      <point x="379" y="799" type="line"/>
      <point x="233" y="799" type="line"/>
      <point x="233" y="714" type="line"/>
      <point x="2" y="714" type="line"/>
      <point x="2" y="704" type="line"/>
      <point x="3" y="704" type="line" smooth="yes"/>
      <point x="50" y="704"/>
      <point x="54" y="684"/>
      <point x="54" y="643" type="curve" smooth="yes"/>
      <point x="54" y="175" type="line"/>
      <point x="199" y="175" type="line"/>
      <point x="199" y="704" type="line"/>
      <point x="233" y="704" type="line"/>
      <point x="233" y="75" type="line" smooth="yes"/>
      <point x="233" y="31"/>
      <point x="227" y="10"/>
      <point x="182" y="10" type="curve" smooth="yes"/>
      <point x="166" y="10" type="line"/>
    </contour>
    <contour>
      <point x="379" y="295" type="curve"/>
      <point x="379" y="703" type="line"/>
      <point x="460" y="695"/>
      <point x="482" y="646"/>
      <point x="482" y="498" type="curve" smooth="yes"/>
      <point x="482" y="357"/>
      <point x="460" y="306"/>
    </contour>
  </outline>
</glyph>
<glyph name="uni2C69" format="2">
  <advance width="588"/>
  <unicode hex="2C69"/>
  <anchor x="294" y="0" name="bottom"/>
  <anchor x="294" y="714" name="top"/>
  <outline>
    <contour>
      <point x="571" y="-210" type="curve"/>
      <point x="581" y="-210" type="line"/>
      <point x="581" y="10" type="line"/>
      <point x="594" y="10" type="line" smooth="yes"/>
      <point x="563" y="10"/>
      <point x="548" y="22"/>
      <point x="464" y="171" type="curve" smooth="yes"/>
      <point x="319" y="446" type="line"/>
      <point x="432" y="617" type="line" smooth="yes"/>
      <point x="501" y="715"/>
      <point x="505" y="704"/>
      <point x="542" y="704" type="curve"/>
      <point x="542" y="714" type="line"/>
      <point x="357" y="714" type="line"/>
      <point x="357" y="704" type="line"/>
      <point x="467" y="704"/>
      <point x="461" y="705"/>
      <point x="461" y="681" type="curve" smooth="yes"/>
      <point x="461" y="680"/>
      <point x="466" y="676"/>
      <point x="468" y="674" type="curve" smooth="yes"/>
      <point x="228" y="319" type="line"/>
      <point x="228" y="648" type="line" smooth="yes"/>
      <point x="228" y="690"/>
      <point x="238" y="704"/>
      <point x="255" y="704" type="curve" smooth="yes"/>
      <point x="279" y="704" type="line"/>
      <point x="279" y="714" type="line"/>
      <point x="16" y="714" type="line"/>
      <point x="16" y="704" type="line"/>
      <point x="50" y="704" type="line" smooth="yes"/>
      <point x="68" y="704"/>
      <point x="81" y="690"/>
      <point x="81" y="649" type="curve" smooth="yes"/>
      <point x="81" y="67" type="line" smooth="yes"/>
      <point x="81" y="23"/>
      <point x="66" y="10"/>
      <point x="46" y="10" type="curve" smooth="yes"/>
      <point x="16" y="10" type="line"/>
      <point x="16" y="0" type="line"/>
      <point x="279" y="0" type="line"/>
      <point x="279" y="10" type="line"/>
      <point x="262" y="10" type="line" smooth="yes"/>
      <point x="243" y="10"/>
      <point x="228" y="24"/>
      <point x="228" y="66" type="curve" smooth="yes"/>
      <point x="228" y="303" type="line"/>
      <point x="241" y="321" type="line"/>
      <point x="325" y="124" type="line" smooth="yes"/>
      <point x="365" y="28"/>
      <point x="424" y="13"/>
      <point x="496" y="-1" type="curve" smooth="yes"/>
      <point x="552" y="-12"/>
      <point x="560" y="-53"/>
    </contour>
  </outline>
</glyph>
<glyph name="uni2C6B" format="2">
  <advance width="523"/>
  <unicode hex="2C6B"/>
  <anchor x="261" y="-211" name="bottom"/>
  <anchor x="261" y="714" name="top"/>
  <outline>
    <contour>
      <point x="460" y="-210" type="curve"/>
      <point x="470" y="-210" type="line"/>
      <point x="470" y="10" type="line"/>
      <point x="187" y="10" type="line"/>
      <point x="470" y="704" type="line"/>
      <point x="470" y="714" type="line"/>
      <point x="53" y="714" type="line"/>
      <point x="47" y="523" type="line"/>
      <point x="58" y="523" type="line"/>
      <point x="61" y="591" type="line" smooth="yes"/>
      <point x="62" y="668"/>
      <point x="107" y="704"/>
      <point x="201" y="704" type="curve" smooth="yes"/>
      <point x="311" y="704" type="line"/>
      <point x="28" y="10" type="line"/>
      <point x="28" y="0" type="line"/>
      <point x="328" y="0" type="line" smooth="yes"/>
      <point x="428" y="0"/>
      <point x="460" y="-50"/>
    </contour>
  </outline>
</glyph>
<glyph name="Turnede" format="2">
  <advance width="405"/>
  <unicode hex="2C7B"/>
  <anchor x="207" y="0" name="bottom"/>
  <anchor x="207" y="536" name="top"/>
  <outline>
    <contour>
      <point x="16" y="0" type="line"/>
      <point x="396" y="0" type="line"/>
      <point x="396" y="10" type="line"/>
      <point x="373" y="10" type="line" smooth="yes"/>
      <point x="344" y="10"/>
      <point x="343" y="26"/>
      <point x="343" y="52" type="curve" smooth="yes"/>
      <point x="343" y="482" type="line" smooth="yes"/>
      <point x="343" y="520"/>
      <point x="359" y="526"/>
      <point x="371" y="526" type="curve" smooth="yes"/>
      <point x="396" y="526" type="line"/>
      <point x="396" y="536" type="line"/>
      <point x="36" y="536" type="line"/>
      <point x="31" y="385" type="line"/>
      <point x="41" y="385" type="line"/>
      <point x="46" y="426" type="line" smooth="yes"/>
      <point x="55" y="502"/>
      <point x="72" y="526"/>
      <point x="123" y="526" type="curve" smooth="yes"/>
      <point x="207" y="526" type="line"/>
      <point x="207" y="284" type="line"/>
      <point x="80" y="284" type="line"/>
      <point x="80" y="274" type="line"/>
      <point x="207" y="274" type="line"/>
      <point x="207" y="10" type="line"/>
      <point x="115" y="10" type="line" smooth="yes"/>
      <point x="47" y="10"/>
      <point x="25" y="36"/>
      <point x="23" y="118" type="curve" smooth="yes"/>
      <point x="22" y="150" type="line"/>
      <point x="12" y="150" type="line"/>
    </contour>
  </outline>
</glyph>
<glyph name="rightdottedsubstitutionbracket" format="2">
  <advance width="247"/>
  <unicode hex="2E05"/>
  <outline>
    <contour>
      <point x="155" y="246" type="line"/>
      <point x="175" y="246" type="line"/>
      <point x="175" y="593" type="line"/>
      <point x="62" y="697" type="line"/>
      <point x="50" y="682" type="line"/>
      <point x="155" y="583" type="line"/>
    </contour>
    <contour>
      <point x="72" y="425" type="curve" smooth="yes"/>
      <point x="88" y="425"/>
      <point x="103" y="439"/>
      <point x="103" y="475" type="curve" smooth="yes"/>
      <point x="103" y="507"/>
      <point x="93" y="525"/>
      <point x="72" y="525" type="curve" smooth="yes"/>
      <point x="54" y="525"/>
      <point x="42" y="508"/>
      <point x="42" y="475" type="curve" smooth="yes"/>
      <point x="42" y="439"/>
      <point x="56" y="425"/>
    </contour>
  </outline>
</glyph>
<glyph name="raisedinterpolationmarker" format="2">
  <advance width="369"/>
  <unicode hex="2E06"/>
  <outline>
    <contour>
      <point x="175" y="246" type="line"/>
      <point x="194" y="246" type="line"/>
      <point x="194" y="669" type="line"/>
      <point x="305" y="669" type="line"/>
      <point x="305" y="689" type="line"/>
      <point x="63" y="689" type="line"/>
      <point x="63" y="669" type="line"/>
      <point x="175" y="669" type="line"/>
    </contour>
  </outline>
</glyph>
<glyph name="reversedforkedparagraphos" format="2">
  <advance width="597"/>
  <unicode hex="2E11"/>
  <outline>
    <contour>
      <point x="579" y="-277" type="line"/>
      <point x="590" y="-260" type="line"/>
      <point x="457" y="-123" type="line"/>
      <point x="598" y="-123" type="line"/>
      <point x="598" y="-103" type="line"/>
      <point x="-2" y="-103" type="line"/>
      <point x="-2" y="-123" type="line"/>
      <point x="425" y="-123" type="line"/>
    </contour>
  </outline>
</glyph>
<glyph name="brackhalftopright" format="2">
  <advance width="329"/>
  <unicode hex="2E23"/>
  <outline>
    <contour>
      <point x="117" y="316" type="line"/>
      <point x="257" y="316" type="line"/>
      <point x="257" y="760" type="line"/>
      <point x="27" y="760" type="line"/>
      <point x="27" y="750" type="line"/>
      <point x="57" y="750" type="line" smooth="yes"/>
      <point x="113" y="750"/>
      <point x="117" y="728"/>
      <point x="117" y="678" type="curve" smooth="yes"/>
    </contour>
  </outline>
</glyph>
<glyph name="verticaltilde" format="2">
  <advance width="238"/>
  <unicode hex="2E2F"/>
  <outline>
    <contour>
      <point x="62" y="576" type="line"/>
      <point x="129" y="576"/>
      <point x="174" y="610"/>
      <point x="174" y="663" type="curve" smooth="yes"/>
      <point x="174" y="717"/>
      <point x="126" y="741"/>
      <point x="126" y="793" type="curve" smooth="yes"/>
      <point x="126" y="828"/>
      <point x="147" y="856"/>
      <point x="176" y="856" type="curve"/>
      <point x="176" y="866" type="line"/>
      <point x="109" y="866"/>
      <point x="64" y="832"/>
      <point x="64" y="780" type="curve" smooth="yes"/>
      <point x="64" y="729"/>
      <point x="113" y="707"/>
      <point x="113" y="648" type="curve" smooth="yes"/>
      <point x="113" y="605"/>
      <point x="86" y="586"/>
      <point x="62" y="586" type="curve"/>
    </contour>
  </outline>
</glyph>
<glyph name="uni2E3E" format="2">
  <advance width="207"/>
  <unicode hex="2E3E"/>
  <outline>
    <contour>
      <point x="32" y="-183" type="line"/>
      <point x="62" y="-183" type="line" smooth="yes"/>
      <point x="135" y="-183"/>
      <point x="168" y="-158"/>
      <point x="168" y="-106" type="curve" smooth="yes"/>
      <point x="168" y="-9"/>
      <point x="54" y="-45"/>
      <point x="54" y="30" type="curve" smooth="yes"/>
      <point x="54" y="103"/>
      <point x="168" y="65"/>
      <point x="168" y="161" type="curve" smooth="yes"/>
      <point x="168" y="257"/>
      <point x="54" y="219"/>
      <point x="54" y="292" type="curve" smooth="yes"/>
      <point x="54" y="365"/>
      <point x="168" y="327"/>
      <point x="168" y="423" type="curve" smooth="yes"/>
      <point x="168" y="519"/>
      <point x="54" y="481"/>
      <point x="54" y="554" type="curve" smooth="yes"/>
      <point x="54" y="628"/>
      <point x="168" y="589"/>
      <point x="168" y="685" type="curve" smooth="yes"/>
      <point x="168" y="781"/>
      <point x="54" y="743"/>
      <point x="54" y="821" type="curve" smooth="yes"/>
      <point x="54" y="863"/>
      <point x="88" y="878"/>
      <point x="175" y="878" type="curve"/>
      <point x="175" y="898" type="line"/>
      <point x="145" y="898" type="line" smooth="yes"/>
      <point x="72" y="898"/>
      <point x="37" y="873"/>
      <point x="37" y="821" type="curve" smooth="yes"/>
      <point x="37" y="724"/>
      <point x="151" y="760"/>
      <point x="151" y="685" type="curve" smooth="yes"/>
      <point x="151" y="610"/>
      <point x="37" y="646"/>
      <point x="37" y="554" type="curve" smooth="yes"/>
      <point x="37" y="462"/>
      <point x="151" y="498"/>
      <point x="151" y="423" type="curve" smooth="yes"/>
      <point x="151" y="348"/>
      <point x="37" y="384"/>
      <point x="37" y="292" type="curve" smooth="yes"/>
      <point x="37" y="200"/>
      <point x="151" y="236"/>
      <point x="151" y="161" type="curve" smooth="yes"/>
      <point x="151" y="86"/>
      <point x="37" y="122"/>
      <point x="37" y="30" type="curve" smooth="yes"/>
      <point x="37" y="-66"/>
      <point x="151" y="-28"/>
      <point x="151" y="-106" type="curve" smooth="yes"/>
      <point x="151" y="-148"/>
      <point x="119" y="-163"/>
      <point x="32" y="-163" type="curve"/>
    </contour>
  </outline>
</glyph>
<glyph name="uni2E43" format="2">
  <advance width="500"/>
  <unicode hex="2E43"/>
  <outline>
    <contour>
      <point x="246" y="257" type="curve" smooth="yes"/>
      <point x="460" y="257" type="line"/>
      <point x="460" y="277" type="line"/>
      <point x="270" y="277" type="line" smooth="yes"/>
      <point x="165" y="277"/>
      <point x="145" y="286"/>
      <point x="145" y="342" type="curve" smooth="yes"/>
      <point x="145" y="391"/>
      <point x="168" y="399"/>
      <point x="168" y="454" type="curve" smooth="yes"/>
      <point x="168" y="515"/>
      <point x="143" y="533"/>
      <point x="111" y="533" type="curve" smooth="yes"/>
      <point x="45" y="533"/>
      <point x="40" y="465"/>
      <point x="40" y="424" type="curve" smooth="yes"/>
      <point x="40" y="363"/>
      <point x="57" y="257"/>
    </contour>
  </outline>
</glyph>
<glyph name="uniA641" format="2">
  <advance width="390"/>
  <unicode hex="A641"/>
  <outline>
    <contour>
      <point x="94" y="-255" type="curve"/>
      <point x="94" y="-174"/>
      <point x="98" y="-134"/>
      <point x="157" y="-134" type="curve" smooth="yes"/>
      <point x="218" y="-134"/>
      <point x="204" y="-193"/>
      <point x="284" y="-193" type="curve" smooth="yes"/>
      <point x="347" y="-193"/>
      <point x="387" y="-161"/>
      <point x="387" y="-88" type="curve" smooth="yes"/>
      <point x="387" y="-19"/>
      <point x="340" y="10"/>
      <point x="233" y="10" type="curve" smooth="yes"/>
      <point x="144" y="10" type="line"/>
      <point x="376" y="526" type="line"/>
      <point x="376" y="536" type="line"/>
      <point x="36" y="536" type="line"/>
      <point x="25" y="384" type="line"/>
      <point x="35" y="384" type="line"/>
      <point x="38" y="403" type="line" smooth="yes"/>
      <point x="52" y="489"/>
      <point x="98" y="526"/>
      <point x="186" y="526" type="curve" smooth="yes"/>
      <point x="232" y="526" type="line"/>
      <point x="0" y="10" type="line"/>
      <point x="0" y="0" type="line"/>
      <point x="222" y="0" type="line" smooth="yes"/>
      <point x="328" y="0"/>
      <point x="375" y="-23"/>
      <point x="375" y="-88" type="curve" smooth="yes"/>
      <point x="375" y="-147"/>
      <point x="351" y="-177"/>
      <point x="298" y="-177" type="curve" smooth="yes"/>
      <point x="224" y="-177"/>
      <point x="219" y="-92"/>
      <point x="123" y="-92" type="curve" smooth="yes"/>
      <point x="62" y="-92"/>
      <point x="10" y="-123"/>
      <point x="10" y="-188" type="curve" smooth="yes"/>
      <point x="10" y="-228"/>
      <point x="28" y="-255"/>
    </contour>
  </outline>
</glyph>
<glyph name="uniA648" format="2">
  <advance width="557"/>
  <unicode hex="A648"/>
  <outline>
    <contour>
      <point x="12" y="0" type="line"/>
      <point x="172" y="0" type="line"/>
      <point x="172" y="10" type="line"/>
      <point x="187" y="10" type="line" smooth="yes"/>
      <point x="161" y="10"/>
      <point x="98" y="23"/>
      <point x="98" y="76" type="curve" smooth="yes"/>
      <point x="98" y="296" type="line" smooth="yes"/>
      <point x="98" y="415"/>
      <point x="134" y="458"/>
      <point x="208" y="458" type="curve" smooth="yes"/>
      <point x="272" y="458"/>
      <point x="332" y="431"/>
      <point x="332" y="312" type="curve" smooth="yes"/>
      <point x="332" y="80" type="line" smooth="yes"/>
      <point x="332" y="23"/>
      <point x="320" y="10"/>
      <point x="295" y="10" type="curve" smooth="yes"/>
      <point x="266" y="10" type="line"/>
      <point x="266" y="0" type="line"/>
      <point x="545" y="0" type="line"/>
      <point x="545" y="10" type="line"/>
      <point x="516" y="10" type="line" smooth="yes"/>
      <point x="491" y="10"/>
      <point x="477" y="23"/>
      <point x="477" y="76" type="curve" smooth="yes"/>
      <point x="477" y="246" type="line" smooth="yes"/>
      <point x="477" y="382"/>
      <point x="425" y="449"/>
      <point x="336" y="467" type="curve"/>
      <point x="336" y="549" type="line"/>
      <point x="402" y="549" type="line"/>
      <point x="402" y="559" type="line"/>
      <point x="336" y="559" type="line"/>
      <point x="336" y="645" type="line" smooth="yes"/>
      <point x="336" y="689"/>
      <point x="348" y="704"/>
      <point x="374" y="704" type="curve" smooth="yes"/>
      <point x="402" y="704" type="line"/>
      <point x="402" y="714" type="line"/>
      <point x="120" y="714" type="line"/>
      <point x="120" y="704" type="line"/>
      <point x="151" y="704" type="line" smooth="yes"/>
      <point x="177" y="704"/>
      <point x="186" y="689"/>
      <point x="186" y="644" type="curve" smooth="yes"/>
      <point x="186" y="559" type="line"/>
      <point x="118" y="559" type="line"/>
      <point x="118" y="549" type="line"/>
      <point x="186" y="549" type="line"/>
      <point x="186" y="468" type="line"/>
      <point x="123" y="464"/>
      <point x="88" y="413"/>
      <point x="88" y="291" type="curve" smooth="yes"/>
      <point x="88" y="80" type="line" smooth="yes"/>
      <point x="88" y="23"/>
      <point x="25" y="10"/>
      <point x="-1" y="10" type="curve" smooth="yes"/>
      <point x="12" y="10" type="line"/>
    </contour>
  </outline>
</glyph>
<glyph name="uniA651" format="2">
  <advance width="763"/>
  <unicode hex="A651"/>
  <anchor x="260" y="536" name="top"/>
  <anchor x="260" y="0" name="bottom"/>
  <outline>
    <contour>
      <point x="500" y="0" type="line"/>
      <point x="753" y="0" type="line"/>
      <point x="753" y="10" type="line"/>
      <point x="740" y="10" type="line" smooth="yes"/>
      <point x="723" y="10"/>
      <point x="701" y="26"/>
      <point x="701" y="82" type="curve" smooth="yes"/>
      <point x="701" y="454" type="line" smooth="yes"/>
      <point x="701" y="510"/>
      <point x="723" y="526"/>
      <point x="740" y="526" type="curve" smooth="yes"/>
      <point x="753" y="526" type="line"/>
      <point x="753" y="536" type="line"/>
      <point x="500" y="536" type="line"/>
      <point x="500" y="526" type="line"/>
      <point x="514" y="526" type="line" smooth="yes"/>
      <point x="536" y="526"/>
      <point x="559" y="511"/>
      <point x="559" y="455" type="curve" smooth="yes"/>
      <point x="559" y="82" type="line" smooth="yes"/>
      <point x="559" y="26"/>
      <point x="536" y="10"/>
      <point x="516" y="10" type="curve" smooth="yes"/>
      <point x="500" y="10" type="line"/>
    </contour>
    <component base="afii10092"/>
  </outline>
</glyph>
<glyph name="uniA656" format="2">
  <advance width="875"/>
  <unicode hex="A656"/>
  <anchor x="591" y="714" name="top"/>
  <anchor x="771" y="714" name="topright"/>
  <anchor x="591" y="0" name="bottom"/>
  <outline>
    <contour>
      <point x="16" y="0" type="line"/>
      <point x="279" y="0" type="line"/>
      <point x="279" y="10" type="line"/>
      <point x="252" y="10" type="line" smooth="yes"/>
      <point x="232" y="10"/>
      <point x="228" y="16"/>
      <point x="228" y="68" type="curve" smooth="yes"/>
      <point x="228" y="368" type="line"/>
      <point x="472" y="368" type="line"/>
      <point x="472" y="378" type="line"/>
      <point x="228" y="378" type="line"/>
      <point x="228" y="648" type="line" smooth="yes"/>
      <point x="228" y="694"/>
      <point x="232" y="704"/>
      <point x="252" y="704" type="curve" smooth="yes"/>
      <point x="279" y="704" type="line"/>
      <point x="279" y="714" type="line"/>
      <point x="16" y="714" type="line"/>
      <point x="16" y="704" type="line"/>
      <point x="47" y="704" type="line" smooth="yes"/>
      <point x="79" y="704"/>
      <point x="81" y="692"/>
      <point x="81" y="644" type="curve" smooth="yes"/>
      <point x="81" y="68" type="line" smooth="yes"/>
      <point x="81" y="16"/>
      <point x="79" y="10"/>
      <point x="54" y="10" type="curve" smooth="yes"/>
      <point x="16" y="10" type="line"/>
    </contour>
    <component base="A" xOffset="305"/>
  </outline>
</glyph>
<glyph name="uniA65F" format="2">
  <advance width="551"/>
  <unicode hex="A65F"/>
  <outline>
    <contour>
      <point x="164" y="-240" type="line"/>
      <point x="374" y="-240" type="line"/>
      <point x="374" y="-230" type="line"/>
      <point x="364" y="-230" type="line" smooth="yes"/>
      <point x="300" y="-230"/>
      <point x="301" y="-209"/>
      <point x="301" y="-165" type="curve" smooth="yes"/>
      <point x="301" y="299" type="line"/>
      <point x="373" y="89" type="line" smooth="yes"/>
      <point x="382" y="61"/>
      <point x="385" y="42"/>
      <point x="385" y="32" type="curve" smooth="yes"/>
      <point x="385" y="15"/>
      <point x="379" y="10"/>
      <point x="361" y="10" type="curve" smooth="yes"/>
      <point x="329" y="10" type="line"/>
      <point x="329" y="0" type="line"/>
      <point x="553" y="0" type="line"/>
      <point x="553" y="10" type="line"/>
      <point x="540" y="10"/>
      <point x="525" y="22"/>
      <point x="513" y="58" type="curve" smooth="yes"/>
      <point x="345" y="536" type="line"/>
      <point x="292" y="536" type="line"/>
      <point x="212" y="248" type="line" smooth="yes"/>
      <point x="172" y="108"/>
      <point x="141" y="67"/>
      <point x="91" y="67" type="curve" smooth="yes"/>
      <point x="71" y="67"/>
      <point x="53" y="74"/>
      <point x="37" y="91" type="curve"/>
      <point x="18" y="84"/>
      <point x="9" y="69"/>
      <point x="9" y="46" type="curve" smooth="yes"/>
      <point x="9" y="23"/>
      <point x="21" y="-6"/>
      <point x="75" y="-6" type="curve" smooth="yes"/>
      <point x="110" y="-6"/>
      <point x="133" y="-1"/>
      <point x="146" y="16" type="curve" smooth="yes"/>
      <point x="172" y="76"/>
      <point x="196" y="169"/>
      <point x="237" y="305" type="curve"/>
      <point x="237" y="-165" type="line" smooth="yes"/>
      <point x="237" y="-209"/>
      <point x="238" y="-230"/>
      <point x="174" y="-230" type="curve" smooth="yes"/>
      <point x="164" y="-230" type="line"/>
    </contour>
  </outline>
</glyph>
